<?xml version="1.0" encoding="utf-8"?>
<!-- Generator: Adobe Illustrator 28.0.0, SVG Export Plug-In . SVG Version: 6.00 Build 0)  -->
<svg version="1.1" id="Layer_1" xmlns="http://www.w3.org/2000/svg" xmlns:xlink="http://www.w3.org/1999/xlink" x="0px" y="0px"
	 viewBox="0 0 300 300" style="enable-background:new 0 0 300 300;" xml:space="preserve">
<style type="text/css">
	.st0{fill:#FFFFFF;}
</style>
<g>
	<g>
		<path class="st0" d="M134.3,119.5c-3-1.7-6.8-0.7-8.6,2.3c-0.6,1-0.8,2-0.8,3.2v50.1c0,3.5,2.8,6.3,6.2,6.3c1.1,0,2.2-0.3,3.2-0.8
			l43.9-25.1c3-1.7,4.1-5.5,2.4-8.5c-0.6-1-1.4-1.8-2.4-2.4L134.3,119.5z M137.5,164.2v-28.5l25.1,14.3L137.5,164.2z"/>
		<path class="st0" d="M218.9,56H81.1C67.2,56,56,67.2,56,81.1v137.9c0,13.8,11.2,25.1,25.1,25.1h137.9c13.8,0,25.1-11.2,25.1-25.1
			v-25.1H68.5v-87.7H244V81.1C244,67.2,232.8,56,218.9,56z M200.1,206.4h31.3v12.5c0,6.9-5.6,12.5-12.5,12.5h-18.8V206.4z
			 M156.3,206.4h31.3v25.1h-31.3V206.4z M112.4,206.4h31.3v25.1h-31.3V206.4z M99.9,206.4v25.1H81.1c-6.9,0-12.5-5.6-12.5-12.5
			v-12.5H99.9z M99.9,93.6H68.5V81.1c0-6.9,5.6-12.5,12.5-12.5h18.8V93.6z M143.7,93.6h-31.3V68.5h31.3V93.6z M187.6,93.6h-31.3
			V68.5h31.3V93.6z M231.5,93.6h-31.3V68.5h18.8c6.9,0,12.5,5.6,12.5,12.5V93.6z"/>
		<path class="st0" d="M231.5,124.9c0,3.5,2.8,6.3,6.3,6.3s6.3-2.8,6.3-6.3c0-3.5-2.8-6.3-6.3-6.3S231.5,121.5,231.5,124.9z"/>
		<path class="st0" d="M237.7,143.7c-3.5,0-6.3,2.8-6.3,6.3v25.1c0,3.5,2.8,6.3,6.3,6.3s6.3-2.8,6.3-6.3V150
			C244,146.5,241.2,143.7,237.7,143.7z"/>
	</g>
</g>
</svg>
