<?xml version="1.0" encoding="utf-8"?>
<!-- Generator: Adobe Illustrator 28.0.0, SVG Export Plug-In . SVG Version: 6.00 Build 0)  -->
<svg version="1.1" id="Layer_1" xmlns="http://www.w3.org/2000/svg" xmlns:xlink="http://www.w3.org/1999/xlink" x="0px" y="0px"
	 viewBox="0 0 300 300" style="enable-background:new 0 0 300 300;" xml:space="preserve">
<style type="text/css">
	.st0{fill:#F66317;}
	.st1{fill:#303D74;}
</style>
<g>
	<path class="st0" d="M150.1,185.3L150.1,185.3c-5,0-8.9,3.9-8.9,8.8c0,4.9,3.9,8.8,8.8,8.8h0.1c4.9,0,8.8-3.9,8.8-8.8
		C158.9,189.2,155,185.3,150.1,185.3z"/>
	<path class="st1" d="M246.5,113c-0.4-1.8-1.1-3.5-2.1-5.1c-1.1-1.8-2.3-3-4.1-4.8l-43.4-43.4c-1.8-1.8-3-3-4.8-4.1
		c-1.6-1-3.3-1.7-5.1-2.1c-2-0.5-3.7-0.5-6.3-0.5h-61.3c-2.6,0-4.3,0-6.3,0.5c-1.8,0.4-3.5,1.1-5.1,2.1c-1.8,1.1-3,2.3-4.8,4.1
		l-43.4,43.4c-1.8,1.8-3,3-4.1,4.8c-1,1.6-1.7,3.3-2.1,5.1c-0.5,2-0.5,3.7-0.5,6.3v61.3c0,2.6,0,4.3,0.5,6.3
		c0.4,1.8,1.1,3.5,2.1,5.1c1.1,1.8,2.3,3,4.1,4.8l43.4,43.4c1.8,1.8,3,3,4.8,4.1c1.6,1,3.3,1.7,5.1,2.1c2,0.5,3.7,0.5,6.3,0.5h61.3
		c2.6,0,4.3,0,6.3-0.5c1.8-0.4,3.5-1.1,5.1-2.1c1.8-1.1,3-2.3,4.8-4.1l43.4-43.4c1.8-1.8,3-3,4.1-4.8c1-1.6,1.7-3.3,2.1-5.1
		c0.5-2,0.5-3.7,0.5-6.3v-61.3C247,116.8,247,115.1,246.5,113z M229.4,180.7c0,0.9,0,1.7,0,2.2c-0.3,0.3-0.9,1-1.5,1.6l-43.4,43.4
		c-0.6,0.6-1.2,1.2-1.6,1.5c-0.4,0-1.3,0-2.2,0h-61.3c-0.9,0-1.7,0-2.2,0c-0.3-0.3-1-0.9-1.6-1.5l-43.4-43.4
		c-0.6-0.6-1.2-1.2-1.5-1.6c0-0.4,0-1.3,0-2.2v-61.3c0-0.9,0-1.7,0-2.2c0.3-0.3,0.9-1,1.5-1.6l43.4-43.4c0.6-0.6,1.2-1.2,1.6-1.5
		c0.4,0,1.3,0,2.2,0h61.3c0.9,0,1.7,0,2.2,0c0.3,0.3,1,0.9,1.6,1.5l43.4,43.4c0.6,0.6,1.2,1.2,1.5,1.6c0,0.4,0,1.3,0,2.2V180.7z"/>
	<path class="st0" d="M155.3,97.6c-8.2-1.4-16.7,0.1-23.8,4.4c-7.2,4.2-12.6,10.9-15.4,18.7c-1.6,4.6,0.8,9.6,5.4,11.2
		c4.6,1.6,9.6-0.8,11.2-5.4c1.4-3.9,4.1-7.2,7.7-9.4c3.6-2.1,7.8-2.9,11.9-2.2c4.1,0.7,7.8,2.8,10.5,6c2.7,3.2,4.2,7.2,4.1,11.4
		c0,9.1-15.1,16.3-20.4,18.1c-4.6,1.5-7.1,6.5-5.6,11.2c1.2,3.7,4.7,6,8.4,6c0.9,0,1.9-0.1,2.8-0.5c0.3-0.1,7.8-2.6,15.3-7.6
		c14.2-9.5,17.2-20,17.2-27.2c0-8.3-2.9-16.4-8.3-22.8C170.9,103.2,163.5,99,155.3,97.6z"/>
</g>
</svg>
