<?xml version="1.0" encoding="utf-8"?>
<!-- Generator: Adobe Illustrator 28.0.0, SVG Export Plug-In . SVG Version: 6.00 Build 0)  -->
<svg version="1.1" id="Layer_1" xmlns="http://www.w3.org/2000/svg" xmlns:xlink="http://www.w3.org/1999/xlink" x="0px" y="0px"
	 viewBox="0 0 300 300" style="enable-background:new 0 0 300 300;" xml:space="preserve">
<style type="text/css">
	.st0{fill:#FFFFFF;}
</style>
<path class="st0" d="M244.1,55.8H55.9c-7.1,0-12.9,5.8-12.9,12.9v162.6c0,7.1,5.8,12.9,12.9,12.9h188.3c7.1,0,12.9-5.8,12.9-12.9
	V68.7C257,61.6,251.2,55.8,244.1,55.8z M212,64.4c4.7,0,8.5,3.9,8.5,8.5c0,4.7-3.9,8.5-8.5,8.5c-4.7,0-8.5-3.9-8.5-8.5
	C203.5,68.3,207.3,64.4,212,64.4z M188.5,64.4c4.7,0,8.5,3.9,8.5,8.5c0,4.7-3.9,8.5-8.5,8.5s-8.5-3.9-8.5-8.5
	C180,68.3,183.8,64.4,188.5,64.4z M244.1,232.8H55.9V90h188.3V232.8z M235.6,81.5c-4.7,0-8.5-3.9-8.5-8.5s3.9-8.5,8.5-8.5
	c4.7,0,8.5,3.9,8.5,8.5C244.1,77.7,240.2,81.5,235.6,81.5z M122.4,103.3h65.7v12.4h-65.7V103.3z M148.3,131.7h83.2v12.3h-83.2V131.7
	z M148.3,156.4h83.2v12.3h-83.2V156.4z M148.3,181.5h83.2v12.3h-83.2V181.5z M67.6,206.2h163.9v12.3H67.6V206.2z M67.6,131.7h58.6
	v61.1H67.6V131.7z"/>
</svg>
