<?xml version="1.0" encoding="utf-8"?>
<!-- Generator: Adobe Illustrator 28.0.0, SVG Export Plug-In . SVG Version: 6.00 Build 0)  -->
<svg version="1.1" id="Layer_1" xmlns="http://www.w3.org/2000/svg" xmlns:xlink="http://www.w3.org/1999/xlink" x="0px" y="0px"
	 viewBox="0 0 300 300" style="enable-background:new 0 0 300 300;" xml:space="preserve">
<style type="text/css">
	.st0{fill:#F66317;}
</style>
<path class="st0" d="M86.9,142.5H122v29.3H86.9V142.5z M86.9,210.8H122v-29.3H86.9V210.8z M86.9,249.7H122v-29.3H86.9V249.7z
	 M132.5,210.8h35v-29.3h-35.1L132.5,210.8L132.5,210.8z M132.5,249.7h35v-29.3h-35.1L132.5,249.7L132.5,249.7z M178,220.4v29.3h35.1
	v-29.3H178z M269,106L150,50L31,106.2l7.4,15.5l15.1-7.2v135.3h17.1V113.9h158.8V250h17.1V114.7l15.1,7L269,106z"/>
</svg>
