<?xml version="1.0" encoding="utf-8"?>
<!-- Generator: Adobe Illustrator 28.0.0, SVG Export Plug-In . SVG Version: 6.00 Build 0)  -->
<svg version="1.1" id="Layer_1" xmlns="http://www.w3.org/2000/svg" xmlns:xlink="http://www.w3.org/1999/xlink" x="0px" y="0px"
	 viewBox="0 0 300 300" style="enable-background:new 0 0 300 300;" xml:space="preserve">
<style type="text/css">
	.st0{fill:#303D74;}
	.st1{fill:#F66317;}
</style>
<g>
	<g>
		<path class="st0" d="M253.5,145.7l-15.2-19.3l3.5-24.3c0.4-3.2-1.4-6.3-4.4-7.6l-22.7-9.1l-9.1-22.8c-1.2-3-4.3-4.8-7.6-4.4
			l-24.3,3.5l-19.3-15.1c-2.6-2.1-6.2-2.1-8.8,0l-19.3,15.1L102,58.2c-3.2-0.4-6.4,1.4-7.6,4.4l-9.1,22.8l-22.7,9.1
			c-3,1.2-4.8,4.4-4.4,7.6l3.5,24.3l-15.2,19.3c-2,2.6-2,6.1,0,8.7l15.2,19.3L58.2,198c-0.5,3.2,1.3,6.4,4.4,7.6l22.7,9.1l9.1,22.7
			c1.2,3,4.3,4.9,7.6,4.4l24.3-3.5l19.3,15.2c1.3,1,2.8,1.5,4.4,1.5c1.6,0,3.1-0.5,4.4-1.5l19.3-15.2l24.3,3.5
			c3.2,0.5,6.3-1.3,7.6-4.3l9.1-22.8l22.7-9.1c3-1.2,4.9-4.3,4.4-7.6l-3.5-24.2l15.2-19.3C255.5,151.8,255.5,148.2,253.5,145.7z
			 M225.3,167.4c-1.2,1.5-1.7,3.5-1.4,5.4l3.1,21.8l-20.5,8.1c-1.8,0.7-3.2,2.2-3.9,4l-8.2,20.4l-21.8-3.1c-1.9-0.3-3.9,0.3-5.4,1.5
			L150,238.9l-17.3-13.5c-1.3-1-2.8-1.5-4.4-1.6c-0.4,0-0.7,0.1-1,0.1l-21.8,3.1l-8.1-20.4c-0.7-1.8-2.2-3.2-4-4L73,194.5l3.1-21.8
			c0.3-1.9-0.2-3.8-1.4-5.4L61.1,150l13.6-17.3c1.2-1.5,1.7-3.5,1.4-5.4L73,105.6l20.4-8.2c1.8-0.7,3.2-2.1,4-3.9l8.1-20.4l21.8,3
			c1.9,0.3,3.9-0.2,5.4-1.4L150,61.1l17.3,13.6c1.5,1.2,3.5,1.7,5.4,1.4l21.8-3l8.2,20.4c0.7,1.8,2.1,3.2,3.9,3.9l20.5,8.2
			l-3.1,21.8c-0.3,1.9,0.2,3.9,1.4,5.4l13.6,17.3L225.3,167.4z"/>
		<g>
			<g>
				<path class="st1" d="M114.6,103.9c-11.7,0-21.3,9.5-21.3,21.3c0,11.7,9.5,21.3,21.3,21.3s21.3-9.5,21.3-21.3v0
					C135.8,113.5,126.3,103.9,114.6,103.9z M114.6,132.3c-3.9,0-7.1-3.2-7.1-7.1c0-3.9,3.2-7.1,7.1-7.1c3.9,0,7.1,3.2,7.1,7.1
					C121.7,129.1,118.5,132.3,114.6,132.3z"/>
			</g>
		</g>
		<g>
			<g>
				<path class="st1" d="M185.4,153.5c-11.7,0-21.3,9.5-21.3,21.3s9.5,21.3,21.3,21.3s21.3-9.5,21.3-21.3S197.2,153.5,185.4,153.5z
					 M185.4,181.9c-3.9,0-7.1-3.2-7.1-7.1s3.2-7.1,7.1-7.1s7.1,3.2,7.1,7.1S189.3,181.9,185.4,181.9z"/>
			</g>
		</g>
		<g>
			<path class="st1" d="M109.3,186.6c2.6,2.9,7.1,3.2,10,0.5c0,0,0,0,0,0l70.9-63.8c2.9-2.6,3.1-7.1,0.5-10c-2.6-2.9-7.1-3.1-10-0.5
				l-70.9,63.8C106.9,179.2,106.7,183.7,109.3,186.6z"/>
		</g>
	</g>
</g>
</svg>
