<?xml version="1.0" encoding="utf-8"?>
<!-- Generator: Adobe Illustrator 28.0.0, SVG Export Plug-In . SVG Version: 6.00 Build 0)  -->
<svg version="1.1" id="Layer_1" xmlns="http://www.w3.org/2000/svg" xmlns:xlink="http://www.w3.org/1999/xlink" x="0px" y="0px"
	 viewBox="0 0 300 300" style="enable-background:new 0 0 300 300;" xml:space="preserve">
<style type="text/css">
	.st0{fill:#F66317;}
</style>
<path class="st0" d="M249.5,111.4c-1.3,0-2.6-0.3-3.7-0.8l-97.6-49.8l-97.6,49.5c-4.3,2.1-9.5,0.2-11.6-4.1
	c-2.1-4.3-0.2-9.5,4.1-11.6l105-52l105,52c4.7,1,7.6,5.6,6.6,10.3S254.2,112.4,249.5,111.4z M105.9,195.8H55.3v50.7h50.7V195.8z
	 M173.5,195.8h-50.7v50.7h50.7V195.8z M241.1,195.8h-50.7v50.7h50.7V195.8z M207.3,128.3h-50.7V179h50.7V128.3z M139.7,128.3H89.1
	V179h50.7V128.3z"/>
</svg>
