<?xml version="1.0" encoding="utf-8"?>
<!-- Generator: Adobe Illustrator 28.0.0, SVG Export Plug-In . SVG Version: 6.00 Build 0)  -->
<svg version="1.1" id="Layer_1" xmlns="http://www.w3.org/2000/svg" xmlns:xlink="http://www.w3.org/1999/xlink" x="0px" y="0px"
	 viewBox="0 0 300 300" style="enable-background:new 0 0 300 300;" xml:space="preserve">
<style type="text/css">
	.st0{fill-rule:evenodd;clip-rule:evenodd;fill:#FFFFFF;}
	.st1{fill:none;stroke:#FFFFFF;stroke-width:7.098;stroke-linecap:round;stroke-linejoin:round;stroke-miterlimit:133.3333;}
	.st2{fill:none;stroke:#F66317;stroke-width:7.098;stroke-linecap:round;stroke-linejoin:round;stroke-miterlimit:133.3333;}
</style>
<g>
	<path class="st0" d="M35,138.4c0-9.9,8.1-18,18-18h31.5c9.9,0,18,8.1,18,18v0.3l14.4-8.3c3.6-2.1,8.1,0.5,8.1,4.7v33.7
		c0,3.9-4.1,6.5-7.6,4.9l-15-6.8c-0.8,9.2-8.5,16.5-17.9,16.5H53c-9.9,0-18-8.1-18-18V138.4z M102.6,157.1l13.5,6.1v-21.9l-13.5,7.8
		V157.1z M93.5,138.4c0-5-4-9-9-9H53c-5,0-9,4-9,9v27c0,5,4,9,9,9h31.5c5,0,9-4,9-9V138.4z"/>
	<g>
		<path class="st1" d="M218.9,124h35.5c5.9,0,10.6,4.8,10.6,10.6v35.5c0,5.9-4.8,10.6-10.6,10.6h-35.5c-5.9,0-10.6-4.8-10.6-10.6
			v-35.5C208.2,128.7,213,124,218.9,124z"/>
		<path class="st1" d="M208.2,166.5l15.2-15.2c1.4-1.4,3.6-1.4,5,0l11.7,11.7 M240.2,163l9.9-9.9c1.4-1.4,3.6-1.4,5,0l9.9,9.9
			 M240.2,163l8,8"/>
	</g>
	<line class="st2" x1="187.3" y1="86.9" x2="142.5" y2="213.1"/>
</g>
</svg>
