<?xml version="1.0" encoding="utf-8"?>
<!-- Generator: Adobe Illustrator 28.0.0, SVG Export Plug-In . SVG Version: 6.00 Build 0)  -->
<svg version="1.1" id="Layer_1" xmlns="http://www.w3.org/2000/svg" xmlns:xlink="http://www.w3.org/1999/xlink" x="0px" y="0px"
	 viewBox="0 0 300 300" style="enable-background:new 0 0 300 300;" xml:space="preserve">
<style type="text/css">
	.st0{fill-rule:evenodd;clip-rule:evenodd;fill:#FFFFFF;}
</style>
<path class="st0" d="M214.7,61c13.4,0,24.3,10.9,24.3,24.3v129.5c0,13.4-10.9,24.3-24.3,24.3H85.3C71.9,239,61,228.1,61,214.7V85.3
	C61,71.9,71.9,61,85.3,61H214.7z M214.7,77.2c4.5,0,8.1,3.6,8.1,8.1v129.5c0,4.5-3.6,8.1-8.1,8.1h-40.5v-56.6h16.8
	c3.5,0,6.6-2.2,7.7-5.5l3.6-10.8c1.3-3.9-1.6-8-5.8-8h-22.3v-16.2c0-4,4-8.1,8.1-8.1h16.2c4.5,0,8.1-3.6,8.1-8.1V104
	c0-2.6-1.7-5-4.2-5.6c-10.6-2.8-20.1-2.8-20.1-2.8c-20.2,0-32.4,14-32.4,26.1v20.2h-16.2c-4.5,0-8.1,3.6-8.1,8.1v8.1
	c0,4.5,3.6,8.1,8.1,8.1H150v56.6H85.3c-4.5,0-8.1-3.6-8.1-8.1V85.3c0-4.5,3.6-8.1,8.1-8.1H214.7z"/>
</svg>
