<?xml version="1.0" encoding="utf-8"?>
<!-- Generator: Adobe Illustrator 28.0.0, SVG Export Plug-In . SVG Version: 6.00 Build 0)  -->
<svg version="1.1" id="Layer_1" xmlns="http://www.w3.org/2000/svg" xmlns:xlink="http://www.w3.org/1999/xlink" x="0px" y="0px"
	 viewBox="0 0 300 300" style="enable-background:new 0 0 300 300;" xml:space="preserve">
<style type="text/css">
	.st0{fill:#303D74;}
</style>
<path class="st0" d="M239.6,99.2h-16.7c4.8-5.7,7.8-12.9,7.8-20.9c0-18.2-14.7-32.8-32.8-32.8c-20.1,0-37.7,10.6-47.8,26.4
	c-10-15.8-27.7-26.4-47.8-26.4c-18.2,0-32.8,14.7-32.8,32.8c0,8,3,15.2,7.8,20.9H60.4c-8.2,0-14.9,6.7-14.9,14.9V144
	c0,7.2,5.1,12.9,11.9,14.3v81.2c0,8.2,6.7,14.9,14.9,14.9h155.3c8.2,0,14.9-6.7,14.9-14.9v-81.2c6.8-1.4,11.9-7.2,11.9-14.3v-29.9
	C254.5,105.9,247.8,99.2,239.6,99.2z M236.6,141H159v-23.9h77.6V141z M197.8,63.4c8.2,0,14.9,6.7,14.9,14.9s-6.7,14.9-14.9,14.9H160
	C164.1,76.2,179.5,63.4,197.8,63.4z M102.2,63.4c18.3,0,33.7,12.8,37.7,29.9h-37.7c-8.2,0-14.9-6.7-14.9-14.9S94,63.4,102.2,63.4z
	 M63.4,117.2H141V141H63.4V117.2z M75.3,159H141v77.6H75.3V159z M224.7,236.6H159V159h65.7V236.6z"/>
</svg>
