<?xml version="1.0" encoding="utf-8"?>
<!-- Generator: Adobe Illustrator 28.0.0, SVG Export Plug-In . SVG Version: 6.00 Build 0)  -->
<svg version="1.1" id="Layer_1" xmlns="http://www.w3.org/2000/svg" xmlns:xlink="http://www.w3.org/1999/xlink" x="0px" y="0px"
	 viewBox="0 0 300 300" style="enable-background:new 0 0 300 300;" xml:space="preserve">
<style type="text/css">
	.st0{fill:#F66317;}
	.st1{fill:#303D74;stroke:#FFFFFF;stroke-width:5.7324;stroke-miterlimit:10;}
</style>
<g>
	<circle class="st0" cx="150" cy="124.7" r="48.1"/>
	<path class="st1" d="M150,48.7c-42,0-76,34-76,76c0,16.5,5.4,31.7,14.4,44.1c0.2,0.3,0.2,0.6,0.4,0.9l50.7,76
		c2.3,3.5,6.3,5.6,10.5,5.6s8.2-2.1,10.5-5.6l50.7-76c0.2-0.3,0.2-0.6,0.4-0.9c9-12.4,14.4-27.6,14.4-44.1
		C226,82.7,192,48.7,150,48.7z M150,150c-14,0-25.3-11.3-25.3-25.3S136,99.3,150,99.3s25.3,11.3,25.3,25.3S164,150,150,150z"/>
</g>
</svg>
