<?xml version="1.0" encoding="utf-8"?>
<!-- Generator: Adobe Illustrator 28.0.0, SVG Export Plug-In . SVG Version: 6.00 Build 0)  -->
<svg version="1.1" id="Layer_1" xmlns="http://www.w3.org/2000/svg" xmlns:xlink="http://www.w3.org/1999/xlink" x="0px" y="0px"
	 viewBox="0 0 300 300" style="enable-background:new 0 0 300 300;" xml:space="preserve">
<style type="text/css">
	.st0{fill:#FFFFFF;}
	.st1{fill:#303D74;}
	.st2{opacity:0.7;}
</style>
<g id="XMLID_3350_">
	<g id="XMLID_3361_">
		<g id="XMLID_3368_">
			<path id="XMLID_3369_" class="st0" d="M31,131.2c0,0,37.5-52.8,90.6-54.7c53.1-1.9,96.2,54.7,96.2,54.7s-48.7,51.4-93.4,51.4
				S31,131.2,31,131.2z"/>
		</g>
		<g id="XMLID_3366_">
			
				<ellipse id="XMLID_3367_" transform="matrix(0.7071 -0.7071 0.7071 0.7071 -56.0207 123.8294)" class="st1" cx="121.5" cy="129.5" rx="41.5" ry="41.5"/>
		</g>
		<g id="XMLID_3364_">
			<circle id="XMLID_3365_" class="st0" cx="99" cy="138.8" r="9.3"/>
		</g>
	</g>
	<g id="XMLID_3351_">
		<g id="XMLID_3359_" class="st2">
			
				<ellipse id="XMLID_3360_" transform="matrix(0.9285 -0.3713 0.3713 0.9285 -35.6027 77.4398)" class="st0" cx="183.3" cy="131.2" rx="54.6" ry="54.6"/>
		</g>
		<g id="XMLID_3357_">
			<path id="XMLID_3358_" class="st0" d="M267.4,220l-14.6,12.1c-1.9,1.6-4.7,1.3-6.3-0.6l-38.4-46.4c-1.6-1.9-1.3-4.7,0.6-6.3
				l14.6-12.1c1.9-1.6,4.7-1.3,6.3,0.6l38.4,46.4C269.5,215.7,269.2,218.5,267.4,220z"/>
		</g>
		<g id="XMLID_3352_">
			<g id="XMLID_3353_">
				<path id="XMLID_3354_" class="st0" d="M183.1,194.4c-4.8,0-9.6-0.5-14.4-1.6c-16.6-3.8-30.7-13.9-39.8-28.3
					c-9-14.4-11.9-31.5-8.1-48.1l0,0c3.8-16.6,13.9-30.7,28.3-39.8c14.4-9,31.5-11.9,48.1-8.1c16.6,3.8,30.7,13.9,39.8,28.3
					c9,14.4,11.9,31.5,8.1,48.1c-3.8,16.6-13.9,30.7-28.3,39.8C206.5,191.1,194.9,194.4,183.1,194.4z M182.9,77.9
					c-9.8,0-19.4,2.7-27.9,8.1c-11.9,7.5-20.3,19.1-23.4,32.9c-3.2,13.7-0.8,27.9,6.7,39.8c7.5,11.9,19.1,20.3,32.9,23.4
					c13.7,3.2,27.9,0.8,39.8-6.7c11.9-7.5,20.3-19.1,23.4-32.9c3.2-13.7,0.8-27.9-6.7-39.8c-7.5-11.9-19.1-20.3-32.9-23.4
					C190.8,78.3,186.8,77.9,182.9,77.9z"/>
			</g>
		</g>
	</g>
</g>
</svg>
