<?xml version="1.0" encoding="utf-8"?>
<!-- Generator: Adobe Illustrator 28.0.0, SVG Export Plug-In . SVG Version: 6.00 Build 0)  -->
<svg version="1.1" id="Layer_1" xmlns="http://www.w3.org/2000/svg" xmlns:xlink="http://www.w3.org/1999/xlink" x="0px" y="0px"
	 viewBox="0 0 300 300" style="enable-background:new 0 0 300 300;" xml:space="preserve">
<style type="text/css">
	.st0{fill:#FFFFFF;}
	.st1{fill:#F66317;}
</style>
<g id="Layer_2_00000132089304786279046150000002205871480813212567_">
	<g id="icons_Q2">
		<g>
			<path class="st0" d="M150,61c26.5,7.5,55.5,16.5,70,21.5V161c0,17-18.5,47-70,77c-51.5-30.5-70-60-70-77V82.5
				C94.5,77,123.5,68.5,150,61 M150,40c0,0-90,25.5-90,30v91c0,46,66.5,86.5,85,97.5c3,2,7,2,10,0c19-10.5,85-51.5,85-97.5V70
				C240,65.5,150,40,150,40z"/>
			<g>
				<path class="st1" d="M128,177l-25-24.5c-3.6-3.7-4-9.4-1-13.5c2.9-4.4,8.8-5.5,13.2-2.6c0.7,0.5,1.3,1,1.8,1.6l18,18l48-48
					c4.4-3.3,10.7-2.4,14,2c2.7,3.6,2.7,8.4,0,12l-55,55c-3.5,3.9-9.6,4.1-13.4,0.6C128.4,177.4,128.2,177.2,128,177z"/>
			</g>
		</g>
	</g>
</g>
</svg>
