<?xml version="1.0" encoding="utf-8"?>
<!-- Generator: Adobe Illustrator 28.0.0, SVG Export Plug-In . SVG Version: 6.00 Build 0)  -->
<svg version="1.1" id="Layer_1" xmlns="http://www.w3.org/2000/svg" xmlns:xlink="http://www.w3.org/1999/xlink" x="0px" y="0px"
	 viewBox="0 0 300 300" style="enable-background:new 0 0 300 300;" xml:space="preserve">
<style type="text/css">
	.st0{fill:#FFFFFF;}
	.st1{fill:#F66317;}
</style>
<g>
	<path class="st0" d="M145.2,143.8h9.1c3.8,0,7.1,1.7,9.3,4.5c16.5-0.1,29-4.1,35.5-8.6c1.1-4.2,1.8-8.7,1.8-13.3v-19.9
		c0-13.1-5-25.1-13.1-34.1c-4.7-5.2-10.4-9.4-16.8-12.3c-6.4-2.9-13.5-4.5-21-4.5c-15.2,0-28.8,6.6-38.1,17.1
		c-8,9-12.8,20.8-12.8,33.8v19.9c0,12.2,4.3,23.4,11.4,32.2c9.3,11.4,23.6,18.8,39.5,18.8c14.6,0,27.9-6.2,37.1-16.1
		c0.2-0.3,0.5-0.5,0.7-0.8c-7.2,1.8-15.3,2.7-24.2,2.7c-2.2,2.7-5.6,4.5-9.3,4.5h-9.1c-6.6,0-12-5.4-12-12
		C133.2,149.2,138.6,143.8,145.2,143.8z"/>
	<g>
		<path class="st1" d="M89.4,138.4L89.4,138.4c2.4,0,4.4-2,4.4-4.4v-33.9c0.9-30.2,25.7-54.6,56.1-54.6c30,0,54.5,23.6,56.1,53.2
			V134c0,1.2,0.5,2.3,1.3,3.1c-4.3,8.7-22.7,15.5-44,15.5h-2c-1.2-2.6-3.9-4.5-7-4.5h-9.1c-4.3,0-7.7,3.4-7.7,7.7
			c0,4.3,3.4,7.7,7.7,7.7h9.1c3.1,0,5.8-1.8,7-4.5h2c25.9,0,46.2-8.7,50.5-20.9c10.7-1.6,18.9-10.8,18.9-22v-4.9
			c0-10.5-7.3-19.3-17-21.6c-5.7-31.1-33-54.8-65.8-54.8c-32.7,0-60.1,23.7-65.8,54.8c-9.8,2.3-17.1,11.1-17.1,21.6v4.9
			C67.1,128.4,77.1,138.4,89.4,138.4z"/>
	</g>
	<path class="st0" d="M251.7,249.1c-9.1-46.2-53.9-66.2-74-72.9c-8,5.2-17.5,8.2-27.7,8.2c-10.2,0-19.8-3-27.7-8.2
		c-20.2,6.7-64.9,26.7-74,72.9c-0.7,3.5-0.1,6.9,1.5,9.7c2.4,4.4,7.1,7.4,12.6,7.4h175.3c4.6,0,8.6-2.1,11.2-5.4
		C251.4,257.7,252.6,253.4,251.7,249.1z"/>
</g>
</svg>
