<?xml version="1.0" encoding="utf-8"?>
<!-- Generator: Adobe Illustrator 28.0.0, SVG Export Plug-In . SVG Version: 6.00 Build 0)  -->
<svg version="1.1" id="Layer_1" xmlns="http://www.w3.org/2000/svg" xmlns:xlink="http://www.w3.org/1999/xlink" x="0px" y="0px"
	 viewBox="0 0 757 826.7" style="enable-background:new 0 0 757 826.7;" xml:space="preserve">
<style type="text/css">
	.st0{fill:#e4e4e4;stroke:#F5F5F5;stroke-width:0.5;stroke-linecap:round;stroke-linejoin:round;stroke-miterlimit:10;}
</style>
<g>
	<path class="st0" d="M577.7,94.2l-1.6,4.1l-8.6,2.5l-2,4.7l-3.9-3.2l-7.5,6.1l-11.5-1.9l-2.8-4.4l-14.6,4.7v9.9l-5.3,2.9
		l-12.4-11.1l-3.3,1.5l-1.8-10.7L477.7,96l7.8-23.7l7.1-13.6l10.3-0.7l6.2-5.1l2.3-0.2c0,0,15.8,48.6,62.8,29.6l3.1,0.8L577.7,94.2z
		"/>
	<path class="st0" d="M706.3,226.7c0,0-64.4-4.6-75,4.9c0,0,1.3,12.5,6,13.2l-5.3,1.6l-15-2.6l3.3-3.6l-1.2-1
		c-7-5.9-3.3-14.8-3.1-15.2l1.5-3.4l-9.9,4l-6.3-2.3l-3.7,2.9l0.1-1.2l-4.9-2.1c-2.1-6.1-5.6-8.6-7.2-9.5l-0.6-3.6l-2.3-4.1l4.1-9.4
		l10.2-14.1c8.4,1.5,27.1-4.5,27.9-4.7l1.7-0.6l-0.9-1.6c-5.3-9.3-13.7-13.9-17.6-15.5l10.3-11.9l-16.1-2.6l-7.2-4l-14.4,17.4
		l4.3,2.2l-1.6,1.6l-3-3.3l-1.9,2.4h-3.5v-4l4.6-5.5l0.1-0.2c6.5-15.3,2-22.6,0.2-24.7l0.8-5.4l3.8-2.6v-6.7l4.6-6.4v-7.4l-8.7-1.8
		l0.5-1.2l-0.5-10.7l2.5,0.7l2-4.8l3.6-1.6c0,0,16,15.8,28.7-5.2l6.9,12.7c0,0,18.9,3,25.1-2.1l24,16.2l-3.2,8.2l8.3,6l-4.5,2.2
		l5.2,8.1l2.4,8.7l-2.4,19.8l3.9,2.5l2.4,7.3l-3,3.5l2,8.8l10.4,8.7l-4.9,4.1c0,0,10.8,15.2,25.1,18.5
		C714.7,206,699.9,215.4,706.3,226.7z"/>
	<path class="st0" d="M257.3,656.3l-31.2,3c0,0-21.8,10.3-14.9,43.1l7.9,49.1L46.7,762.9l-4.4,11.1l1-13.6l2-19.3l6.8-17.8l9.3-0.6
		l3.7-8.2l5-16.2l6.9-9.3l-0.5-7l9.5-19.8l7.7-11.3l-0.5-7l21.4-22.9l11.6-9.2l3.5-11l-0.2-2.6l0.9,0.5c2.4,1.3,7.6,3.9,10.6,2.9
		l7.9,10.5l5.5-5.8l1.9,2.4l11.7-4.7l24.3,7.4l9.1-8.1c4.5,0.4,31.4,3.1,38.1,6.5l0.8,0.4l0.7-0.5c0.1,0,3.9-2.7,12.7-3.4
		L257.3,656.3z"/>
	<path class="st0" d="M248.7,541.3l4.6,61.8c-7.6,0.6-11.8,2.6-13.5,3.5c-8.9-3.7-37.8-6.4-39-6.5l-0.6-0.1l-8.8,7.9l-23.7-7.3
		l-10.6,4.3l-2.6-3.4l-5.4,5.7l-6.6-8.8l-1.3-1.8l-1.2,1.8c-0.8,0.5-4.8-0.8-8.3-2.7l-2.6-1.3l-0.3-4.6l-0.6-9.8l5.5-9.3l1.3-9
		l5.4-9.7l1.1-11.3l10.7-8.2l-0.2-2.8l10.5-3.5c0,0,21.5-7.5,22.3-31l5.3-11.6l13.3-26.1l5.4-2.7c0,0,38.4-6.7,44.9-14.2l12.4-3.6
		c0,0,0.5-0.7,1.4-2l11.1,15.4l16.1,2.4l35.3-2.5c1.6,0.7,9.1,4,12,6.9l0.6,0.6l7.1-1.8c1.7,2.9,6.9,10.7,14.1,11.8
		c3.8,0.6,7.6-0.8,11.1-4.2l1.5,0.3l14.7,19.8l2,0.5l3.3,47.3L248.7,541.3z"/>
	<path class="st0" d="M392.9,481.2L392.9,481.2l-14.7-19.8l-4.2-0.9l-0.6,0.6c-3,3.1-6.1,4.4-9.1,3.9c-7.1-1.1-12.4-11.1-12.5-11.2
		l-0.5-1.1l-7.7,2c-4-3.5-12.3-6.9-12.6-7.1l-0.3-0.1L295,450l-14.5-2.1l-10.9-15.1c5.3-6.8,17-19.9,33.3-29.3
		c0,0,21.5-21.1,23-27.3l1.9-7.1c0,0,4.1-3.7,8-9.6l6.1,7.9l2.7-1.9c0.2,1.8,0.8,3.9,2.5,4.9c1.6,0.9,3.6,0.7,6.1-0.8l4.3,1.6
		l3.2-2.6l2.3,3.7l1.3-2.1c0.1-0.2,2.8-4.4,7.7-2.1c1,1,5.8,6.4,5.8,11.9v3.5l-5.7,2.3l3.5,4.4v5.1h2.2v4.4l3.8,2.6v5.7l5.4-1.8
		l1,2.4l-0.1,0.1L392.9,481.2z"/>
	<path class="st0" d="M606.2,285.2l-2.2,9l0.4,6.5c0,0-13.7,5.6-26.2,7.3l-15.9,15.1c0,0-29.5,13.2-30.6,26.3l-7.1,12.6l-11.1-4.9
		c0,0-11.5,1.4-22.6,3.3l-0.6-10.6l-1.4-1.8l1.6-3l-1.7-3.8l5.5-8.5l-7.8-1.6l2-3.7l-4-2.1l4.4-6.1l-8.6-2.6l-2-6.2l-14.6,9.5
		l-6.7-3.5l-3.9,9.4v4l-1.7-0.8l-5.6-1.8h-4.2l1.2-3.4L438,319l7.7-6.5l-6.6-10.4h-1.4l3.5-4.8h-6.7v-9.6h-1.3l1-3.1
		c1.1-0.5,2.4-1,3.8-1.4l0.2,0c0.2-0.1,4.7-1.9,9.2-4.3c3.8-1.9,6.1-3.5,7.6-4.8l5.3-0.7l3,3.6l11-3.1v-7.6c3.6-0.3,9.7-2.3,11.8-3
		l13.9-6.6l5.4-7.6c3.4-1.1,5.2-2.6,5.5-4.6c0.4-2.3-1.4-4.3-2.6-5.4l1.5-3.2c1.4-0.5,4.5-2,5.7-4.8c0.4-1,4.6-1.5,8.7-1l2.2,0.3
		l-2.3-7.9l-2.2-2.6l3.9-1.8v-4.1l3.5-3.1l1.2-14.5l4.4-1.2l4-7.7l2.4,0.3l0.3-0.1c1.6-0.4,3.7-0.6,4.7,0.5c1.5,1.6,0.4,5.8-0.1,7.1
		l-0.9,2.3l13.5-1.8l14.2,13.9l7.4-3.1l1.8,3.1l0.6,3.9l0.2,0.9l0.8,0.3c0.2,0.1,4.2,1.6,6.4,8.6l0.2,0.7l4.1,1.8l-0.5,5.9l7.8-6.1
		l5.8,2.2l4.7-1.9c-0.7,3.6-1,9.7,3.7,14.5l-5,5.4l14.5,2.5l-25.5,7.8l-0.2,11.7C599.9,267.8,589.2,283,606.2,285.2z"/>
	<path class="st0" d="M464.5,176.4l-2,8l-2.4,2.4v7.9l-3.8,3.2V210l0,0.3c0.9,5.2,1.2,13.1-1,15.5c-2.6-0.2-7.9-1.3-9.3-4.5
		l-0.6-1.5l-1.4,0.7c-1.8,0.9-6.8,2.8-9.1,0.9l-6.3-8.6l-5.4-1.3l-7-10.7l-2.8,11.8l1.7,4.2l-11,9.2l-0.1,0.1l-0.1,0.1
		c-0.7,0.8-3,3.2-4.8,2.9c-1.5-0.3-2.5-2.4-3.1-4.1c-0.1-0.6-0.4-2.1-1.8-3.3c-1.7-1.5-4.4-1.9-7.9-1.4l-0.3,0l-0.2,0.1
		c-0.9,0.5-3.8,1.8-5.2,0.8c-1.1-0.7-1.5-2.7-1.2-5.8l0.1-0.6l-5.8-7.8c3.2-4.2,5.4-8.4,5.7-11.9c0,0,9.7-1.6,12.1-7.8l13.2-5.1
		c0,0,22.7-9.6,42.1-27.6l1.4,1.1l2.3,1.7l4.3,10.9l9.2,2.3l-1.2,2.6L464.5,176.4z"/>
	<path class="st0" d="M516,135.6c-0.8,1.9-5.1,2.6-7.8,2.7c-1.1-1.8-2.6-2.9-4.3-3.4c-3-0.7-5.6,1-5.7,1.1l-0.6,0.4v5.3l7,5.7
		l-2.9,5.5l3.2,2.5l-0.9,10.8l-2.5,5.8l0.7,0.2l0.6,4.1l-7.9,2l-1.8-2.4H490V170l-9.4-0.9l-2.4,11.9l2.6,1.6l-3.6,2.7
		c-2.9-2.4-8.2-2.3-11.3-2l1.8-7.4l-1.5-2.7l2-4.5L457,166l-4-10.2l-2.9-2.2l-1-0.8c11-10.7,20.5-24.2,23.6-40.3l4.5-3.1l-0.6-9.8
		l0.2-0.7l23.2,3.3l2.1,12.3l5-2.3l10.4,9.3l-7.3,5.4l1.3,1.2C514.9,131.3,516.6,134.1,516,135.6z"/>
	<path class="st0" d="M622.3,174.3c-6.7,2-20.3,5.5-25.4,3.9l-1-0.3l-11.6,16l-4.3,9.8l-6.2,2.6l-13.9-13.6l-10.3,1.4
		c0.5-2.3,0.8-5.7-1.1-7.8c-1.5-1.7-4-2.2-7.4-1.5l-4-0.4l-4.3,8.3l-2.8,0.7l-3.3-10.3l-8-1.9l-3.2-8.3l-10-2.9l1.4-3.2l1-12.9
		l-2.5-2l2.9-5.4l-7.7-6.4v-2.2c0.6-0.3,1.6-0.6,2.7-0.3c1.1,0.3,2.1,1.2,2.8,2.7l0.4,0.8l0.9,0c1,0,9.6,0,11.4-4.6
		c1-2.6-0.3-5.7-4-9.5l5.9-4.3l7.7-4.2v-9.5l10.3-3.3l2.3,3.6l14.1,2.3l6.6-5.4l5.1,4.2l3.1-7.1l8.7-2.6l0.8-2.1l6.8,1.4v4.1
		l-4.6,6.4v6.1l-3.6,2.5l-1,7.3l-0.1,0.8l0.6,0.5c0.1,0.1,6.3,6-0.3,21.7l-5,6v8.1h8l0.6-0.8l2.7,3.1l6.7-6.7l-4.6-2.3l10.5-12.6
		l5.5,3l11.4,1.8l-9.6,11.2l2.1,0.7C605.4,161,615.8,164.4,622.3,174.3z"/>
	<path class="st0" d="M527.5,195.5l-1.2,14.1l-3.6,3.2v3.5l-5.7,2.7l4.2,5.1l0.9,3c-3.3-0.2-8.3,0.1-9.5,2.9
		c-0.8,1.9-3.5,3.1-4.5,3.4l-0.6,0.2l-3,6.5l1,0.7c1.1,0.7,2.5,2.3,2.4,3.2c-0.1,0.8-1.6,1.7-3.9,2.4l-0.5,0.1l-5.5,7.8l-13,6.2
		c-4.7,1.6-10.5,3.1-11.9,2.8l-1.9-0.5v8.8l-6.9,2l-2.8-3.4l-4.3,0.5v-7.6l-6.7-5.8l1.4-2.8c2.4,0.9,7,2.2,9.3,0.1
		c1.4-1.3,1.5-3.5,0.4-6.5l-0.7-5.4l-3.8-3.8v-11.2c4.2-4.2,2.3-16.1,1.9-18.1v-10.7l3.8-3.2V188l1.5-1.5c2.8-0.4,9.4-0.9,11.2,1.7
		l0.9,1.3l9.4-7l-4.5-2.8l1.5-7.3l4,0.4v6.2h4.6l2.1,2.8l12.5-3.1l-0.8-5.4l7.9,2.3l3.2,8.4l7.9,1.9L527.5,195.5z"/>
	<path class="st0" d="M379,344.9c-1-1.7-2-4.7-2.4-6l-0.1-0.2v-0.2c0-1.1,0.7-2,1.6-2.6c-0.3,0-0.7,0.1-1,0.1l-1.7,0.4v-1.7
		c0-0.4-1.3-1.6-3.1-2.3l-0.3-0.1l-1.4-1.9c-4.2,0.4-7-1.5-8-2.4c-0.4,0-0.8,0-1.3,0.1c-0.3,0-1.2,0-1.6,0.1
		c-0.5,0.7-1.6,1.2-4.5,1.8c-1.3,0.3-2.5,0.4-3.1,0.5l-4.7,3.6l-4.8,0.5l0.3,0.3c0.4,2.8,0.3,5.6-0.1,8.3l8.2,1.1
		c1.7-1.8,5-1.3,5.2-1.3l0.2,0l3.7,1.9l3.5,2.5c3.8-0.3,5.7,2.2,5.8,2.3c0.2,0.3,1.2,0.9,2.7,1.6c0.8-1.7,2.5-3.2,3.8-4.1l-0.2-0.6
		l1.7-0.2C377.8,346.2,378.5,345.6,379,344.9z"/>
	<path class="st0" d="M485.4,348.5l1.9-3.4l-1.8-3.9l4-6.2l-7.5-1.6l2.5-4.6l-4.3-2.3l3.9-5.4l-6.1-1.9l-1.2-4l-12.8,8.3l-5.4-2.8
		l-2.5,5.9v8.2l-5.9-2.9l-4.8-1.5h-8l2-5.6l-0.3-0.3l-4.4,3.1l-9,8.7l-6-2.2c-1-0.1-1.7,0.1-2.1,0.6c-0.9,1-0.6,3.2-0.4,4l0.2,0.7
		l-5.2,6l-3-5h-4.6l-2.8,4h-7.4l-3.5-2.7c-0.4,0-0.6,0-0.7,0.1c-0.3,0.3-0.3,1.5-0.1,2.1l0.1,0.6l-0.4,0.5c-0.3,0.4-0.4,0.7-0.4,0.8
		c0.1,0.1,0.6,0.3,0.8,0.4l1.7,0.3l-0.6,1.6c-0.1,0.3-0.2,0.6-0.4,0.9c0.3,2,0.9,7.5,0,10c0.1,0.8,0.5,3.6,2.9,5.9l2.4,2.4h-6.2
		l-3.1,3l-3.5-5.1l-8.8,1.3c1.8,2,6.1,7.5,6.1,13.4v5.5l-3.9,1.5l1.6,2v3.2h2.2v5.8l3.8,2.6v3.2l4.2-1.4l1.7,4.3l42.9-32.8l12.1-1.3
		l8.4-8l17.9,1.2c2.7-1.6,9.3-3.2,16.4-4.5l-0.6-10L485.4,348.5z"/>
	<path class="st0" d="M441.8,311.9l-4.3-6.8h-5.6l3.5-4.8h-3.8v-9.6h-2.4l1.2-3.9c-6.2,4.4-6.6,10.2-6.7,10.5l-0.1,1.9l-8-2.5
		l-9.2,4.3l-0.5-0.1c-9.6-2-14.2,1.7-14.4,1.9l-2.5,2.1l0-7.4l-1.1-0.6l-6.6,6.5l-12.3,1.8l-2.6-3.8l-0.9,0.6l-2.4,1.5l-2.2,1.3
		l-2.5-2.5c-2.6,4-8.2,4-8.5,4h-0.5l-18.1-14.8c-1,11,0.8,19.6,0.8,19.6l-1.3,8.5l9.5,12.2l2,2.6l6.3,5l-6.2,3.6l-0.6,2.8
		c-1,4-2.7,7.7-4.6,10.9l5,6.5l5.4-3.8l0.7,6.9c0,0.1,0,0.3,0,0.5l2.6,1v-0.6l2.9-0.2l2.2-1.5l1.8,2.2l1.5-2.6l1.2,2.3
		c0.1,0.1,0.3,0.4,0.5,0.4c0,0,0.1,0,0.1,0c0.1,0,0.4-0.1,0.8-0.4c0.3-0.2,0.6-0.5,0.9-0.9c2.7-3.2,6.7-5.3,10.5-2.6l11.2-1.7
		l2.6,3.8l1.5-1.5h1c-1.8-3-1.8-5.7-1.8-5.8l0-0.3l0.2-0.3c0.4-0.7,0.5-3.3,0.2-6.4l-0.4-3.4l-1-1c-0.1-0.1-0.2-0.3-0.2-0.4
		c-0.4-0.9-0.3-1.9,0.3-2.9c-0.1-1-0.2-2.9,1-4.1c0.6-0.6,1.7-1.2,3.6-0.8l0.3,0.1l3.2,2.5h5l2.8-4h7.7l1.8,3l1.8-2
		c-0.2-1.4-0.3-4,1.2-5.8c1.1-1.2,2.6-1.8,4.7-1.6l0.2,0l4.7,1.7l7.9-7.6l4.2-2.9l-3.5-3.5L441.8,311.9z"/>
	<path class="st0" d="M459,249.2l-0.1-0.2l-0.6-4.8l-3.9-3.9v-11.7c-2.5-0.3-7.8-1.4-10.3-4.9c-2.5,1.1-8,2.8-11.3-0.2l-0.1-0.1
		l-5.8-8l-5.5-1.3l-3.9-5.9l-1,4.2l2.1,5.4l-12.5,10.5c-0.6,0.8-3.4,3.9-6.7,3.9c-0.3,0-0.6,0-0.9-0.1c-2.4-0.4-4.2-2.6-5.5-6.3
		l-0.1-0.2v-0.2c0,0,0-0.8-0.8-1.4c-0.7-0.6-2.2-1.1-5.2-0.7c-1.1,0.6-5.2,2.5-8.1,0.6c-2-1.3-2.9-4-2.6-8l-4.6-6.2
		c-8.2,10-20.1,19.3-20.1,19.3c1.5,6.2,1.8,11.3,1.4,15.3l-0.3,2.5c-1.7,9.8-7.5,12.6-7.5,12.6c-3.4,3.4-6,7.2-8,11.2l-1.1,2.3
		c-2.3,5.1-3.6,10.4-4.3,15.3l18.8,15.3c1.4-0.1,5.2-0.7,6-4l0.6-2.6l4.2,4.2l6-3.6l3.1,4.5l9.5-1.4l7.4-7.3l4.6,2.3v3.4
		c2.6-1.2,7.2-2.5,14-1.2l9.3-4.3l5.6,1.7c0.9-3.6,4.1-11.4,16-14.8c0.6-0.2,4.7-1.9,8.8-4.1c8.2-4.2,8.4-6,8.4-6v-5.7l-7.4-6.4
		l3.7-7.4l1.3,0.6c2.7,1.2,6.4,2,7.3,1.2C459.7,252.3,459.8,251.3,459,249.2z"/>
</g>
</svg>
