<?xml version="1.0" encoding="utf-8"?>
<!-- Generator: Adobe Illustrator 28.0.0, SVG Export Plug-In . SVG Version: 6.00 Build 0)  -->
<svg version="1.1" id="Layer_1" xmlns="http://www.w3.org/2000/svg" xmlns:xlink="http://www.w3.org/1999/xlink" x="0px" y="0px"
	 viewBox="0 0 300 300" style="enable-background:new 0 0 300 300;" xml:space="preserve">
<style type="text/css">
	.st0{fill:#F66317;}
	.st1{fill:#FFFFFF;}
</style>
<g>
	<g>
		<path class="st0" d="M165.4,173.6c-3.3-1.4-7.3-2.7-12-3.7c-3.7-0.9-6.3-1.6-7.9-2.4c-1.6-0.8-2.4-1.9-2.4-3.4
			c0-3.1,2.7-4.7,8.1-4.7c4.6,0,9.3,1.3,14.3,3.9c1.6,0.8,3.5,0.1,4.1-1.6l4.4-12.9c0.4-1.2,0-2.6-1.1-3.3
			c-3.9-2.3-8.5-3.9-13.7-4.7c-1.4-0.2-2.5-1.5-2.5-2.9v-6c0-1.6-1.3-2.9-2.8-2.9h-6.9c-1.5,0-2.8,1.3-2.8,2.9v6.4
			c0,1.4-1,2.6-2.3,2.9c-5.9,1.4-10.6,4.1-13.9,8.1c-3.7,4.5-5.6,9.9-5.6,16.2c0,5.4,1.2,9.8,3.6,13c2.4,3.1,5.2,5.4,8.4,6.9
			c3.2,1.4,7.2,2.6,12,3.9c3.7,0.9,6.4,1.8,8,2.6c1.7,0.8,2.5,2,2.5,3.5c0,1.4-0.6,2.4-1.9,3.1c-1.2,0.6-3.3,1-6.2,1
			c-3.4,0-6.9-0.6-10.6-1.8c-2.5-0.9-4.8-1.9-6.9-3.1c-1.6-0.9-3.7-0.2-4.3,1.5l-4.8,13c-0.4,1.2-0.1,2.6,1,3.3
			c2.3,1.5,5.1,2.7,8.3,3.8c3.3,1.1,6.7,1.8,10.2,2.2c1.5,0.2,2.6,1.4,2.6,2.9v5.8c0,1.6,1.3,2.9,2.8,2.9h6.9c1.5,0,2.8-1.3,2.8-2.9
			v-6.7c0-1.4,0.9-2.5,2.2-2.9c5.6-1.6,9.9-4.3,13.1-8.2c3.6-4.5,5.4-9.8,5.4-15.8c0-5.4-1.2-9.7-3.6-12.9
			C171.5,177.2,168.7,175,165.4,173.6z"/>
	</g>
	<path class="st1" d="M252.2,171.1c-12.3-26.8-29.2-50.7-50.3-71c3.3-1.5,6.5-3.2,9.6-5c5.2-3,6.9-9.6,4-14.7c-3-5.2-9.6-6.9-14.7-4
		c-2.5,1.4-5,2.7-7.6,3.9c7.8-19.6,8.9-32.2,3.5-40.4c-3.5-5.3-9.2-8.1-16.2-8.1h-60.7c-9.4,0-14.2,5.1-16.2,8.1
		c-5.5,8.3-4.5,20.5,3.4,40.2c-2.6-1.2-5.2-2.5-7.7-3.8c-5.2-2.9-11.8-1-14.7,4.2c-2.9,5.2-1,11.8,4.2,14.7c3.1,1.7,6.3,3.3,9.6,4.8
		c-21.1,20.3-38.1,44.3-50.5,71.2c-5.6,11.5-7.8,24.4-6.4,37.1c0.9,15.9,7.5,30.9,18.6,42.1c11.2,11.4,26.1,18.1,41.9,18.8
		c0.2,0,0.3,0,0.5,0h95.4c0.2,0,0.3,0,0.5,0c15.8-0.8,30.6-7.5,41.8-18.9c11.1-11.3,17.6-26.2,18.5-42.1
		C260,195.5,257.8,182.6,252.2,171.1z M178.4,53.4c-0.1,3-1.3,9.9-7.2,23.5l-4.9,11.3c-10.9,1.6-21.9,1.5-32.7-0.2l-4.8-11.1
		c-5.9-13.6-7.1-20.5-7.2-23.5H178.4z M237.1,206.2c0,0.2,0,0.4-0.1,0.6c-0.6,10.8-5,20.9-12.4,28.4c-7.3,7.4-17,11.8-27.2,12.4
		h-94.9c-10.3-0.5-19.9-4.9-27.2-12.4c-7.4-7.6-11.9-17.7-12.4-28.4c0-0.2,0-0.4-0.1-0.6c-1-8.9,0.5-17.8,4.4-25.8
		c0-0.1,0.1-0.1,0.1-0.2c11.5-25.1,27.5-47.4,47.3-66.1c3.5-2.3,7.7-3.4,11.8-3.2c0,0,0,0,0,0c0,0,0,0,0,0c0,0,0,0,0,0
		c0.2,0,0.3,0,0.5,0H173c0.2,0,0.4,0,0.5,0c0,0,0,0,0,0c0,0,0,0,0,0c0,0,0,0,0,0c4.1-0.2,8.3,0.9,11.8,3.2
		c19.8,18.8,35.7,41,47.3,66.1c0,0.1,0.1,0.1,0.1,0.2C236.6,188.4,238.1,197.3,237.1,206.2z"/>
</g>
</svg>
