<?xml version="1.0" encoding="utf-8"?>
<!-- Generator: Adobe Illustrator 28.0.0, SVG Export Plug-In . SVG Version: 6.00 Build 0)  -->
<svg version="1.1" id="Layer_1" xmlns="http://www.w3.org/2000/svg" xmlns:xlink="http://www.w3.org/1999/xlink" x="0px" y="0px"
	 viewBox="0 0 300 300" style="enable-background:new 0 0 300 300;" xml:space="preserve">
<style type="text/css">
	.st0{fill:#303D74;}
</style>
<g>
	<path class="st0" d="M232.5,236.1c-23.5,16.1-51.9,25.6-82.5,25.6s-59-9.4-82.5-25.6c-10.4-7.1-14.8-20.7-8.8-31.7
		c12.5-22.9,38.2-37.1,91.3-37.1c53,0,78.8,14.3,91.3,37.1C247.3,215.4,242.9,229,232.5,236.1z"/>
	<path class="st0" d="M150,141.3c28.4,0,51.5-23.1,51.5-51.5c0-28.4-23.1-51.5-51.5-51.5c-28.4,0-51.5,23.1-51.5,51.5
		C98.5,118.3,121.6,141.3,150,141.3z"/>
</g>
</svg>
