<?xml version="1.0" encoding="utf-8"?>
<!-- Generator: Adobe Illustrator 28.0.0, SVG Export Plug-In . SVG Version: 6.00 Build 0)  -->
<svg version="1.1" id="Layer_1" xmlns="http://www.w3.org/2000/svg" xmlns:xlink="http://www.w3.org/1999/xlink" x="0px" y="0px"
	 viewBox="0 0 300 300" style="enable-background:new 0 0 300 300;" xml:space="preserve">
<style type="text/css">
	.st0{fill:#FFFFFF;}
</style>
<g>
	<path class="st0" d="M121.9,72.6H98.3c-2.8,0-5,2.2-5,5s2.2,5,5,5h6.8v12.2h10V82.6h6.8c2.8,0,5-2.2,5-5S124.7,72.6,121.9,72.6z"/>
	<g>
		<path class="st0" d="M114.5,150.3l-3.6-45.1c-0.1-0.9-1.5-0.9-1.5,0l-3.6,45.1c-2.3,1.1-4,3.1-4.9,5.5l-30.2,2.5
			c-0.9,0.1-0.9,1.4,0,1.5l30.2,2.5c1.5,4.1,5.6,7,10.3,6.5c4.4-0.5,8.1-4,8.7-8.4C120.4,156.1,118.1,152.1,114.5,150.3z
			 M110.1,164.1c-2.8,0-5-2.3-5-5c0-2.8,2.3-5,5-5c2.8,0,5,2.3,5,5C115.1,161.9,112.9,164.1,110.1,164.1z"/>
	</g>
	<path class="st0" d="M254.1,201.2H236c-2.8,0-5-2.2-5-5s2.2-5,5-5h18.1c2.8,0,5,2.2,5,5S256.9,201.2,254.1,201.2z"/>
	<path class="st0" d="M236,164.1h-14.1c-2.8,0-5-2.2-5-5s2.2-5,5-5H236c2.8,0,5,2.2,5,5S238.8,164.1,236,164.1z"/>
	<g>
		<path class="st0" d="M247.5,92.7H129.8c-6.2-1.8-12.8-2.9-19.6-2.9c-38.2,0-69.3,31.1-69.3,69.3c0,38.2,31.1,69.3,69.3,69.3
			c6.8,0,13.4-1,19.6-2.8h44c2.8,0,5-2.2,5-5c0-2.8-2.2-5-5-5h-3.1c-2,0-3.8-0.8-5.1-2.1c-1.3-1.3-2.1-3.1-2.1-5.1
			c0-4,3.2-7.2,7.2-7.2h44.5c2.7,0,5-2.2,5-5c0-2.8-2.2-5-5-5h-20c-7.5,0-13.5-6.1-13.5-13.5c0-3.7,1.5-7.1,4-9.6
			c2.4-2.4,5.8-4,9.6-4h7.5c2.8,0,5-2.2,5-5c0-2.8-2.2-5-5-5h-5.9c-8.3,0-15.1-6.8-15.1-15.1c0-4.2,1.7-7.9,4.4-10.7
			c2.7-2.7,6.5-4.4,10.7-4.4h18.4c2.7,0,5-2.2,5-5c0-2.8-2.2-5-5-5h-47.6c-3.1,0-5.6-2.5-5.6-5.6c0-1.5,0.6-2.9,1.6-4
			c1-1,2.4-1.6,3.9-1.6h79.9c2.7,0,5-2.2,5-5C252.5,94.9,250.2,92.7,247.5,92.7z M169.4,159.1c0,32.7-26.6,59.3-59.3,59.3
			c-32.7,0-59.3-26.6-59.3-59.3c0-32.7,26.6-59.3,59.3-59.3C142.8,99.8,169.4,126.4,169.4,159.1z"/>
	</g>
</g>
</svg>
