<?xml version="1.0" encoding="utf-8"?>
<!-- Generator: Adobe Illustrator 28.0.0, SVG Export Plug-In . SVG Version: 6.00 Build 0)  -->
<svg version="1.1" id="Layer_1" xmlns="http://www.w3.org/2000/svg" xmlns:xlink="http://www.w3.org/1999/xlink" x="0px" y="0px"
	 viewBox="0 0 300 300" style="enable-background:new 0 0 300 300;" xml:space="preserve">
<style type="text/css">
	.st0{fill:#F66317;}
	.st1{fill:#FFFFFF;}
</style>
<g>
	<g>
		<g>
			<path class="st0" d="M119.1,149.9l-3.1-39.3c-0.1-0.8-1.3-0.8-1.3,0l-3.1,39.3c-2,1-3.5,2.7-4.2,4.8L81,156.8
				c-0.8,0.1-0.8,1.2,0,1.3l26.3,2.2c1.3,3.6,4.8,6.1,8.9,5.6c3.8-0.4,7-3.5,7.5-7.3C124.3,154.8,122.2,151.4,119.1,149.9z
				 M115.3,161.9c-2.4,0-4.4-2-4.4-4.4c0-2.4,2-4.4,4.4-4.4c2.4,0,4.4,2,4.4,4.4C119.7,159.9,117.7,161.9,115.3,161.9z"/>
		</g>
	</g>
	<g>
		<path class="st1" d="M240.6,185.4h-15.8c-2.4,0-4.4,1.9-4.4,4.4c0,2.4,1.9,4.4,4.4,4.4h15.8c2.4,0,4.4-1.9,4.4-4.4
			C245,187.3,243.1,185.4,240.6,185.4z"/>
	</g>
	<g>
		<path class="st1" d="M229.2,157.5c0-2.4-1.9-4.4-4.4-4.4h-12.3c-2.4,0-4.4,1.9-4.4,4.4c0,2.4,1.9,4.4,4.4,4.4h12.3
			C227.3,161.8,229.2,159.9,229.2,157.5z"/>
	</g>
	<g>
		<path class="st1" d="M206.7,185.4h-17.4c-6.5,0-11.8-5.3-11.8-11.8c0-3.3,1.3-6.2,3.5-8.3c2.1-2.1,5.1-3.5,8.3-3.5h6.5
			c2.4,0,4.4-2,4.4-4.4c0-2.4-1.9-4.4-4.4-4.4h-5.2c-7.3,0-13.1-5.9-13.1-13.2c0-3.6,1.5-6.9,3.9-9.3c2.4-2.4,5.7-3.8,9.3-3.8h16.1
			c2.4,0,4.4-2,4.4-4.4c0-2.4-2-4.4-4.4-4.4h-41.4c-2.7,0-4.9-2.2-4.9-4.9c0-1.3,0.6-2.6,1.4-3.5c0.9-0.9,2.1-1.4,3.4-1.4h69.5
			c2.4,0,4.4-2,4.4-4.4c0-2.4-2-4.4-4.4-4.4H132.4c-4.1-1.2-8.4-2-12.8-2.3v-6.4h5.9c2.4,0,4.4-1.9,4.4-4.4c0-2.4-1.9-4.4-4.4-4.4
			H105c-2.4,0-4.4,1.9-4.4,4.4c0,2.4,1.9,4.4,4.4,4.4h5.9v6.4C79.7,99.6,55,125.7,55,157.5c0,33.2,27,60.3,60.3,60.3
			c5.9,0,11.7-0.9,17.1-2.5h38.3c2.4,0,4.4-1.9,4.4-4.4c0-2.4-1.9-4.4-4.4-4.4H168c-1.7,0-3.3-0.7-4.4-1.8c-1.1-1.1-1.8-2.7-1.8-4.4
			c0-3.5,2.8-6.3,6.2-6.3h38.7c2.4,0,4.4-1.9,4.4-4.4C211.1,187.3,209.1,185.4,206.7,185.4z M115.3,209.1
			c-28.4,0-51.6-23.2-51.6-51.6c0-28.4,23.1-51.6,51.6-51.6c28.4,0,51.6,23.2,51.6,51.6C166.9,185.9,143.7,209.1,115.3,209.1z"/>
	</g>
</g>
</svg>
