<?xml version="1.0" encoding="utf-8"?>
<!-- Generator: Adobe Illustrator 28.0.0, SVG Export Plug-In . SVG Version: 6.00 Build 0)  -->
<svg version="1.1" id="Layer_1" xmlns="http://www.w3.org/2000/svg" xmlns:xlink="http://www.w3.org/1999/xlink" x="0px" y="0px"
	 viewBox="0 0 300 300" style="enable-background:new 0 0 300 300;" xml:space="preserve">
<style type="text/css">
	.st0{fill:#FFFFFF;}
	.st1{fill:#303D74;}
	.st2{opacity:0.7;}
	.st3{fill:#F66317;}
</style>
<g id="XMLID_00000047762165441917012360000015490870392244525219_">
	<g id="XMLID_00000010285697615335913190000008612720455470468518_">
		<g id="XMLID_00000165236133266405427470000005299360745195507132_">
			<path id="XMLID_00000028309726012699361810000006448629826966248895_" class="st0" d="M40,132.6c0,0,34.7-48.8,83.8-50.5
				c49.1-1.8,89,50.5,89,50.5s-45,47.5-86.4,47.5S40,132.6,40,132.6z"/>
		</g>
		<g id="XMLID_00000103263053733641188410000014495968883806247343_">
			
				<ellipse id="XMLID_00000080904052375284476430000017041774953924125875_" transform="matrix(0.7071 -0.7071 0.7071 0.7071 -56.4813 125.8017)" class="st1" cx="123.6" cy="131.1" rx="38.4" ry="38.4"/>
		</g>
		<g id="XMLID_00000168113303256205923810000002955971444864864906_">
			<circle id="XMLID_00000023978242387440953830000015184203968734664093_" class="st0" cx="102.8" cy="139.6" r="8.6"/>
		</g>
	</g>
	<g id="XMLID_00000127766617424502648280000013037204493142869906_">
		<g id="XMLID_00000129897739310807663260000003838307667614663332_" class="st2">
			
				<ellipse id="XMLID_00000017503465703902578090000010189730847101144749_" transform="matrix(0.9285 -0.3713 0.3713 0.9285 -36.3089 76.6095)" class="st0" cx="180.8" cy="132.6" rx="50.5" ry="50.5"/>
		</g>
		<g id="XMLID_00000037673731257923265330000004103336062877113996_">
			<g id="XMLID_00000090254525841183884740000000416041331374810289_">
				<path class="st3" d="M258.5,214.8L245,226c-1.7,1.4-4.4,1.2-5.8-0.5l-35.5-42.9c-1.4-1.7-1.2-4.4,0.5-5.8l13.5-11.2
					c1.7-1.4,4.4-1.2,5.8,0.5l35.5,42.9C260.5,210.7,260.3,213.3,258.5,214.8z"/>
			</g>
		</g>
		<g id="XMLID_00000055666722138558689730000002628880737172477340_">
			<g id="XMLID_00000171715060733003063060000017347577473228507046_">
				<g id="XMLID_00000110432531891420006680000005199258365559938980_">
					<path class="st3" d="M180.6,191.1c-4.4,0-8.9-0.5-13.3-1.5c-15.4-3.5-28.4-12.8-36.8-26.2c-8.4-13.4-11-29.2-7.5-44.5l0,0
						c3.5-15.4,12.8-28.4,26.2-36.8c13.4-8.4,29.2-11,44.5-7.5c15.4,3.5,28.4,12.8,36.8,26.2c8.4,13.4,11,29.2,7.5,44.5
						c-3.5,15.4-12.8,28.4-26.2,36.8C202.3,188,191.5,191.1,180.6,191.1z M180.4,83.3c-9,0-17.9,2.5-25.8,7.4
						c-11,6.9-18.7,17.7-21.6,30.4c-2.9,12.7-0.7,25.8,6.2,36.8c6.9,11,17.7,18.7,30.4,21.6c12.7,2.9,25.8,0.7,36.8-6.2
						c11-6.9,18.7-17.7,21.6-30.4c2.9-12.7,0.7-25.8-6.2-36.8c-6.9-11-17.7-18.7-30.4-21.6C187.7,83.7,184.1,83.3,180.4,83.3z"/>
				</g>
			</g>
		</g>
	</g>
</g>
</svg>
