<?xml version="1.0" encoding="utf-8"?>
<!-- Generator: Adobe Illustrator 28.0.0, SVG Export Plug-In . SVG Version: 6.00 Build 0)  -->
<svg version="1.1" id="Layer_1" xmlns="http://www.w3.org/2000/svg" xmlns:xlink="http://www.w3.org/1999/xlink" x="0px" y="0px"
	 viewBox="0 0 300 300" style="enable-background:new 0 0 300 300;" xml:space="preserve">
<style type="text/css">
	.st0{fill:#F66317;}
	.st1{fill:#303D74;}
</style>
<g>
	<path class="st0" d="M179.9,103.6l-16.4-2.4l-7.3-14.9c-0.3-0.6-0.7-1.2-1.2-1.7c-0.7-0.7-1.5-1.2-2.4-1.6
		c-0.3-0.1-0.5-0.3-0.8-0.4c-0.1,0-0.2,0-0.3,0c-0.5-0.1-1-0.2-1.6-0.2c-0.6,0-1.2,0.1-1.8,0.2c0,0-0.1,0-0.1,0.1
		c-1.7,0.5-3.3,1.7-4.2,3.6l-7.3,14.9l-16.4,2.4c-3.5,0.5-5.7,3.4-5.9,6.5c-0.1,1.9,0.5,3.8,2.1,5.3l11.9,11.6l-2.8,16.3
		c-0.1,0.5-0.1,1-0.1,1.5c0,0.1,0,0.2,0,0.3c0,0.5,0.1,0.9,0.2,1.3c0,0.1,0,0.1,0.1,0.2c0.1,0.4,0.3,0.7,0.5,1.1
		c0,0.1,0.1,0.1,0.1,0.2c0.2,0.4,0.5,0.7,0.7,1c0.1,0.1,0.1,0.1,0.2,0.2c0.3,0.3,0.6,0.6,0.9,0.8c0,0,0.1,0.1,0.1,0.1
		c0.3,0.3,0.7,0.5,1.1,0.7c0.1,0,0.2,0.1,0.3,0.1c0.4,0.2,0.8,0.3,1.2,0.4c0,0,0.1,0,0.1,0c0.4,0.1,0.8,0.1,1.2,0.1
		c0.1,0,0.2,0,0.3,0c0.5,0,0.9-0.1,1.4-0.2c0.1,0,0.2,0,0.3-0.1c0.5-0.1,1-0.3,1.4-0.6c0,0,0,0,0,0l14.7-7.7l14.7,7.7
		c0.5,0.3,1,0.4,1.4,0.6c0.1,0,0.2,0.1,0.3,0.1c0.5,0.1,0.9,0.2,1.4,0.2c0.1,0,0.2,0,0.3,0c0.4,0,0.8-0.1,1.2-0.1c0,0,0.1,0,0.1,0
		c0.4-0.1,0.8-0.2,1.2-0.4c0.1,0,0.2-0.1,0.3-0.1c0.4-0.2,0.8-0.4,1.1-0.7c0,0,0.1-0.1,0.1-0.1c0.3-0.2,0.6-0.5,0.9-0.8
		c0.1-0.1,0.1-0.1,0.2-0.2c0.3-0.3,0.5-0.7,0.7-1c0-0.1,0.1-0.1,0.1-0.2c0.2-0.3,0.3-0.7,0.5-1.1c0-0.1,0-0.1,0.1-0.2
		c0.1-0.4,0.2-0.9,0.2-1.3c0-0.1,0-0.2,0-0.3c0-0.5,0-1-0.1-1.5l-2.8-16.3l11.9-11.6C187.9,111.4,185.6,104.5,179.9,103.6z
		 M158.2,121.7c-0.2,0.5-0.4,0.9-0.5,1.4c-0.3,1.8,0.2,4.1,1,8.8c-1.2-0.6-2.2-1.1-3-1.6c0,0,0,0,0,0c-0.2-0.1-0.4-0.2-0.5-0.3
		c-0.2-0.1-0.5-0.3-0.7-0.4c-0.2-0.1-0.3-0.1-0.5-0.2c-0.2-0.1-0.4-0.2-0.6-0.3c-0.1-0.1-0.3-0.1-0.4-0.2c-0.2-0.1-0.4-0.2-0.5-0.2
		c-0.1-0.1-0.2-0.1-0.4-0.1c-0.2-0.1-0.3-0.1-0.5-0.2c-0.1,0-0.2-0.1-0.4-0.1c-0.1,0-0.3-0.1-0.4-0.1c-0.1,0-0.2,0-0.3,0
		c-0.1,0-0.3,0-0.4,0c-0.1,0-0.3,0-0.4,0c-0.1,0-0.2,0-0.4,0c-0.1,0-0.3,0.1-0.4,0.1c-0.1,0-0.2,0-0.4,0.1c-0.2,0-0.3,0.1-0.5,0.2
		c-0.1,0-0.2,0.1-0.4,0.1c-0.2,0.1-0.4,0.2-0.6,0.2c-0.1,0.1-0.3,0.1-0.4,0.2c-0.2,0.1-0.4,0.2-0.6,0.3c-0.2,0.1-0.3,0.2-0.5,0.2
		c-0.2,0.1-0.4,0.2-0.6,0.3c-0.2,0.1-0.4,0.2-0.6,0.3c-0.1,0.1-0.2,0.1-0.4,0.2c-0.8,0.4-1.7,0.9-2.7,1.5v0l0,0
		c0.4-2.6,0.8-4.4,1-5.9c0.1-1.1,0.2-1.9,0.1-2.7c-0.1-0.5-0.2-1-0.5-1.4c-0.8-1.6-2.6-3.2-6-6.5c1.3-0.2,2.5-0.4,3.5-0.5
		c3.5-0.5,5.1-0.9,6.4-2.2c1.3-1.3,2.2-3.5,4.2-7.6c2,4.1,2.9,6.3,4.2,7.6c0.4,0.4,0.8,0.7,1.2,0.9c0.2,0.1,0.5,0.2,0.7,0.3
		c1.6,0.6,3.9,0.8,7.9,1.4C160.8,118.5,159,120.1,158.2,121.7z"/>
	<path class="st1" d="M245,219c0.2,0,0.5-0.1,0.7-0.1c0.1,0,0.2,0,0.3-0.1c0.3-0.1,0.6-0.2,0.9-0.3c0,0,0.1,0,0.1-0.1
		c0.2-0.1,0.5-0.2,0.7-0.4c0.1-0.1,0.2-0.1,0.3-0.2c0.2-0.1,0.3-0.2,0.5-0.4c0.1-0.1,0.2-0.2,0.3-0.2c0.1-0.1,0.3-0.2,0.4-0.4
		c0.1-0.1,0.2-0.2,0.2-0.3c0.1-0.1,0.2-0.3,0.3-0.4c0.1-0.1,0.1-0.2,0.2-0.3c0.1-0.1,0.2-0.3,0.3-0.4c0.1-0.1,0.1-0.2,0.2-0.4
		c0.1-0.2,0.1-0.3,0.2-0.5c0-0.1,0.1-0.3,0.1-0.4c0.1-0.2,0.1-0.3,0.1-0.5c0-0.1,0.1-0.3,0.1-0.4c0-0.2,0.1-0.3,0.1-0.5
		c0-0.1,0-0.3,0-0.4c0-0.2,0-0.4,0-0.5c0-0.1,0-0.3,0-0.4c0-0.2-0.1-0.4-0.1-0.6c0-0.1,0-0.2-0.1-0.4c-0.1-0.2-0.1-0.4-0.2-0.6
		c0-0.1-0.1-0.2-0.1-0.3c-0.1-0.3-0.3-0.6-0.5-0.9l-41.8-72.3c13.2-39.6-16.4-80.8-58.3-80.8c-26.2,0-47.6,16.1-56.7,37.8
		c-5.5,13-6.5,28.1-1.6,43l-41.8,72.3c-0.2,0.3-0.3,0.6-0.4,0.9c0,0.1-0.1,0.2-0.1,0.3c-0.1,0.2-0.1,0.4-0.2,0.6
		c0,0.1,0,0.3-0.1,0.4c0,0.2-0.1,0.4-0.1,0.6c0,0.1,0,0.3,0,0.4c0,0.2,0,0.4,0,0.5c0,0.1,0,0.3,0,0.4c0,0.2,0,0.3,0.1,0.5
		c0,0.1,0.1,0.3,0.1,0.4c0,0.2,0.1,0.3,0.1,0.5c0,0.1,0.1,0.3,0.1,0.4c0.1,0.2,0.1,0.3,0.2,0.5c0.1,0.1,0.1,0.2,0.2,0.4
		c0.1,0.1,0.2,0.3,0.3,0.4c0.1,0.1,0.1,0.2,0.2,0.3c0.1,0.1,0.2,0.3,0.3,0.4c0.1,0.1,0.2,0.2,0.3,0.3c0.1,0.1,0.3,0.2,0.4,0.4
		c0.1,0.1,0.2,0.2,0.3,0.2c0.2,0.1,0.3,0.2,0.5,0.3c0.1,0.1,0.2,0.1,0.3,0.2c0.2,0.1,0.4,0.2,0.7,0.3c0.1,0,0.1,0.1,0.2,0.1
		c0.3,0.1,0.6,0.2,0.9,0.3c0.1,0,0.2,0,0.3,0.1c0.2,0.1,0.4,0.1,0.7,0.1c0.1,0,0.2,0,0.4,0c0.2,0,0.4,0,0.6,0c0.4,0,0.8,0,1.2-0.1
		l27-4.9l9.3,25.8c0.2,0.6,0.6,1.2,0.9,1.7c0,0,0.1,0.1,0.1,0.2c0.4,0.5,0.8,0.9,1.2,1.2c0.1,0.1,0.1,0.1,0.2,0.2
		c0.5,0.3,0.9,0.6,1.5,0.8c0.1,0,0.2,0.1,0.3,0.1c0.5,0.2,1.1,0.3,1.6,0.4c0.1,0,0.2,0,0.3,0c0.4,0,0.8,0,1.2-0.1
		c0.3,0,0.5,0,0.8-0.1c0.4-0.1,0.7-0.2,1-0.3c0.2-0.1,0.5-0.2,0.7-0.3c0.4-0.2,0.7-0.4,1-0.7c0.2-0.1,0.4-0.2,0.5-0.4
		c0.5-0.4,0.9-1,1.3-1.6l36.4-63.1h0l0,0c1.3,0.2,2.6,0.3,3.8,0.4c2.6,0.2,5.1,0.2,7.7,0c1.3-0.1,2.6-0.2,3.8-0.4l36.4,63.1
		c0.4,0.6,0.8,1.1,1.3,1.6c0.2,0.2,0.3,0.3,0.5,0.4c0.3,0.3,0.7,0.5,1,0.7c0.2,0.1,0.5,0.2,0.7,0.3c0.3,0.1,0.7,0.3,1,0.3
		c0.2,0.1,0.5,0.1,0.8,0.1c0.4,0,0.8,0.1,1.2,0.1c0.1,0,0.2,0,0.3,0c0.5-0.1,1.1-0.2,1.6-0.4c0.1,0,0.2-0.1,0.3-0.1
		c0.5-0.2,1-0.5,1.5-0.8c0.1,0,0.1-0.1,0.2-0.2c0.5-0.4,0.9-0.8,1.2-1.2c0,0,0.1-0.1,0.1-0.2c0.4-0.5,0.7-1.1,0.9-1.7l9.3-25.8
		l27,4.9c0.4,0.1,0.8,0.1,1.2,0.1c0.2,0,0.4,0,0.6,0C244.8,219,244.9,219,245,219z M101.4,221.2l-6.2-17.3c-0.1-0.4-0.3-0.7-0.5-1.1
		c-0.1-0.1-0.1-0.2-0.2-0.3c-0.1-0.2-0.3-0.4-0.4-0.6c-0.1-0.1-0.2-0.2-0.3-0.3c-0.2-0.2-0.3-0.3-0.5-0.5c-0.1-0.1-0.2-0.2-0.4-0.3
		c-0.2-0.1-0.4-0.3-0.6-0.4c-0.1-0.1-0.3-0.2-0.4-0.2c-0.2-0.1-0.4-0.2-0.6-0.3c-0.1-0.1-0.3-0.1-0.4-0.2c-0.2-0.1-0.5-0.1-0.7-0.2
		c-0.1,0-0.2-0.1-0.4-0.1c-0.4-0.1-0.7-0.1-1.1-0.1c0,0,0,0,0,0c-0.4,0-0.8,0-1.2,0.1c0,0,0,0,0,0l-18.1,3.3L99,151.3l0,0v0
		c0.9,1.3,1.8,2.6,2.8,3.8c6.9,8.7,16,15.4,26.5,19.3L101.4,221.2z M153.4,164.4c-0.5,0-1.1,0-1.6,0.1c-0.5,0-1.1,0.1-1.6,0.1
		c0,0-0.1,0-0.1,0c-0.6,0-1.2,0-1.7-0.1c-0.6,0-1.1,0-1.7-0.1c-0.6,0-1.2-0.1-1.7-0.2c-0.6-0.1-1.1-0.1-1.7-0.2
		c-0.6-0.1-1.1-0.2-1.7-0.3c-0.6-0.1-1.1-0.2-1.7-0.3c-0.5-0.1-1.1-0.3-1.6-0.4c-0.6-0.1-1.2-0.3-1.7-0.4c-0.5-0.1-1-0.3-1.5-0.5
		c-0.6-0.2-1.2-0.4-1.7-0.6c-0.5-0.2-1-0.4-1.4-0.6c-0.6-0.2-1.2-0.5-1.8-0.7c-0.5-0.2-0.9-0.4-1.3-0.7c-0.6-0.3-1.2-0.6-1.7-0.9
		c-0.4-0.2-0.8-0.5-1.3-0.7c-0.6-0.3-1.2-0.7-1.7-1c-0.4-0.3-0.8-0.6-1.2-0.8c-0.6-0.4-1.1-0.7-1.7-1.2c-0.4-0.3-0.8-0.6-1.1-0.9
		c-0.5-0.4-1.1-0.8-1.6-1.3c-0.4-0.3-0.7-0.7-1.1-1c-0.5-0.5-1-0.9-1.5-1.4c-0.4-0.4-0.7-0.8-1.1-1.2c-0.4-0.5-0.9-1-1.3-1.5
		c-0.4-0.5-0.7-0.9-1.1-1.4c-0.4-0.5-0.8-1-1.2-1.5c-0.4-0.5-0.7-1.1-1-1.6c-0.3-0.5-0.7-1-1-1.5c-0.4-0.6-0.7-1.3-1.1-2
		c-0.3-0.5-0.5-0.9-0.8-1.4c-0.6-1.2-1.1-2.4-1.6-3.6c-0.7-1.7-1.2-3.5-1.7-5.2c-0.1-0.4-0.2-0.9-0.3-1.3c-0.6-2.6-1-5.3-1.2-7.9
		c0-0.1,0-0.2,0-0.3c-1-17.5,7.8-34,22.3-43.1c0.8-0.5,1.6-1,2.5-1.4c4.2-2.3,8.8-4,13.7-4.9c2.9-0.6,6-0.9,9.2-0.9
		c33.7,0,56.6,33.9,44.3,65.1c-0.5,1.3-1,2.5-1.6,3.7c-0.2,0.4-0.5,0.8-0.7,1.3c-0.4,0.7-0.7,1.5-1.2,2.1c-0.3,0.5-0.6,1-0.9,1.5
		c-0.4,0.6-0.7,1.2-1.1,1.7c-0.4,0.5-0.8,1-1.2,1.5c-0.4,0.5-0.7,1-1.1,1.4c-0.4,0.5-0.9,1-1.4,1.5c-0.3,0.4-0.7,0.8-1,1.2
		c-0.5,0.5-1,0.9-1.5,1.4c-0.4,0.3-0.7,0.7-1.1,1c-0.5,0.5-1.1,0.9-1.6,1.3c-0.4,0.3-0.8,0.6-1.1,0.9c-0.5,0.4-1.1,0.8-1.7,1.2
		c-0.4,0.3-0.8,0.6-1.2,0.8c-0.6,0.4-1.1,0.7-1.7,1c-0.4,0.2-0.8,0.5-1.3,0.8c-0.6,0.3-1.1,0.6-1.7,0.8c-0.5,0.2-0.9,0.5-1.4,0.7
		c-0.6,0.3-1.1,0.5-1.7,0.7c-0.5,0.2-1,0.4-1.5,0.6c-0.6,0.2-1.2,0.4-1.7,0.6c-0.5,0.2-1,0.3-1.5,0.5c-0.6,0.2-1.1,0.3-1.7,0.4
		c-0.5,0.1-1.1,0.3-1.6,0.4c-0.5,0.1-1.1,0.2-1.7,0.3c-0.6,0.1-1.1,0.2-1.7,0.3c-0.5,0.1-1.1,0.1-1.6,0.2
		C154.6,164.3,154,164.4,153.4,164.4z M212.6,199.4c-0.4-0.1-0.8-0.1-1.2-0.1c0,0,0,0,0,0c-0.4,0-0.7,0-1.1,0.1
		c-0.1,0-0.2,0.1-0.4,0.1c-0.2,0.1-0.5,0.1-0.7,0.2c-0.1,0-0.3,0.1-0.4,0.2c-0.2,0.1-0.4,0.2-0.6,0.3c-0.1,0.1-0.3,0.1-0.4,0.2
		c-0.2,0.1-0.4,0.3-0.6,0.4c-0.1,0.1-0.2,0.2-0.4,0.3c-0.2,0.2-0.3,0.3-0.5,0.5c-0.1,0.1-0.2,0.2-0.3,0.3c-0.2,0.2-0.3,0.4-0.4,0.6
		c-0.1,0.1-0.1,0.2-0.2,0.3c-0.2,0.3-0.4,0.7-0.5,1.1c0,0,0,0,0,0l-6.2,17.3l-27-46.7c11.7-4.4,21.7-12.1,29.3-23.2l29.7,51.4
		L212.6,199.4z"/>
</g>
</svg>
