<?xml version="1.0" encoding="utf-8"?>
<!-- Generator: Adobe Illustrator 28.0.0, SVG Export Plug-In . SVG Version: 6.00 Build 0)  -->
<svg version="1.1" id="Layer_1" xmlns="http://www.w3.org/2000/svg" xmlns:xlink="http://www.w3.org/1999/xlink" x="0px" y="0px"
	 viewBox="0 0 300 300" style="enable-background:new 0 0 300 300;" xml:space="preserve">
<style type="text/css">
	.st0{fill:#303D74;}
</style>
<g>
	<path class="st0" d="M236,239.7c-24.5,16.8-54.1,26.6-86,26.6s-61.6-9.8-86-26.6c-10.8-7.4-15.4-21.6-9.1-33.1
		c13-23.9,39.9-38.7,95.2-38.7c55.3,0,82.1,14.9,95.2,38.7C251.4,218.2,246.8,232.3,236,239.7z"/>
	<path class="st0" d="M150,141c29.6,0,53.7-24,53.7-53.7c0-29.6-24-53.7-53.7-53.7c-29.6,0-53.7,24-53.7,53.7
		C96.3,116.9,120.4,141,150,141z"/>
</g>
</svg>
