<?xml version="1.0" encoding="utf-8"?>
<!-- Generator: Adobe Illustrator 28.0.0, SVG Export Plug-In . SVG Version: 6.00 Build 0)  -->
<svg version="1.1" id="Layer_1" xmlns="http://www.w3.org/2000/svg" xmlns:xlink="http://www.w3.org/1999/xlink" x="0px" y="0px"
	 viewBox="0 0 300 300" style="enable-background:new 0 0 300 300;" xml:space="preserve">
<style type="text/css">
	.st0{fill:#303D74;}
	.st1{fill:#F66317;}
</style>
<g>
	<path class="st0" d="M148.7,75C148.7,75,148.7,75,148.7,75C148.7,75,148.7,75,148.7,75z"/>
	<path class="st0" d="M250.1,118.7c-77.8-34.4-94.1-41.6-96.9-42.8c0,0,0,0,0,0c0,0,0,0-0.1,0c-0.1,0-0.2-0.1-0.4-0.2c0,0,0,0,0,0
		c-0.1,0-0.1-0.1-0.1,0c-0.3-0.1-0.8-0.3-1.4-0.6c-0.8-0.4-1.8-0.4-2.6,0c0,0-0.1,0-0.1,0c-0.7,0.3-1.1,0.5-1.3,0.6c0,0-0.1,0-0.1,0
		c0,0,0,0-0.1,0c-5.3,2.3-26.2,11.6-97.2,43c-1.6,0.7-2.3,2.6-1.6,4.2c0.7,1.6,2.6,2.4,4.2,1.6l17-7.5v105.1c0,1.8,1.4,3.2,3.2,3.2
		c22.2,0,132.1,0,154.8,0c1.8,0,3.2-1.4,3.2-3.2V117l17,7.5c0.4,0.2,0.9,0.3,1.3,0.3c1.2,0,2.4-0.7,2.9-1.9
		C252.4,121.3,251.7,119.4,250.1,118.7z M137.7,109.2h24.5v12.1h-24.5V109.2z M208.6,218.9h-2.1h-3.6h-49.1h-9.5H97.1h-3.6h-2.1
		v-57.6l58.6-17.9l58.6,17.9V218.9z"/>
	<g>
		<path class="st1" d="M141.1,178h-15v11.1c0,0.6-0.5,1.2-1.2,1.2h-8.4c-0.7,0-1.2-0.5-1.2-1.2V178h-15c-1.8,0-3.2,1.4-3.2,3.2v34.3
			h47.2v-34.3C144.3,179.4,142.9,178,141.1,178z"/>
	</g>
	<g>
		<path class="st1" d="M202.9,215.5v-25.9c0-1.8-1.4-3.2-3.2-3.2h-16.4v8.9c0,0.7-0.6,1.2-1.2,1.2h-7.4c-0.7,0-1.2-0.5-1.2-1.2v-8.9
			H157c-1.8,0-3.2,1.4-3.2,3.2v25.9H202.9z"/>
	</g>
</g>
</svg>
