<?xml version="1.0" encoding="utf-8"?>
<!-- Generator: Adobe Illustrator 28.0.0, SVG Export Plug-In . SVG Version: 6.00 Build 0)  -->
<svg version="1.1" id="Layer_1" xmlns="http://www.w3.org/2000/svg" xmlns:xlink="http://www.w3.org/1999/xlink" x="0px" y="0px"
	 viewBox="0 0 300 300" style="enable-background:new 0 0 300 300;" xml:space="preserve">
<style type="text/css">
	.st0{fill:#FFFFFF;}
</style>
<path class="st0" d="M71,136.3c3.2-4.4,6.4-8.9,9.4-13.4c6.2-9.1,13-17.8,18.8-27c2.6-4.1,5.2-8.2,7.8-12.3c0.1-0.2,0.3-0.4,0.5-0.5
	h42.6c0,0.1-0.1,0.2-0.1,0.3c-0.1,0.2-0.2,0.3-0.4,0.5c-4.3,6.6-9,13-13.5,19.5c-6,8.7-11.8,17.2-17.5,25.5
	c-0.7,1.1-1.5,2.3-2.4,3.6c0,0,0,0,0,0.1c0,0.1,0,0.1,0.1,0.2c2.8,0.3,5.6,0.5,8.4,0.5c7.6,0.1,15.9,0,24.8-0.1l29.9-0.2
	c10.2,0,20.3,0.1,30.5,0c8.5-0.1,17,0.1,25.5,0.5c0.1,0,0.3,0.1,0.4,0.1l-0.5,34.1c-0.8-0.1-2.3-0.1-4.6-0.1
	c-3.5,0-7.2,0.2-10.5,0.2c-35.4,0.1-59.9-0.1-95.5-0.1c-1.3,0-2.8,0.1-4.3,0.2c-0.2,0-0.2,0.1-0.2,0.3c0.4,1.2,0.8,2.1,1.2,2.6
	c3.3,4.5,6.3,9.1,9.4,13.3c4,5.5,7.8,11.4,11.7,17c2.9,4.1,6,8.4,9.1,12.9c1,1.4,2.2,2.7,3.1,4.2h-43.2c-1.1-0.6-2.1-1.6-3-3
	c-4.6-7.6-9.4-15.1-14.2-22.5c-1.9-2.9-3.8-5.7-5.9-8.5c-1.1-1.5-2-2.8-2.8-3.8c-2.2-3.2-4.6-6.4-6.7-9.7c-1.5-2.3-3.3-4.5-4.9-6.9
	c-1.2-1.8-2.4-3.5-3.7-5.2c-2.1-2.8-4.1-5.7-6-8.9c-1-1.6-0.3-3.5,0.7-4.9C67.3,141.7,69.1,139,71,136.3z"/>
</svg>
