<?xml version="1.0" encoding="utf-8"?>
<!-- Generator: Adobe Illustrator 28.0.0, SVG Export Plug-In . SVG Version: 6.00 Build 0)  -->
<svg version="1.1" id="Layer_1" xmlns="http://www.w3.org/2000/svg" xmlns:xlink="http://www.w3.org/1999/xlink" x="0px" y="0px"
	 viewBox="0 0 300 300" style="enable-background:new 0 0 300 300;" xml:space="preserve">
<style type="text/css">
	.st0{fill:#303D74;}
	.st1{fill:#F66317;}
</style>
<g>
	<g>
		<path class="st0" d="M68.2,81C58.7,81,51,88.7,51,98.2c0,9.5,7.7,17.2,17.2,17.2s17.2-7.7,17.2-17.2C85.4,88.7,77.7,81,68.2,81z"
			/>
	</g>
	<g>
		<g>
			<path class="st1" d="M68.2,132.8c-9.5,0-17.2,7.7-17.2,17.2c0,9.5,7.7,17.2,17.2,17.2s17.2-7.7,17.2-17.2
				C85.4,140.5,77.7,132.8,68.2,132.8z"/>
		</g>
	</g>
	<g>
		<path class="st0" d="M68.2,184.6c-9.5,0-17.2,7.7-17.2,17.2c0,9.5,7.7,17.2,17.2,17.2s17.2-7.7,17.2-17.2
			C85.4,192.3,77.7,184.6,68.2,184.6z"/>
	</g>
	<g>
		<path class="st0" d="M236.1,85.3H113.6c-7.1,0-12.9,5.8-12.9,13c0,7.1,5.8,12.9,12.9,12.9h122.5c7.1,0,12.9-5.8,12.9-12.9
			C249,91.1,243.2,85.3,236.1,85.3z"/>
	</g>
	<g>
		<g>
			<path class="st1" d="M236.1,137.1H113.6c-7.1,0-12.9,5.8-12.9,13c0,7.1,5.8,12.9,12.9,12.9h122.5c7.1,0,12.9-5.8,12.9-12.9
				C249,142.8,243.2,137.1,236.1,137.1z"/>
		</g>
	</g>
	<g>
		<path class="st0" d="M236.1,188.8H113.6c-7.1,0-12.9,5.8-12.9,12.9c0,7.1,5.8,12.9,12.9,12.9h122.5c7.1,0,12.9-5.8,12.9-12.9
			C249,194.6,243.2,188.8,236.1,188.8z"/>
	</g>
</g>
</svg>
