<?xml version="1.0" encoding="utf-8"?>
<!-- Generator: Adobe Illustrator 28.0.0, SVG Export Plug-In . SVG Version: 6.00 Build 0)  -->
<svg version="1.1" id="Layer_1" xmlns="http://www.w3.org/2000/svg" xmlns:xlink="http://www.w3.org/1999/xlink" x="0px" y="0px"
	 viewBox="0 0 300 300" style="enable-background:new 0 0 300 300;" xml:space="preserve">
<style type="text/css">
	.st0{fill:#F66317;}
	.st1{fill:#FFFFFF;}
</style>
<g>
	<polygon class="st0" points="123.5,119.6 123.5,173.2 177,173.2 177,119.6 156.4,119.6 156.4,136.6 144.1,136.6 144.1,119.6 	"/>
	<polygon class="st0" points="121,189.6 121,206.7 108.7,206.7 108.7,189.6 88.1,189.6 88.1,243.2 141.6,243.2 141.6,189.6 	"/>
	<polygon class="st0" points="191,189.6 191,206.7 178.8,206.7 178.8,189.6 158.1,189.6 158.1,243.2 211.7,243.2 211.7,189.6 	"/>
	<polygon class="st1" points="149.9,55.2 35,109.5 42.1,124.5 56.7,117.6 56.7,244.6 73.3,244.6 73.3,109.7 149.9,73.4 226.7,109.7 
		226.7,244.8 243.2,244.8 243.2,117.6 257.8,124.5 265,109.4 	"/>
</g>
</svg>
