<?xml version="1.0" encoding="utf-8"?>
<!-- Generator: Adobe Illustrator 28.0.0, SVG Export Plug-In . SVG Version: 6.00 Build 0)  -->
<svg version="1.1" id="Layer_1" xmlns="http://www.w3.org/2000/svg" xmlns:xlink="http://www.w3.org/1999/xlink" x="0px" y="0px"
	 viewBox="0 0 300 300" style="enable-background:new 0 0 300 300;" xml:space="preserve">
<style type="text/css">
	.st0{fill:#FFFFFF;}
	.st1{fill:#F66317;}
</style>
<path class="st0" d="M250,115.7c0-0.1,0-0.3,0-0.4c0,0,0-0.1,0-0.1c0-0.1,0-0.2,0-0.3c0-0.1,0-0.1,0-0.2c0-0.1,0-0.2,0-0.2
	c0-0.1,0-0.2,0-0.3c0,0,0-0.1,0-0.1c0-0.1,0-0.2-0.1-0.4c0,0,0,0,0,0L236.8,58c-1-4.4-4.9-7.5-9.4-7.5H150H72.6
	c-4.5,0-8.4,3.1-9.4,7.5l-12.9,55.6c0,0,0,0,0,0c0,0.1-0.1,0.3-0.1,0.4c0,0,0,0.1,0,0.1c0,0.1,0,0.2,0,0.3c0,0.1,0,0.1,0,0.2
	c0,0.1,0,0.1,0,0.2c0,0.1,0,0.2,0,0.3c0,0,0,0.1,0,0.1c0,0.1,0,0.3,0,0.4c0,0,0,0,0,0v125.1c0,5.3,4.3,9.7,9.7,9.7h180.6
	c5.3,0,9.7-4.3,9.7-9.7L250,115.7C250,115.8,250,115.7,250,115.7z M230.6,231.1H69.4V125.4h71v12.2c0,5.3,4.3,9.7,9.7,9.7
	s9.7-4.3,9.7-9.7v-12.2h71V231.1z M80.3,69.9h60.1v36.2H71.9L80.3,69.9z M228.1,106.1h-68.5V69.9h60.1L228.1,106.1z"/>
<path class="st1" d="M137.1,188.4l-19-19c-3.8-3.8-9.9-3.8-13.7,0c-3.8,3.8-3.8,9.9,0,13.7l25.8,25.8c3.8,3.8,9.9,3.8,13.7,0
	l51.6-51.6c3.8-3.8,3.8-9.9,0-13.7c-3.8-3.8-9.9-3.8-13.7,0L137.1,188.4z"/>
</svg>
