<?xml version="1.0" encoding="utf-8"?>
<!-- Generator: Adobe Illustrator 28.0.0, SVG Export Plug-In . SVG Version: 6.00 Build 0)  -->
<svg version="1.1" id="Layer_1" xmlns="http://www.w3.org/2000/svg" xmlns:xlink="http://www.w3.org/1999/xlink" x="0px" y="0px"
	 viewBox="0 0 300 300" style="enable-background:new 0 0 300 300;" xml:space="preserve">
<style type="text/css">
	.st0{fill:#FFFFFF;}
	.st1{fill:#F66317;}
</style>
<g>
	<g>
		<path class="st0" d="M154,154.8l-10.2-1.1c-1.4-0.2-2.6-1.1-3.1-2.4c0,0,0,0,0,0c-0.5-1.3-0.4-2.8,0.5-3.9l6.4-8
			c1.2-1.5,1.1-3.7-0.3-5.1l-12.1-12.1c-1.4-1.4-3.6-1.5-5.1-0.3l-8,6.4c-1.1,0.9-2.6,1.1-3.9,0.5c0,0,0,0,0,0
			c-1.3-0.5-2.2-1.7-2.4-3.1l-1.1-10.2c-0.2-1.9-1.8-3.4-3.8-3.4H94c-1.9,0-3.6,1.5-3.8,3.4l-1.1,10.2c-0.2,1.4-1.1,2.6-2.4,3.1
			c0,0,0,0,0,0c-1.3,0.5-2.8,0.3-3.9-0.5l-8-6.4c-1.5-1.2-3.7-1.1-5.1,0.3l-12.1,12.1c-1.4,1.4-1.5,3.6-0.3,5.1l6.4,8
			c0.9,1.1,1.1,2.6,0.5,3.9c0,0,0,0,0,0c-0.5,1.3-1.7,2.2-3.1,2.4l-10.2,1.1c-1.9,0.2-3.4,1.8-3.4,3.8v17c0,1.9,1.5,3.6,3.4,3.8
			l10.2,1.1c1.4,0.2,2.6,1.1,3.1,2.4c0,0,0,0,0,0c0.5,1.3,0.4,2.8-0.5,3.9l-6.4,8c-1.2,1.5-1.1,3.7,0.3,5.1l12.1,12.1
			c1.4,1.4,3.6,1.5,5.1,0.3l8-6.4c1.1-0.9,2.6-1.1,3.9-0.5c0,0,0,0,0,0c1.3,0.5,2.2,1.7,2.4,3.1l1.1,10.2c0.2,1.9,1.8,3.4,3.8,3.4
			h17c1.9,0,3.6-1.5,3.8-3.4l1.1-10.2c0.2-1.4,1.1-2.6,2.4-3.1c0,0,0,0,0,0c1.3-0.5,2.8-0.3,3.9,0.5l8,6.4c1.5,1.2,3.7,1.1,5.1-0.3
			l12.1-12.1c1.4-1.4,1.5-3.6,0.3-5.1l-6.4-8c-0.9-1.1-1.1-2.6-0.5-3.9c0,0,0,0,0,0c0.5-1.3,1.7-2.2,3.1-2.4l10.2-1.1
			c1.9-0.2,3.4-1.8,3.4-3.8v-17C157.4,156.6,156,155,154,154.8z M102.6,184.2c-9.4,0-17.1-7.7-17.1-17.1c0-9.4,7.7-17.1,17.1-17.1
			c9.4,0,17.1,7.7,17.1,17.1C119.7,176.5,112,184.2,102.6,184.2z"/>
		<g>
			<g>
				<path class="st1" d="M250.3,134.6l-7-5.5c-1.1-0.9-1.7-2.2-1.7-3.7c0,0,0,0,0,0c0-1.4,0.6-2.8,1.7-3.7l7-5.5
					c1.6-1.3,2.2-3.4,1.4-5.3l-3.1-7.4c-0.8-1.9-2.7-3-4.8-2.8l-8.9,1c-1.4,0.2-2.8-0.4-3.8-1.4c0,0,0,0,0,0c-1-1-1.5-2.4-1.4-3.8
					l1-8.9c0.2-2-0.9-4-2.8-4.8l-7.4-3.1c-1.9-0.8-4.1-0.2-5.3,1.4l-5.5,7c-0.9,1.1-2.2,1.7-3.7,1.7c0,0,0,0,0,0
					c-1.4,0-2.8-0.6-3.7-1.7l-5.5-7c-1.3-1.6-3.4-2.2-5.3-1.4l-7.4,3.1c-1.9,0.8-3,2.7-2.8,4.8l1,8.9c0.2,1.4-0.4,2.8-1.4,3.8
					c0,0,0,0,0,0c-1,1-2.4,1.5-3.8,1.4l-8.9-1c-2-0.2-4,0.9-4.8,2.8l-3.1,7.4c-0.8,1.9-0.2,4.1,1.4,5.3l7,5.5
					c1.1,0.9,1.7,2.2,1.7,3.7c0,0,0,0,0,0c0,1.4-0.6,2.8-1.7,3.7l-7,5.5c-1.6,1.3-2.2,3.4-1.4,5.3l3.1,7.4c0.8,1.9,2.7,3,4.8,2.8
					l8.9-1c1.4-0.2,2.8,0.4,3.8,1.4c0,0,0,0,0,0c1,1,1.5,2.4,1.4,3.8l-1,8.9c-0.2,2,0.9,4,2.8,4.8l7.4,3.1c1.9,0.8,4.1,0.2,5.3-1.4
					l5.5-7c0.9-1.1,2.2-1.7,3.7-1.7c0,0,0,0,0,0c1.4,0,2.8,0.6,3.7,1.7l5.5,7c1.3,1.6,3.4,2.2,5.3,1.4l7.4-3.1
					c1.9-0.8,3-2.7,2.8-4.8l-1-8.9c-0.2-1.4,0.4-2.8,1.4-3.8c0,0,0,0,0,0c1-1,2.4-1.5,3.8-1.4l8.9,1c2,0.2,4-0.9,4.8-2.8l3.1-7.4
					C252.4,138,251.9,135.8,250.3,134.6z M210.5,138.6c-7.1,3-15.3-0.4-18.3-7.6c-3-7.1,0.4-15.3,7.6-18.3c7.1-3,15.3,0.4,18.3,7.6
					C221,127.5,217.7,135.7,210.5,138.6z"/>
			</g>
		</g>
	</g>
</g>
</svg>
