<?xml version="1.0" encoding="utf-8"?>
<!-- Generator: Adobe Illustrator 28.0.0, SVG Export Plug-In . SVG Version: 6.00 Build 0)  -->
<svg version="1.1" id="Layer_1" xmlns="http://www.w3.org/2000/svg" xmlns:xlink="http://www.w3.org/1999/xlink" x="0px" y="0px"
	 viewBox="0 0 300 300" style="enable-background:new 0 0 300 300;" xml:space="preserve">
<style type="text/css">
	.st0{fill:#FFFFFF;}
</style>
<path class="st0" d="M169.6,258.9c6.1-4.4,12.3-8.8,18.5-13c12.6-8.6,24.6-17.9,37.2-25.9c5.7-3.6,11.3-7.2,16.9-10.7
	c0.3-0.2,0.5-0.4,0.7-0.7v-58.7c-0.1,0.1-0.3,0.1-0.4,0.2c-0.2,0.2-0.5,0.3-0.7,0.5c-9.1,6-17.9,12.4-26.9,18.6
	c-11.9,8.2-23.7,16.3-35.2,24c-1.5,1-3.2,2.1-5,3.2c0,0,0,0-0.1,0c-0.1,0-0.2-0.1-0.2-0.2c-0.4-3.9-0.7-7.8-0.7-11.6
	c-0.1-10.5-0.1-21.9,0.1-34.2l0.3-41.2c0-14-0.1-28,0-42c0.1-11.7-0.1-23.4-0.7-35.1c0-0.2-0.1-0.4-0.2-0.6l-46.9,0.7
	c0.1,1.1,0.1,3.2,0.1,6.3c0,4.8-0.3,9.9-0.3,14.5c-0.1,48.8,0.2,82.5,0.2,131.6c0,1.8-0.1,3.8-0.3,6c0,0.2-0.1,0.3-0.3,0.2
	c-1.7-0.5-2.9-1-3.6-1.6c-6.1-4.6-12.5-8.7-18.4-12.9c-7.6-5.5-15.7-10.7-23.4-16.1c-5.7-4-11.6-8.2-17.7-12.6c-2-1.4-3.7-3-5.8-4.3
	v59.5c0.9,1.5,2.2,2.9,4.2,4.1c10.5,6.4,20.8,12.9,31.1,19.6c4,2.6,7.9,5.3,11.8,8.1c2,1.5,3.8,2.8,5.3,3.8
	c4.5,3.1,8.8,6.3,13.4,9.3c3.2,2.1,6.2,4.6,9.5,6.7c2.5,1.6,4.9,3.2,7.2,5c3.8,2.9,7.9,5.6,12.3,8.2c2.3,1.3,4.8,0.4,6.7-1
	C162.1,264.1,165.9,261.5,169.6,258.9z"/>
</svg>
