<?xml version="1.0" encoding="utf-8"?>
<!-- Generator: Adobe Illustrator 28.0.0, SVG Export Plug-In . SVG Version: 6.00 Build 0)  -->
<svg version="1.1" id="Layer_1" xmlns="http://www.w3.org/2000/svg" xmlns:xlink="http://www.w3.org/1999/xlink" x="0px" y="0px"
	 viewBox="0 0 300 300" style="enable-background:new 0 0 300 300;" xml:space="preserve">
<style type="text/css">
	.st0{fill:#303D74;}
	.st1{fill:#F66317;}
</style>
<g>
	<path class="st0" d="M145.6,143.8h8.5c3.5,0,6.6,1.6,8.7,4.2c15.4,0,27-3.8,33-8c1.1-3.9,1.6-8.1,1.6-12.4v-18.5
		c0-12.2-4.6-23.4-12.2-31.8c-4.3-4.8-9.6-8.7-15.6-11.4c-6-2.7-12.6-4.2-19.6-4.2c-14.1,0-26.8,6.2-35.5,15.9
		c-7.4,8.4-11.9,19.4-11.9,31.5v18.5c0,11.4,4,21.8,10.7,30c8.7,10.7,21.9,17.5,36.8,17.5c13.6,0,25.9-5.8,34.6-15
		c0.2-0.2,0.4-0.5,0.7-0.7c-6.7,1.6-14.3,2.5-22.5,2.6c-2,2.6-5.2,4.2-8.7,4.2h-8.5c-6.1,0-11.2-5-11.2-11.2
		C134.4,148.8,139.4,143.8,145.6,143.8z"/>
	<g>
		<path class="st1" d="M93.6,138.7L93.6,138.7c2.3,0,4.1-1.8,4.1-4.1V103c0.8-28.2,23.9-50.8,52.3-50.8c27.9,0,50.8,22,52.3,49.6
			v32.8c0,1.1,0.5,2.1,1.2,2.9c-4,8.1-21.2,14.4-41,14.4h-1.9c-1.1-2.5-3.6-4.2-6.5-4.2h-8.5c-4,0-7.2,3.2-7.2,7.2
			c0,4,3.2,7.2,7.2,7.2h8.5c2.9,0,5.4-1.7,6.5-4.2h1.9c24.1,0,43-8.1,47.1-19.4c10-1.5,17.6-10.1,17.6-20.5v-4.6
			c0-9.8-6.8-17.9-15.9-20.1c-5.3-29-30.7-51-61.3-51c-30.5,0-55.9,22-61.3,51c-9.1,2.2-15.9,10.4-15.9,20.1v4.6
			C72.8,129.4,82.1,138.7,93.6,138.7z"/>
	</g>
	<path class="st0" d="M244.8,241.8c-8.5-43-50.2-61.6-69-67.9c-7.4,4.8-16.3,7.6-25.8,7.6c-9.5,0-18.4-2.8-25.8-7.6
		c-18.8,6.3-60.5,24.9-69,67.9c-0.6,3.2,0,6.4,1.4,9c2.3,4.1,6.6,6.9,11.7,6.9h163.2c4.3,0,8-2,10.5-5
		C244.4,249.8,245.6,245.9,244.8,241.8z"/>
</g>
</svg>
