<?xml version="1.0" encoding="UTF-8"?>
<svg id="Layer_1" data-name="Layer 1" xmlns="http://www.w3.org/2000/svg" viewBox="0 0 235.19 166.4">
  <defs>
    <style>
      .cls-1 {
        fill: #303d74;
        stroke-width: 0px;
      }
    </style>
  </defs>
  <path class="cls-1" d="m70.65,48.34l.41,3.78c.69,6.34,4.8,11.8,10.74,14.24l.05.02h.03c2.12.88,4.36,1.32,6.64,1.32,3.95,0,7.82-1.36,10.89-3.83l2.96-2.38,2.56,2.56-2.38,2.96c-3.98,4.94-4.94,11.66-2.51,17.56.02.05.04.1.06.14,2.45,5.89,7.89,9.97,14.2,10.65l3.77.41v3.62l-3.77.41c-6.33.68-11.77,4.78-14.21,10.67l-.05.12v.04c-2.42,5.89-1.45,12.59,2.51,17.52l2.38,2.96-2.56,2.56-2.96-2.38c-3.07-2.47-6.94-3.83-10.89-3.83-2.3,0-4.55.45-6.68,1.32h0s0,0,0,0h-.03c-5.94,2.45-10.05,7.9-10.74,14.25l-.41,3.78h-3.62l-.41-3.78c-.69-6.34-4.8-11.8-10.74-14.24l-.07-.03h-.01c-2.12-.87-4.35-1.31-6.64-1.31-3.95,0-7.82,1.36-10.89,3.83l-2.96,2.38-2.56-2.56,2.38-2.96c3.98-4.95,4.94-11.7,2.5-17.6l-.03-.08-.02-.05c-2.46-5.87-7.89-9.94-14.19-10.62l-3.77-.41v-3.62l3.77-.41c6.33-.68,11.77-4.78,14.22-10.7h0l.02-.04c2.45-5.91,1.5-12.66-2.49-17.62l-2.38-2.96,2.56-2.56,2.96,2.38c3.07,2.47,6.94,3.83,10.89,3.83,2.3,0,4.55-.45,6.68-1.32h0s.01,0,.01,0h.02c5.94-2.44,10.05-7.9,10.74-14.24l.41-3.78h3.62m-1.81,71.92c12.52,0,22.7-10.18,22.7-22.7s-10.18-22.7-22.7-22.7-22.7,10.18-22.7,22.7,10.18,22.7,22.7,22.7m9.68-85h-19.36c-2.2,0-4.05,1.66-4.28,3.84l-1.26,11.61c-.17,1.59-1.22,2.94-2.7,3.54-.02,0-.03.01-.05.02-.55.23-1.13.34-1.7.34-.96,0-1.92-.32-2.69-.94l-9.1-7.32c-.79-.64-1.75-.95-2.7-.95-1.11,0-2.21.43-3.05,1.26l-13.69,13.69c-1.56,1.56-1.69,4.03-.31,5.75l7.31,9.09c1,1.24,1.21,2.93.6,4.4,0,.02-.01.04-.02.05-.61,1.48-1.95,2.52-3.54,2.69l-11.6,1.26c-2.19.24-3.84,2.08-3.84,4.28v19.36c0,2.2,1.66,4.05,3.84,4.28l11.6,1.26c1.59.17,2.93,1.22,3.54,2.69,0,.02.01.04.02.05.61,1.47.4,3.16-.6,4.41l-7.31,9.09c-1.38,1.71-1.25,4.19.31,5.75l13.69,13.69c.84.84,1.94,1.26,3.05,1.26.95,0,1.91-.31,2.7-.95l9.09-7.32c.78-.63,1.73-.94,2.69-.94.57,0,1.15.11,1.7.34.02,0,.03.01.05.02,1.48.61,2.53,1.95,2.7,3.54l1.26,11.61c.24,2.19,2.08,3.84,4.28,3.84h19.36c2.2,0,4.05-1.66,4.28-3.84l1.26-11.61c.17-1.59,1.22-2.94,2.7-3.54.02,0,.03-.01.05-.02.55-.23,1.13-.34,1.7-.34.96,0,1.91.32,2.69.94l9.09,7.32c.79.64,1.75.95,2.7.95,1.11,0,2.21-.43,3.05-1.26l13.69-13.69c1.56-1.56,1.69-4.03.31-5.75l-7.31-9.09c-1-1.24-1.21-2.93-.6-4.41,0-.02.01-.03.02-.05.61-1.48,1.95-2.52,3.54-2.69l11.6-1.26c2.19-.24,3.84-2.08,3.84-4.28v-19.36c0-2.2-1.66-4.05-3.84-4.28l-11.6-1.26c-1.59-.17-2.93-1.22-3.54-2.69,0-.02-.01-.04-.02-.05-.61-1.47-.4-3.16.6-4.4l7.31-9.09c1.38-1.71,1.25-4.19-.31-5.75l-13.69-13.69c-.84-.84-1.94-1.26-3.05-1.26-.95,0-1.91.31-2.7.95l-9.09,7.32c-.78.63-1.73.94-2.69.94-.57,0-1.15-.11-1.7-.34-.02,0-.03-.01-.05-.02-1.48-.61-2.53-1.95-2.7-3.54l-1.26-11.61c-.24-2.19-2.08-3.84-4.28-3.84h0Zm-9.68,71.92c-5.31,0-9.62-4.31-9.62-9.62s4.31-9.62,9.62-9.62,9.62,4.31,9.62,9.62-4.31,9.62-9.62,9.62h0Z"/>
  <path class="cls-1" d="m170.12,17.18l1.17,2.8c1.96,4.71,6.35,7.96,11.45,8.49h.07s.01,0,.01,0c.47.05.94.07,1.4.07,4.58,0,8.86-2.23,11.45-5.97l1.73-2.5,2.54,1.38-1.15,2.8c-1.93,4.69-1.15,10.05,2.04,14.03l.05.06.05.06c2.67,3.28,6.61,5.16,10.81,5.16.83,0,1.66-.07,2.47-.22l2.98-.54.82,2.77-2.8,1.17c-4.7,1.96-7.95,6.33-8.48,11.39v.12s-.02.04-.02.04c-.5,5.05,1.75,9.97,5.91,12.85l2.49,1.73-1.38,2.54-2.81-1.16c-1.68-.69-3.46-1.04-5.28-1.04-3.17,0-6.28,1.1-8.77,3.1h0s-.02.02-.02.02c-4,3.21-5.92,8.32-5.01,13.34l.54,2.99-2.77.82-1.17-2.8c-1.96-4.71-6.35-7.96-11.48-8.49-.48-.05-.97-.08-1.46-.08-4.58,0-8.86,2.23-11.45,5.97l-1.73,2.5-2.54-1.38,1.15-2.8c1.93-4.7,1.14-10.08-2.07-14.06l-.04-.05-.03-.03c-2.67-3.28-6.61-5.16-10.81-5.16-.83,0-1.66.07-2.47.22l-2.98.54-.82-2.77,2.8-1.17c4.68-1.95,7.93-6.31,8.48-11.38v-.04s0-.05,0-.05c.54-5.08-1.72-10.03-5.9-12.93l-2.49-1.73,1.38-2.54,2.81,1.16c1.68.69,3.46,1.04,5.28,1.04,3.17,0,6.28-1.1,8.79-3.12,4-3.21,5.92-8.32,5.01-13.34l-.54-2.99,2.77-.82m9.75,56.29c1.74,0,3.47-.25,5.14-.74,9.6-2.83,15.1-12.94,12.27-22.54-2.26-7.66-9.42-13.01-17.4-13.01-1.74,0-3.47.25-5.14.74-9.6,2.83-15.1,12.94-12.27,22.54,2.26,7.66,9.42,13.01,17.4,13.01m-5.69-68.24c-.32,0-.65.05-.98.14l-14.85,4.38c-1.69.5-2.73,2.19-2.41,3.92l1.66,9.18c.23,1.26-.27,2.53-1.27,3.33-.01,0-.02.02-.03.03-.64.51-1.42.79-2.21.79-.44,0-.88-.08-1.3-.26l-8.63-3.55c-.43-.18-.87-.26-1.31-.26-1.23,0-2.41.66-3.03,1.8l-7.4,13.6c-.84,1.54-.38,3.47,1.06,4.48l7.66,5.31c1.05.73,1.59,1.97,1.46,3.24,0,.02,0,.03,0,.05-.13,1.27-.93,2.37-2.1,2.86l-8.61,3.59c-1.62.68-2.48,2.47-1.98,4.15l4.38,14.85c.44,1.49,1.8,2.47,3.3,2.47.2,0,.41-.02.62-.06l9.18-1.66c.2-.04.4-.05.61-.05,1.05,0,2.04.48,2.72,1.32,0,.01.02.02.03.04.8.99,1.02,2.33.54,3.51l-3.55,8.62c-.67,1.63,0,3.5,1.54,4.34l13.6,7.4c.52.28,1.09.42,1.64.42,1.1,0,2.17-.52,2.83-1.48l5.32-7.67c.65-.94,1.73-1.48,2.86-1.48.12,0,.25,0,.37.02.01,0,.03,0,.04,0,1.27.13,2.38.92,2.87,2.11l3.59,8.61c.55,1.31,1.82,2.12,3.18,2.12.32,0,.65-.05.98-.14l14.85-4.38c1.69-.5,2.73-2.19,2.41-3.92l-1.66-9.18c-.23-1.26.27-2.53,1.27-3.33.01,0,.02-.02.03-.03.64-.51,1.42-.79,2.21-.79.44,0,.88.08,1.3.26l8.63,3.55c.43.18.87.26,1.31.26,1.23,0,2.41-.66,3.03-1.8l7.4-13.6c.84-1.54.38-3.47-1.06-4.48l-7.66-5.31c-1.05-.73-1.59-1.97-1.46-3.24,0-.01,0-.03,0-.05.13-1.27.93-2.37,2.1-2.86l8.61-3.59c1.62-.68,2.48-2.47,1.98-4.15l-4.38-14.85c-.44-1.49-1.8-2.47-3.3-2.47-.2,0-.41.02-.62.06l-9.18,1.66c-.2.04-.4.05-.61.05-1.05,0-2.04-.48-2.72-1.32,0-.01-.02-.02-.03-.04-.8-.99-1.02-2.33-.54-3.51l3.55-8.62c.67-1.63,0-3.5-1.54-4.34l-13.6-7.4c-.52-.28-1.09-.42-1.64-.42-1.1,0-2.17.52-2.83,1.48l-5.32,7.67c-.65.94-1.73,1.48-2.86,1.48-.12,0-.25,0-.37-.02-.01,0-.03,0-.04,0-1.27-.13-2.38-.92-2.87-2.11l-3.59-8.61c-.55-1.31-1.82-2.12-3.18-2.12h0Zm5.69,57.79c-3.32,0-6.38-2.17-7.37-5.52-1.2-4.07,1.13-8.35,5.2-9.55.73-.21,1.46-.32,2.18-.32,3.32,0,6.38,2.17,7.37,5.52,1.2,4.07-1.13,8.35-5.2,9.55-.73.21-1.46.32-2.18.32h0Z"/>
</svg>