<?xml version="1.0" encoding="utf-8"?>
<!-- Generator: Adobe Illustrator 28.0.0, SVG Export Plug-In . SVG Version: 6.00 Build 0)  -->
<svg version="1.1" id="Layer_1" xmlns="http://www.w3.org/2000/svg" xmlns:xlink="http://www.w3.org/1999/xlink" x="0px" y="0px"
	 viewBox="0 0 300 300" style="enable-background:new 0 0 300 300;" xml:space="preserve">
<style type="text/css">
	.st0{fill:#303D74;}
	.st1{fill:#F66317;}
</style>
<g>
	<g>
		<path class="st0" d="M129.2,48.1c-41,0-74.3,34.2-74.3,76.2c0,37.8,29.1,67.4,59.9,98.8c2.6,2.6,5.2,5.3,7.8,7.9
			c1.7,1.8,4.2,2.8,6.6,2.8c2.5,0,4.9-1,6.7-2.8c2.6-2.7,5.2-5.3,7.8-7.9c3.5-3.6,7-7.1,10.4-10.6c1.8-1.9,3.6-3.7,5.3-5.6
			c-2.2-2.1-4.1-4.5-5.8-7.1c-1.9-2.9-3.3-6.1-4.2-9.3c-2,2.1-4,4.2-6,6.4c-4.2,4.4-8.5,8.8-13,13.4c-0.4,0.4-0.8,0.8-1.2,1.2
			c-0.4-0.4-0.8-0.8-1.2-1.2c-29.3-29.9-54.6-55.7-54.6-85.8c0-31.8,25-57.6,55.7-57.6c30.7,0,55.7,25.8,55.7,57.6
			c0,3.8-0.4,7.5-1.2,11.2c-0.5,2.7-1.3,5.3-2.2,7.9c1.1-0.1,2.1-0.1,3.2-0.1c2.8,0,5.6,0.3,8.4,1c2.4,0.6,4.7,1.3,7,2.3
			c0.8-2.5,1.4-5,1.9-7.6c1-4.7,1.5-9.6,1.5-14.6C203.5,82.2,170.2,48.1,129.2,48.1z"/>
		<g>
			<path class="st1" d="M150.5,106.5l-30.6,30.6l-12-12c-3.6-3.6-9.5-3.6-13.1,0c-3.6,3.6-3.6,9.5,0,13.1l18.6,18.6
				c1.7,1.7,4.1,2.7,6.6,2.7c2.5,0,4.8-1,6.6-2.7l37.1-37.2c3.6-3.6,3.6-9.5,0-13.1C160,102.9,154.1,102.9,150.5,106.5z"/>
		</g>
	</g>
	<g>
		<path class="st1" d="M244.4,238.3l-24.9-30c4.3-5.2,7.3-11.4,8.9-18.2c2.7-11.6,0.7-23.6-5.7-33.7c-5-8-12.2-14-20.7-17.5
			c-2.3-1-4.7-1.7-7.2-2.3c-3.7-0.8-7.4-1.2-11.1-1.1c-7.9,0.2-15.7,2.5-22.6,6.8c-10.1,6.3-17.2,16.2-19.8,27.9
			c-2.1,9-1.3,18.2,2,26.6c1,2.4,2.2,4.8,3.6,7.1c2,3.2,4.4,6.1,7,8.6c5.7,5.5,12.9,9.4,20.8,11.2c3.4,0.8,6.8,1.2,10.1,1.2
			c6.6,0,13.2-1.5,19.2-4.4l25.2,30.4c1.1,1.3,3.1,1.5,4.4,0.4l10.2-8.5C245.3,241.6,245.5,239.7,244.4,238.3z M204.5,211.4
			c-8.4,5.2-18.3,6.9-27.9,4.7c-6.6-1.5-12.5-4.7-17.2-9.3c-2.2-2.1-4.1-4.5-5.8-7.1c-1.9-2.9-3.3-6.1-4.2-9.3
			c-1.7-6-1.9-12.3-0.5-18.5c2.2-9.6,8-17.8,16.4-23c5-3.2,10.6-5,16.3-5.5c1.1-0.1,2.1-0.1,3.2-0.1c2.8,0,5.6,0.3,8.4,1
			c2.4,0.6,4.7,1.3,7,2.3c6.6,3,12.1,7.8,16.1,14.1c5.2,8.4,6.9,18.3,4.7,27.9C218.6,198,212.8,206.2,204.5,211.4z"/>
	</g>
</g>
</svg>
