<?xml version="1.0" encoding="utf-8"?>
<!-- Generator: Adobe Illustrator 28.0.0, SVG Export Plug-In . SVG Version: 6.00 Build 0)  -->
<svg version="1.1" id="Layer_1" xmlns="http://www.w3.org/2000/svg" xmlns:xlink="http://www.w3.org/1999/xlink" x="0px" y="0px"
	 viewBox="0 0 300 300" style="enable-background:new 0 0 300 300;" xml:space="preserve">
<style type="text/css">
	.st0{fill-rule:evenodd;clip-rule:evenodd;fill:#303D74;}
	.st1{fill:#F66317;}
</style>
<g>
	<g id="Page-1">
		<g id="Dribbble-Light-Preview" transform="translate(-103.000000, -7321.000000)">
			<g id="icons" transform="translate(56.000000, 160.000000)">
				<path id="call-_x5B__x23_192_x5D_" class="st0" d="M285,7379.7c-5.8,17.6-28.4,26.3-44.6,24.9c-22.1-2-46.2-13.7-64.4-26.6
					c-26.8-19-52-48.4-66.6-79.5c-10.4-22-12.7-49.1,2.7-69.2c5.7-7.4,11.9-11.4,21.1-11.8c12.8-0.6,14.6,6.7,19.1,18.2
					c3.3,8.6,7.7,17.3,10.1,26.2c4.6,16.6-11.4,17.2-13.5,30.8c-1.3,8.5,9.1,20,13.8,26.1c9.2,11.9,20.2,22.2,32.6,30
					c7.1,4.5,18.6,12.6,26.7,8.1c12.5-6.9,11.4-28,28.9-20.9c9.1,3.7,17.9,9,26.5,13.7C290.7,7356.7,290.1,7364.1,285,7379.7
					C281.2,7391.2,288.8,7368.1,285,7379.7"/>
			</g>
		</g>
	</g>
	<g>
		<path class="st1" d="M225.6,59.8l-39.3,39.3l-15.4-15.4c-4.7-4.7-12.2-4.7-16.9,0c-4.7,4.7-4.7,12.2,0,16.9l23.9,23.9
			c2.2,2.2,5.3,3.5,8.4,3.5c3.2,0,6.2-1.3,8.4-3.5l47.8-47.8c4.7-4.7,4.7-12.2,0-16.9C237.8,55.1,230.3,55.1,225.6,59.8z"/>
	</g>
</g>
</svg>
