<?xml version="1.0" encoding="utf-8"?>
<!-- Generator: Adobe Illustrator 28.0.0, SVG Export Plug-In . SVG Version: 6.00 Build 0)  -->
<svg version="1.1" id="Layer_1" xmlns="http://www.w3.org/2000/svg" xmlns:xlink="http://www.w3.org/1999/xlink" x="0px" y="0px"
	 viewBox="0 0 300 300" style="enable-background:new 0 0 300 300;" xml:space="preserve">
<style type="text/css">
	.st0{fill:#303D74;}
</style>
<g>
	<path class="st0" d="M149.7,182.6c-30.3,0.1-55.6,21.3-62.1,49.6l-0.1,0.4c-0.1,0.5-0.2,1-0.2,1.6c0,4.2,3.4,7.5,7.5,7.5
		c3.6,0,6.6-2.5,7.3-5.9l0,0c5-22,24.3-38.2,47.5-38.2s42.5,16.2,47.4,37.9l0.1,0.3c0.8,3.4,3.8,5.9,7.3,5.9c4.2,0,7.5-3.4,7.5-7.5
		c0-0.6-0.1-1.1-0.2-1.7l0,0C205.3,203.8,180,182.7,149.7,182.6L149.7,182.6L149.7,182.6z M108.6,120.5L108.6,120.5
		c17.2,0,31.1-13.9,31.1-31.1s-13.9-31.1-31.1-31.1c-17.2,0-31.1,13.9-31.1,31.1l0,0C77.5,106.6,91.4,120.5,108.6,120.5L108.6,120.5
		L108.6,120.5z M108.6,73.3L108.6,73.3c8.9,0,16.1,7.2,16.1,16.1s-7.2,16.1-16.1,16.1s-16.1-7.2-16.1-16.1l0,0
		C92.5,80.5,99.7,73.3,108.6,73.3L108.6,73.3z M191.4,120.5c17.2,0,31.1-13.9,31.1-31.1s-13.9-31.1-31.1-31.1
		c-17.2,0-31.1,13.9-31.1,31.1l0,0C160.3,106.6,174.2,120.5,191.4,120.5L191.4,120.5L191.4,120.5z M191.4,73.3
		c8.9,0,16.1,7.2,16.1,16.1s-7.2,16.1-16.1,16.1s-16.1-7.2-16.1-16.1l0,0C175.3,80.5,182.5,73.3,191.4,73.3L191.4,73.3z
		 M241.8,172.5c-5.2-24.7-26.8-43-52.7-43c-2.4,0-4.7,0.2-7,0.5l0.3,0c-5.6-12.7-18.1-21.5-32.6-21.5c-14.5,0-27,8.7-32.5,21.2
		l-0.1,0.2c-1.6-0.2-3.5-0.3-5.4-0.4h-0.1c-26,0.1-47.8,18.3-53.4,42.6l-0.1,0.4c-0.1,0.5-0.2,1-0.2,1.6c0,4.2,3.4,7.5,7.5,7.5
		c3.6,0,6.6-2.5,7.3-5.9l0,0c4.1-17.9,19.9-31.1,38.8-31.2h0c0.9,0,1.7,0.1,2.5,0.2c0.3,19.4,16.1,34.9,35.5,34.9
		c19.4,0,35.2-15.5,35.5-34.9v0c1-0.1,2-0.2,3.1-0.2c18.9,0.1,34.7,13.3,38.7,30.9l0.1,0.3c0.8,3.4,3.8,5.9,7.3,5.9
		c4.2,0,7.5-3.4,7.5-7.5C242,173.5,241.9,173,241.8,172.5L241.8,172.5L241.8,172.5z M149.7,164.5
		C149.7,164.5,149.7,164.5,149.7,164.5c-11.4,0-20.6-9.2-20.6-20.6s9.2-20.6,20.6-20.6s20.6,9.2,20.6,20.6c0,0,0,0,0,0l0,0
		C170.3,155.3,161.1,164.5,149.7,164.5L149.7,164.5z"/>
</g>
</svg>
