<?xml version="1.0" encoding="utf-8"?>
<!-- Generator: Adobe Illustrator 28.0.0, SVG Export Plug-In . SVG Version: 6.00 Build 0)  -->
<svg version="1.1" id="Layer_1" xmlns="http://www.w3.org/2000/svg" xmlns:xlink="http://www.w3.org/1999/xlink" x="0px" y="0px"
	 viewBox="0 0 300 300" style="enable-background:new 0 0 300 300;" xml:space="preserve">
<style type="text/css">
	.st0{fill:#303D74;}
</style>
<g>
	<path class="st0" d="M234.3,238.4c-24,16.5-53,26.1-84.3,26.1s-60.3-9.6-84.3-26.1c-10.6-7.3-15.1-21.1-9-32.4
		c12.8-23.4,39-37.9,93.2-37.9c54.2,0,80.5,14.6,93.2,37.9C249.4,217.3,244.8,231.1,234.3,238.4z"/>
	<path class="st0" d="M150,141.7c29,0,52.6-23.5,52.6-52.6c0-29-23.5-52.6-52.6-52.6c-29,0-52.6,23.5-52.6,52.6
		C97.4,118.1,121,141.7,150,141.7z"/>
</g>
</svg>
