<?xml version="1.0" encoding="utf-8"?>
<!-- Generator: Adobe Illustrator 28.0.0, SVG Export Plug-In . SVG Version: 6.00 Build 0)  -->
<svg version="1.1" id="Layer_1" xmlns="http://www.w3.org/2000/svg" xmlns:xlink="http://www.w3.org/1999/xlink" x="0px" y="0px"
	 viewBox="0 0 300 300" style="enable-background:new 0 0 300 300;" xml:space="preserve">
<style type="text/css">
	.st0{fill:#FFFFFF;}
</style>
<g id="Icons1">
	<g id="Strike">
	</g>
	<g id="H1">
	</g>
	<g id="H2">
	</g>
	<g id="H3">
	</g>
	<g id="list-ul">
	</g>
	<g id="hamburger-1">
	</g>
	<g id="hamburger-2">
	</g>
	<g id="list-ol">
	</g>
	<g id="list-task">
	</g>
	<g id="trash">
	</g>
	<g id="vertical-menu">
	</g>
	<g id="horizontal-menu">
	</g>
	<g id="sidebar-2">
	</g>
	<g id="Pen">
	</g>
	<g id="Pen1">
	</g>
	<g id="clock">
	</g>
	<g id="external-link">
	</g>
	<g id="hr">
	</g>
	<g id="info">
	</g>
	<g id="warning">
	</g>
	<g id="plus-circle">
	</g>
	<g id="minus-circle">
	</g>
	<g id="vue">
	</g>
	<g id="cog">
	</g>
	<g id="logo">
	</g>
	<g id="star-empty" transform="matrix(1.05152,0,0,1.05152,460.558,-59.6026)">
		<path class="st0" d="M-270.93,173.47h88.01l-71.19,51.73l27.19,83.7l-71.2-51.73l-71.2,51.73l27.19-83.7l-71.19-51.73h88.01
			l27.19-83.7C-289.06,117.67-279.99,145.57-270.93,173.47z M-298.12,152.31v80.97l34.44,25.02l-13.16-40.49l34.44-25.02h-42.57
			L-298.12,152.31z"/>
	</g>
	<g id="radio-check">
	</g>
	<g id="eye-slash">
	</g>
	<g id="eye">
	</g>
	<g id="toggle-off">
	</g>
	<g id="shredder">
	</g>
	<g id="spinner--loading--dots-">
	</g>
	<g id="react">
	</g>
	<g id="check-selected">
	</g>
	<g id="turn-off">
	</g>
	<g id="code-block">
	</g>
	<g id="user">
	</g>
	<g id="coffee-bean">
	</g>
	<g transform="matrix(0.638317,0.368532,-0.368532,0.638317,785.021,-208.975)">
		<g id="coffee-beans">
			<g id="coffee-bean1">
			</g>
		</g>
	</g>
	<g id="coffee-bean-filled">
	</g>
	<g transform="matrix(0.638317,0.368532,-0.368532,0.638317,913.062,-208.975)">
		<g id="coffee-beans-filled">
			<g id="coffee-bean2">
			</g>
		</g>
	</g>
	<g id="clipboard">
	</g>
	<g transform="matrix(1,0,0,1,128.011,1.35415)">
		<g id="clipboard-paste">
		</g>
	</g>
	<g id="clipboard-copy">
	</g>
	<g id="Layer1">
	</g>
</g>
</svg>
