<?xml version="1.0" encoding="utf-8"?>
<!-- Generator: Adobe Illustrator 28.0.0, SVG Export Plug-In . SVG Version: 6.00 Build 0)  -->
<svg version="1.1" id="Layer_1" xmlns="http://www.w3.org/2000/svg" xmlns:xlink="http://www.w3.org/1999/xlink" x="0px" y="0px"
	 viewBox="0 0 300 300" style="enable-background:new 0 0 300 300;" xml:space="preserve">
<style type="text/css">
	.st0{fill-rule:evenodd;clip-rule:evenodd;fill:#FFFFFF;}
</style>
<path class="st0" d="M78.79,31.3c-26.3,0-47.63,21.32-47.63,47.63v142.89c0,26.3,21.32,47.63,47.63,47.63h142.89
	c26.3,0,47.63-21.32,47.63-47.63V78.93c0-26.3-21.32-47.63-47.63-47.63H78.79z M54.98,78.93c0-13.15,10.66-23.81,23.81-23.81h142.89
	c13.15,0,23.81,10.66,23.81,23.81v142.89c0,13.15-10.66,23.81-23.81,23.81H78.79c-13.15,0-23.81-10.66-23.81-23.81V78.93z
	 M114.52,138.47c0-6.58-5.33-11.91-11.91-11.91c-6.58,0-11.91,5.33-11.91,11.91v71.44c0,6.58,5.33,11.91,11.91,11.91
	c6.58,0,11.91-5.33,11.91-11.91V138.47z M120.47,96.79c0,9.86-8,17.86-17.86,17.86s-17.86-8-17.86-17.86s8-17.86,17.86-17.86
	S120.47,86.93,120.47,96.79z M150.24,126.56c4.04,0,7.61,2.01,9.77,5.1c6.1-3.31,12.9-5.1,20-5.1c25.71,0,41.68,22.93,41.68,42.53
	v0.09v0.09v0.09v0.09v0.09v0.09v0.09v0.09v0.09V170v0.09v0.09v0.09v0.09v0.09v0.09v0.09v0.09v0.09v0.09v0.1v0.09v0.09v0.1v0.09v0.1
	v0.1v0.1v0.1v0.1v0.1v0.1v0.1v0.1v0.1v0.1v0.1v0.1v0.1v0.1v0.1v0.1v0.1v0.1v0.1v0.1v0.1v0.1v0.1v0.1v0.1v0.1v0.1v0.1v0.1v0.1v0.1
	v0.1v0.1v0.1v0.1v0.1v0.1v0.1v0.1v0.1v0.1v0.1v0.1v0.1v0.1v0.1v0.1v0.1v0.1v0.1v0.1v0.1v0.1v0.1v0.1v0.1v0.1v0.1v0.1v0.1v0.1v0.1
	v0.1v0.1v0.1v0.1v0.1v0.1v0.1v0.1v0.1v0.1v0.1v0.1v0.1v0.11v0.1v0.11v0.1v0.11v0.1v0.11v0.11v0.11v0.1v0.11v0.11v0.11v0.11v0.11
	v0.11v0.11v0.11v0.11v0.11v0.11v0.11v0.11v0.11v0.11v0.11v0.11v0.11v0.11v0.11v0.11v0.11v0.11v0.11v0.11v0.11v0.11v0.11v0.11v0.11
	v0.11v0.11v0.11v0.11v0.11v0.11v0.11v0.11v0.11v0.11v0.11v0.11v0.11v0.11v0.11v0.11v0.11v0.11v0.11v0.11v0.11v0.11v0.11v0.11v0.11
	v0.11v0.11v0.11v0.11v0.11v0.11v0.11v0.11v0.11v0.11v0.11v0.11v0.11v0.11v0.11v0.11v0.11v0.1v0.11v0.11v0.1v0.11v0.1v0.11v0.1v0.11
	v0.1v0.1v0.1v0.1v0.1v0.1v0.1v0.1v0.1v0.1v0.1v0.1v0.1v0.1v0.1v0.1v0.1v0.1v0.1v0.1v0.1v0.1v0.1v0.1v0.1v0.1v0.1v0.1v0.1v0.1v0.1
	v0.1v0.1v0.1v0.1v0.1v0.1v0.1v0.1v0.1v0.1v0.1v0.1v0.1v0.1v0.1v0.1v0.1v0.1v0.1v0.1v0.1v0.1v0.1v0.1v0.1v0.1v0.1v0.1v0.1v0.1v0.1
	v0.1v0.1v0.1v0.1v0.1v0.1v0.1v0.1v0.1v0.1v0.1v0.1v0.1v0.1v0.1v0.09v0.09v0.1v0.09v0.09v0.09v0.09v0.09v0.09v0.09v0.09v0.09v0.09
	v0.09v0.09v0.09v0.09v0.09v0.09v0.09v0.09v0.09v0.09v0.09v0.09v0.09v0.09v0.09v0.09v0.09v0.09v0.09v0.09v0.09v0.09v0.09v0.09v0.09
	v0.09v0.09v0.09v0.09v0.08v0.08v0.08v0.08v0.08v0.08v0.08v0.08v0.08v0.08v0.08v0.08v0.08v0.08v0.08v0.08v0.08v0.08v0.08v0.08V202
	v0.08v0.08v0.08v0.08v0.08v0.08v0.08v0.08v0.08v0.08v0.08v0.08v0.08v0.08v0.08v0.07v0.07v0.07v0.07v0.07v0.07v0.07v0.07v0.07v0.07
	v0.07v0.07v0.07v0.07v0.07v0.07v0.07v0.07v0.07v0.07v0.07v0.07v0.07v0.07v0.07v0.07v0.07v0.07v0.06v0.07v0.06v0.06v0.06v0.06v0.06
	v0.06v0.06v0.06v0.06v0.06v0.06v0.06v0.06v0.06v0.06v0.06v0.06v0.06v0.06v0.06v0.06v0.06v0.06v0.05v0.05v0.05v0.05v0.05v0.05V207
	v0.05v0.05v0.05v0.05v0.05v0.05v0.05v0.05v0.05v0.05v0.05v0.05v0.05v0.05v0.05v0.05v0.05v0.05v0.04v0.04v0.04v0.04v0.04v0.04v0.04
	v0.04v0.04v0.04v0.04v0.04v0.04v0.04v0.04v0.04v0.04v0.04v0.04v0.04v0.04v0.03v0.03v0.03v0.03v0.03v0.03v0.03v0.03v0.03v0.03v0.03
	v0.03v0.03v0.03v0.03v0.03v0.03v0.03v0.02v0.03v0.03v0.02v0.02v0.02v0.02v0.02v0.02v0.02v0.02v0.02v0.02v0.02v0.02v0.02v0.02v0.02
	v0.02v0.02v0.02v0.01v0.01v0.01v0.01v0.01v0.01v0.01v0.01v0.01v0.01v0.01v0.01v0.01v0.01v0.01v0.01v0.01v0v0v0v0v0v0v0v0v0l0,0
	c0,6.58-5.33,11.91-11.91,11.91c-6.58,0-11.91-5.33-11.91-11.91l0,0v0v0v0v0v0v0v0v0v0v-0.01v-0.01v-0.01v-0.01v-0.01v-0.01v-0.01
	v-0.01v-0.01v-0.01v-0.01v-0.01v-0.01v-0.01v-0.01v-0.01v-0.01v-0.02v-0.02v-0.02v-0.02v-0.02v-0.02v-0.02v-0.02v-0.02v-0.02v-0.02
	v-0.02v-0.02v-0.02v-0.02v-0.02v-0.02v-0.02v-0.03v-0.03v-0.02v-0.03v-0.03v-0.03v-0.03v-0.03v-0.03v-0.03v-0.03v-0.03v-0.03v-0.03
	v-0.03v-0.03v-0.03v-0.03v-0.03v-0.03v-0.03v-0.04v-0.04v-0.04v-0.04v-0.04v-0.04v-0.04v-0.04v-0.04v-0.04v-0.04v-0.04v-0.04v-0.04
	v-0.04v-0.04v-0.04v-0.04v-0.04v-0.04v-0.04v-0.05v-0.05v-0.05v-0.05v-0.05v-0.05v-0.05v-0.05v-0.05v-0.05v-0.05v-0.05v-0.05v-0.05
	v-0.05v-0.05v-0.05V207v-0.05v-0.05v-0.05v-0.05v-0.05v-0.05v-0.05v-0.06v-0.06v-0.06v-0.06v-0.06v-0.06v-0.06v-0.06v-0.06v-0.06
	v-0.06v-0.06v-0.06v-0.06v-0.06v-0.06v-0.06v-0.06v-0.06v-0.06v-0.06v-0.06v-0.06v-0.07v-0.06v-0.07v-0.07v-0.07v-0.07v-0.07v-0.07
	v-0.07v-0.07v-0.07v-0.07v-0.07v-0.07v-0.07v-0.07v-0.07v-0.07v-0.07v-0.07v-0.07v-0.07v-0.07v-0.07v-0.07v-0.07v-0.07v-0.07v-0.07
	v-0.07v-0.08v-0.08v-0.08v-0.08v-0.08v-0.08v-0.08v-0.08v-0.08v-0.08v-0.08v-0.08v-0.08v-0.08V202v-0.08v-0.08v-0.08v-0.08v-0.08
	v-0.08v-0.08v-0.08v-0.08v-0.08v-0.08v-0.08v-0.08v-0.08v-0.08v-0.08v-0.08v-0.08v-0.08v-0.08v-0.08v-0.09v-0.09v-0.09v-0.09v-0.09
	v-0.09v-0.09v-0.09v-0.09v-0.09v-0.09v-0.09v-0.09v-0.09v-0.09v-0.09v-0.09v-0.09v-0.09v-0.09v-0.09v-0.09v-0.09v-0.09v-0.09v-0.09
	v-0.09v-0.09v-0.09v-0.09v-0.09v-0.09v-0.09v-0.09v-0.09v-0.09v-0.09v-0.09v-0.09v-0.1v-0.09v-0.09v-0.1v-0.1v-0.1v-0.1v-0.1v-0.1
	v-0.1v-0.1v-0.1v-0.1v-0.1v-0.1v-0.1v-0.1v-0.1v-0.1v-0.1v-0.1v-0.1v-0.1v-0.1v-0.1v-0.1v-0.1v-0.1v-0.1v-0.1v-0.1v-0.1v-0.1v-0.1
	v-0.1v-0.1v-0.1v-0.1v-0.1v-0.1v-0.1v-0.1v-0.1v-0.1v-0.1v-0.1v-0.1v-0.1v-0.1v-0.1v-0.1v-0.1v-0.1v-0.1v-0.1v-0.1v-0.1v-0.1v-0.1
	v-0.1v-0.1v-0.1v-0.1v-0.1v-0.1v-0.1v-0.1v-0.1v-0.1v-0.1v-0.1v-0.1v-0.1v-0.1v-0.1v-0.1v-0.1v-0.1v-0.1v-0.1v-0.11v-0.1v-0.11v-0.1
	v-0.11v-0.1v-0.11v-0.11v-0.1v-0.11v-0.11v-0.11v-0.11v-0.11v-0.11v-0.11v-0.11v-0.11v-0.11v-0.11v-0.11v-0.11v-0.11v-0.11v-0.11
	v-0.11v-0.11v-0.11v-0.11v-0.11v-0.11v-0.11v-0.11v-0.11v-0.11v-0.11v-0.11v-0.11v-0.11v-0.11v-0.11v-0.11v-0.11v-0.11v-0.11v-0.11
	v-0.11v-0.11v-0.11v-0.11v-0.11v-0.11v-0.11v-0.11v-0.11v-0.11v-0.11v-0.11v-0.11v-0.11v-0.11v-0.11v-0.11v-0.11v-0.11v-0.11v-0.11
	v-0.11v-0.11v-0.11v-0.11v-0.11v-0.11v-0.11v-0.11v-0.11v-0.11v-0.11v-0.11v-0.11v-0.11v-0.1v-0.11v-0.11v-0.11v-0.1v-0.11v-0.1
	v-0.11v-0.1v-0.11v-0.1v-0.1v-0.1v-0.1v-0.1v-0.1v-0.1v-0.1v-0.1v-0.1v-0.1v-0.1v-0.1v-0.1v-0.1v-0.1v-0.1v-0.1v-0.1v-0.1v-0.1v-0.1
	v-0.1v-0.1v-0.1v-0.1v-0.1v-0.1v-0.1v-0.1v-0.1v-0.1v-0.1v-0.1v-0.1v-0.1v-0.1v-0.1v-0.1v-0.1v-0.1v-0.1v-0.1v-0.1v-0.1v-0.1v-0.1
	v-0.1v-0.1v-0.1v-0.1v-0.1v-0.1v-0.1v-0.1v-0.1v-0.1v-0.1v-0.1v-0.1v-0.1v-0.1v-0.1v-0.1v-0.1v-0.1v-0.1v-0.1v-0.1v-0.1v-0.1v-0.1
	v-0.1v-0.1v-0.1v-0.1v-0.09v-0.1v-0.09v-0.09v-0.1v-0.09v-0.09v-0.09v-0.09v-0.09v-0.09v-0.09v-0.09v-0.09V170v-0.09v-0.09v-0.09
	v-0.09v-0.09v-0.09v-0.09v-0.09v-0.09v-0.09c0-9.15-7.85-18.71-17.86-18.71c-6.24,0-13.13,3.39-17.86,11.47v0.03V162v0.12v0.12v0.12
	v0.12v0.12v0.12v0.13v0.12v0.12v0.13v0.13v0.13v0.13v0.13v0.13v0.13v0.13v0.13v0.13v0.13v0.13v0.13v0.13V165v0.13v0.13v0.13v0.13
	v0.13v0.13v0.13v0.13v0.13v0.13v0.13v0.13v0.13v0.13v0.13v0.13v0.13v0.13v0.13v0.13v0.13v0.13v0.13v0.13v0.13v0.13v0.13v0.13v0.13
	v0.13v0.13v0.13v0.13v0.13v0.13v0.13v0.13v0.13v0.13v0.13v0.13v0.13v0.13v0.13v0.13v0.13v0.13v0.13v0.13v0.13v0.13v0.13v0.13v0.13
	v0.13v0.13v0.13v0.13v0.13v0.13v0.13v0.13v0.13v0.13v0.13v0.13v0.13v0.13v0.13v0.13v0.13v0.13v0.13v0.13v0.13v0.13v0.13v0.13v0.13
	v0.13v0.13v0.13v0.13v0.13v0.13v0.13v0.13v0.13v0.13v0.13v0.13v0.13v0.13v0.13v0.13v0.13v0.13v0.13v0.13v0.13v0.13v0.13v0.13v0.13
	v0.13v0.13v0.13v0.13v0.13v0.13v0.13v0.13v0.13v0.13v0.13v0.13v0.13v0.13v0.13v0.13v0.13v0.13v0.13v0.13v0.13v0.13v0.13v0.13v0.13
	v0.13v0.13v0.13v0.13v0.13v0.13V183v0.13v0.13v0.13v0.13v0.13v0.13v0.13v0.13v0.13v0.13v0.13v0.13v0.13v0.13v0.13v0.13v0.13v0.13
	v0.13v0.13v0.13v0.13V186v0.13v0.13v0.13v0.13v0.13v0.13v0.13v0.13v0.13v0.13v0.13v0.13v0.13v0.13v0.13v0.13v0.13v0.13v0.13v0.13
	v0.13v0.13v0.13v0.13v0.13v0.13v0.13v0.12v0.12v0.13v0.12v0.12v0.12v0.12v0.12v0.12v0.12v0.12v0.12v0.12v0.12v0.12v0.12v0.12v0.12
	v0.12v0.12v0.12v0.12v0.12v0.12v0.12v0.12v0.12v0.12v0.12v0.12v0.12v0.12v0.12v0.12v0.12v0.12v0.12V194v0.12v0.12v0.12v0.11v0.12
	v0.11v0.11v0.11v0.11v0.11v0.11v0.11v0.11v0.11v0.11v0.11v0.11v0.11v0.11v0.11v0.11v0.11v0.11v0.11v0.11v0.11v0.11v0.11v0.11v0.11
	v0.11v0.11v0.11v0.11v0.11v0.1v0.1v0.1v0.1v0.1v0.1v0.1v0.1v0.1v0.1v0.1v0.1v0.1v0.1v0.1v0.1v0.1v0.1v0.1v0.1v0.1v0.1v0.1v0.1v0.1
	v0.1v0.1v0.1v0.1v0.1v0.1v0.09v0.09v0.09v0.09v0.09v0.09v0.09v0.09v0.09v0.09V202v0.09v0.09v0.09v0.09v0.09v0.09v0.09v0.09v0.09
	v0.09v0.09v0.09v0.08v0.08v0.08v0.08v0.08v0.08v0.08v0.08v0.08v0.08v0.08v0.08v0.08v0.08v0.08v0.08v0.08v0.08v0.08v0.08v0.08v0.08
	v0.07v0.08v0.07v0.07v0.07v0.07v0.07v0.07v0.07v0.07v0.07v0.07v0.07v0.07v0.07v0.07v0.07v0.07v0.07v0.07v0.06v0.07v0.06v0.06v0.06
	v0.06v0.06v0.06v0.06v0.06v0.06v0.06v0.06v0.06v0.06v0.06v0.06v0.06v0.05v0.06v0.05v0.05v0.05v0.05v0.05v0.05v0.05v0.05v0.05v0.05
	V208v0.05v0.05v0.05v0.05v0.05v0.05v0.05v0.04v0.04v0.04v0.04v0.04v0.04v0.04v0.04v0.04v0.04v0.04v0.04v0.04v0.04v0.04v0.04v0.03
	v0.03v0.03v0.03v0.03v0.03v0.03v0.03v0.03v0.03v0.03v0.03v0.03v0.03v0.03v0.03v0.03v0.02v0.02v0.02v0.02v0.02v0.02v0.02v0.02v0.02
	v0.02v0.02v0.02v0.02v0.02v0.02v0.01v0.01v0.01v0.01v0.01v0.01v0.01v0.01v0.01v0.01v0.01v0.01v0.01v0v0v0v0v0v0v0l0,0
	c0,6.58-5.33,11.91-11.91,11.91c-6.58,0-11.91-5.33-11.91-11.91l0,0v0v0v0v0v0v0v0v-0.01v-0.01v-0.01v-0.01v-0.01v-0.01v-0.01v-0.01
	v-0.01v-0.01v-0.01v-0.01v-0.01v-0.02v-0.02v-0.02v-0.02v-0.02v-0.02v-0.02v-0.02v-0.02v-0.02v-0.02v-0.02v-0.02v-0.02v-0.02v-0.03
	v-0.03v-0.03v-0.03v-0.03v-0.03v-0.03v-0.03v-0.03v-0.03v-0.03v-0.03v-0.03v-0.03v-0.03v-0.03v-0.03v-0.04v-0.04v-0.04v-0.04v-0.04
	v-0.04v-0.04v-0.04v-0.04v-0.04v-0.04v-0.04v-0.04v-0.04v-0.04v-0.04v-0.05v-0.05v-0.05v-0.05v-0.05v-0.05V208v-0.05v-0.05v-0.05
	v-0.05v-0.05v-0.05v-0.05v-0.05v-0.05v-0.05v-0.05v-0.06v-0.05v-0.06v-0.06v-0.06v-0.06v-0.06v-0.06v-0.06v-0.06v-0.06v-0.06v-0.06
	v-0.06v-0.06v-0.06v-0.06v-0.06v-0.07v-0.06v-0.07v-0.07v-0.07v-0.07v-0.07v-0.07v-0.07v-0.07v-0.07v-0.07v-0.07v-0.07v-0.07v-0.07
	v-0.07v-0.07v-0.07v-0.07v-0.08v-0.07v-0.08v-0.08v-0.08v-0.08v-0.08v-0.08v-0.08v-0.08v-0.08v-0.08v-0.08v-0.08v-0.08v-0.08v-0.08
	v-0.08v-0.08v-0.08v-0.08v-0.08v-0.08v-0.08v-0.09v-0.09v-0.09v-0.09v-0.09v-0.09v-0.09v-0.09v-0.09v-0.09v-0.09V202v-0.09v-0.09
	v-0.09v-0.09v-0.09v-0.09v-0.09v-0.09v-0.09v-0.09v-0.09v-0.1v-0.1v-0.1v-0.1v-0.1v-0.1v-0.1v-0.1v-0.1v-0.1v-0.1v-0.1v-0.1v-0.1
	v-0.1v-0.1v-0.1v-0.1v-0.1v-0.1v-0.1v-0.1v-0.1v-0.1v-0.1v-0.1v-0.1v-0.1v-0.1v-0.1v-0.1v-0.11v-0.11v-0.11v-0.11v-0.11v-0.11v-0.11
	v-0.11v-0.11v-0.11v-0.11v-0.11v-0.11v-0.11v-0.11v-0.11v-0.11v-0.11v-0.11v-0.11v-0.11v-0.11v-0.11v-0.11v-0.11v-0.11v-0.11v-0.11
	v-0.11v-0.11v-0.12v-0.11v-0.12v-0.12V194v-0.12v-0.12v-0.12v-0.12v-0.12v-0.12v-0.12v-0.12v-0.12v-0.12v-0.12v-0.12v-0.12v-0.12
	v-0.12v-0.12v-0.12v-0.12v-0.12v-0.12v-0.12v-0.12v-0.12v-0.12v-0.12v-0.12v-0.12v-0.12v-0.12v-0.12v-0.12v-0.12v-0.12v-0.12v-0.12
	v-0.13v-0.12v-0.12v-0.13v-0.13v-0.13v-0.13v-0.13v-0.13v-0.13v-0.13v-0.13v-0.13v-0.13v-0.13v-0.13v-0.13v-0.13v-0.13v-0.13v-0.13
	v-0.13v-0.13v-0.13v-0.13v-0.13v-0.13v-0.13v-0.13V186v-0.13v-0.13v-0.13v-0.13v-0.13v-0.13v-0.13v-0.13v-0.13v-0.13v-0.13v-0.13
	v-0.13v-0.13v-0.13v-0.13v-0.13v-0.13v-0.13v-0.13v-0.13v-0.13V183v-0.13v-0.13v-0.13v-0.13v-0.13v-0.13v-0.13v-0.13v-0.13v-0.13
	v-0.13v-0.13v-0.13v-0.13v-0.13v-0.13v-0.13v-0.13v-0.13v-0.13v-0.13v-0.13v-0.13v-0.13v-0.13v-0.13v-0.13v-0.13v-0.13v-0.13v-0.13
	v-0.13v-0.13v-0.13v-0.13v-0.13v-0.13v-0.13v-0.13v-0.13v-0.13v-0.13v-0.13v-0.13v-0.13v-0.13v-0.13v-0.13v-0.13v-0.13v-0.13v-0.13
	v-0.13v-0.13v-0.13v-0.13v-0.13v-0.13v-0.13v-0.13v-0.13v-0.13v-0.13v-0.13v-0.13v-0.13v-0.13v-0.13v-0.13v-0.13v-0.13v-0.13v-0.13
	v-0.13v-0.13v-0.13v-0.13v-0.13v-0.13v-0.13v-0.13v-0.13v-0.13v-0.13v-0.13v-0.13v-0.13v-0.13v-0.13v-0.13v-0.13v-0.13v-0.13v-0.13
	v-0.13v-0.13v-0.13v-0.13v-0.13v-0.13v-0.13v-0.13v-0.13v-0.13v-0.13v-0.13v-0.13v-0.13v-0.13v-0.13v-0.13v-0.13v-0.13v-0.13v-0.13
	v-0.13v-0.13v-0.13v-0.13v-0.13v-0.13v-0.13v-0.13v-0.13v-0.13v-0.13v-0.13v-0.13v-0.13v-0.13v-0.13v-0.13v-0.13v-0.13v-0.13V165
	v-0.13v-0.13v-0.13v-0.13v-0.13v-0.13v-0.13v-0.13v-0.13v-0.13v-0.13v-0.13v-0.13v-0.13v-0.13v-0.12v-0.12v-0.13v-0.12v-0.12v-0.12
	v-0.12v-0.12V162v-0.12v-0.12v-0.12v-0.12v-0.12v-0.12v-0.12v-0.12v-0.12v-0.12v-0.12v-0.12v-0.12v-0.12v-0.12v-0.12v-0.12v-0.12
	v-0.12v-0.12v-0.12v-0.12v-0.12v-0.12V159v-0.12v-0.05v-0.05v-0.05v-0.05v-0.05v-0.05v-0.05v-0.05v-0.05v-0.05v-0.05v-0.05v-0.05
	v-0.05v-0.05v-0.05v-0.05v-0.05v-0.05v-0.05v-0.05v-0.05v-0.05v-0.05v-0.05v-0.05v-0.05v-0.05v-0.05v-0.05v-0.05v-0.05v-0.05v-0.05
	v-0.05v-0.05v-0.05v-0.05v-0.05v-0.05v-0.05v-0.05v-0.05v-0.05v-0.05v-0.05v-0.05v-0.05v-0.05v-0.05v-0.05v-0.05v-0.05v-0.05v-0.05
	v-0.05v-0.05v-0.05v-0.05v-0.05v-0.05v-0.05v-0.05v-0.05v-0.05v-0.05v-0.05v-0.05v-0.05v-0.05v-0.05v-0.05v-0.05v-0.05v-0.05v-0.05
	v-0.05v-0.05v-0.05v-0.05v-0.05v-0.05v-0.05v-0.05v-0.05v-0.05v-0.05v-0.05v-0.05v-0.05v-0.05v-0.05v-0.05v-0.05v-0.05v-0.05v-0.05
	v-0.05v-0.05v-0.05v-0.05v-0.05v-0.05v-0.05v-0.05v-0.05v-0.05v-0.05v-0.05v-0.05v-0.05v-0.05v-0.05v-0.05v-0.05v-0.05v-0.05v-0.05
	v-0.05v-0.05v-0.05v-0.05v-0.05v-0.05v-0.05v-0.05v-0.05v-0.05v-0.05v-0.05v-0.05v-0.05v-0.05v-0.05v-0.05v-0.05v-0.05v-0.05v-0.05
	v-0.05v-0.05v-0.05v-0.05v-0.05v-0.05v-0.05v-0.05v-0.05v-0.05v-0.05v-0.05v-0.05v-0.05v-0.05v-0.05v-0.05v-0.05v-0.05v-0.05v-0.05
	v-0.05v-0.05v-0.05v-0.05v-0.05v-0.05v-0.05v-0.05v-0.05v-0.05v-0.05v-0.05v-0.05v-0.05v-0.05v-0.05v-0.05v-0.05v-0.05v-0.05v-0.05
	v-0.05v-0.05v-0.05v-0.05v-0.05v-0.05v-0.05v-0.05v-0.05v-0.05v-0.05v-0.05v-0.05v-0.05v-0.05v-0.05v-0.05v-0.05v-0.05v-0.05v-0.05
	v-0.05v-0.05v-0.05v-0.05v-0.05v-0.05v-0.05v-0.05v-0.05v-0.05v-0.05v-0.05v-0.05v-0.05v-0.05v-0.05v-0.05v-0.05v-0.05v-0.05v-0.05
	v-0.05v-0.05v-0.05v-0.05v-0.05v-0.05v-0.05v-0.05v-0.05v-0.05v-0.05v-0.05v-0.05v-0.05v-0.05v-0.05v-0.05v-0.05v-0.05v-0.05v-0.05
	v-0.05v-0.05v-0.05v-0.05v-0.05v-0.05v-0.05v-0.05v-0.05v-0.05v-0.05v-0.05v-0.05v-0.05v-0.05v-0.05v-0.05v-0.05v-0.05v-0.05v-0.05
	v-0.05v-0.05v-0.05v-0.05v-0.05v-0.05v-0.05v-0.05v-0.05v-0.05v-0.05v-0.05v-0.05v-0.05v-0.05v-0.05v-0.05v-0.05v-0.05v-0.05v-0.05
	v-0.05v-0.05v-0.04v-0.05v-0.04v-0.04v-0.05v-0.04v-0.04v-0.04v-0.04v-0.04v-0.04v-0.04v-0.04v-0.04v-0.04v-0.04v-0.04v-0.04v-0.04
	v-0.04v-0.04v-0.04v-0.04v-0.04v-0.04v-0.04v-0.04v-0.04v-0.04v-0.04v-0.04v-0.04v-0.04v-0.04v-0.04v-0.04v-0.04v-0.04v-0.04v-0.04
	v-0.04v-0.04v-0.04v-0.04v-0.04v-0.04v-0.04v-0.04v-0.04v-0.04v-0.04v-0.04V142v-0.04v-0.04v-0.04v-0.04v-0.04v-0.04v-0.04v-0.04
	v-0.04v-0.04v-0.04v-0.04v-0.04v-0.04v-0.04v-0.03v-0.04v-0.03v-0.03v-0.03v-0.03v-0.03v-0.03v-0.03v-0.03v-0.03v-0.03v-0.03v-0.03
	v-0.03v-0.03v-0.03v-0.03v-0.03v-0.03v-0.03v-0.03v-0.03v-0.03v-0.03v-0.03v-0.03v-0.03v-0.03v-0.03v-0.03v-0.03v-0.03v-0.03v-0.03
	v-0.03v-0.03v-0.03v-0.03v-0.03v-0.03v-0.03v-0.03v-0.03v-0.03v-0.03V140v-0.03v-0.03v-0.03v-0.03v-0.03v-0.02v-0.03v-0.03v-0.02
	v-0.03v-0.02v-0.02v-0.02v-0.02v-0.02v-0.02v-0.02v-0.02v-0.02v-0.02v-0.02v-0.02v-0.02v-0.02v-0.02v-0.02v-0.02v-0.02v-0.02v-0.02
	v-0.02v-0.02v-0.02v-0.02v-0.02v-0.02v-0.02v-0.02v-0.02v-0.02v-0.02v-0.02v-0.02v-0.02v-0.02V139v-0.02v-0.02v-0.02v-0.02v-0.01
	v-0.02v-0.02v-0.01v-0.01v-0.01v-0.01v-0.01v-0.01v-0.01v-0.01v-0.01v-0.01v-0.01v-0.01v-0.01v-0.01v-0.01v-0.01v-0.01v-0.01v-0.01
	v-0.01v-0.01v-0.01v-0.01v-0.01v-0.01v-0.01v-0.01v-0.01v-0.01v-0.01v-0.01v-0.01v-0.01v-0.01v-0.01v-0.01v-0.01v0v0v0v0v0v0v0v0v0
	v0v0v0v0v0v0v0v0l0,0C138.33,131.89,143.66,126.56,150.24,126.56z"/>
</svg>
