<?xml version="1.0" encoding="utf-8"?>
<!-- Generator: Adobe Illustrator 28.0.0, SVG Export Plug-In . SVG Version: 6.00 Build 0)  -->
<svg version="1.1" id="Layer_1" xmlns="http://www.w3.org/2000/svg" xmlns:xlink="http://www.w3.org/1999/xlink" x="0px" y="0px"
	 viewBox="0 0 300 300" style="enable-background:new 0 0 300 300;" xml:space="preserve">
<style type="text/css">
	.st0{fill-rule:evenodd;clip-rule:evenodd;fill:#FFFFFF;}
</style>
<path class="st0" d="M70.36,30.54c-14.66,0-26.55,11.89-26.55,26.55v185.82c0,14.66,11.89,26.55,26.55,26.55h159.28
	c14.66,0,26.55-11.89,26.55-26.55V115.68c0-7.04-2.8-13.79-7.78-18.77l-58.59-58.59c-4.98-4.98-11.73-7.78-18.77-7.78H70.36z
	 M70.36,57.09h100.69l58.59,58.59v127.24H70.36V57.09z M96.91,83.63c-7.33,0-13.27,5.94-13.27,13.27c0,7.33,5.94,13.27,13.27,13.27
	h66.37c7.33,0,13.27-5.94,13.27-13.27c0-7.33-5.94-13.27-13.27-13.27H96.91z M83.63,150c0-7.33,5.94-13.27,13.27-13.27h106.19
	c7.33,0,13.27,5.94,13.27,13.27s-5.94,13.27-13.27,13.27H96.91C89.58,163.27,83.63,157.33,83.63,150z M96.91,189.82
	c-7.33,0-13.27,5.94-13.27,13.27c0,7.33,5.94,13.27,13.27,13.27h106.19c7.33,0,13.27-5.94,13.27-13.27
	c0-7.33-5.94-13.27-13.27-13.27H96.91z"/>
</svg>
