<?xml version="1.0" encoding="utf-8"?>
<!-- Generator: Adobe Illustrator 28.0.0, SVG Export Plug-In . SVG Version: 6.00 Build 0)  -->
<svg version="1.1" id="Layer_1" xmlns="http://www.w3.org/2000/svg" xmlns:xlink="http://www.w3.org/1999/xlink" x="0px" y="0px"
	 viewBox="0 0 300 300" style="enable-background:new 0 0 300 300;" xml:space="preserve">
<style type="text/css">
	.st0{fill:#F66317;}
</style>
<g>
	<g>
		<path class="st0" d="M148.91,193.91c-24.05,0-43.54-19.49-43.54-43.54s19.49-43.54,43.54-43.54s43.54,19.49,43.54,43.54
			c0.26,23.79-18.82,43.28-42.61,43.54C149.53,193.92,149.22,193.92,148.91,193.91z M148.91,121.35
			c-15.67-0.36-28.67,12.06-29.03,27.74c-0.01,0.43-0.01,0.86,0,1.29c-0.36,15.67,12.06,28.67,27.74,29.03
			c0.43,0.01,0.86,0.01,1.29,0c15.67,0.36,28.67-12.06,29.03-27.74c0.01-0.43,0.01-0.86,0-1.29c0.36-15.67-12.06-28.67-27.74-29.03
			C149.76,121.34,149.34,121.34,148.91,121.35z"/>
	</g>
	<g>
		<path class="st0" d="M245.45,114.41l-17.13-29.66c-3.45-6-10.66-8.71-17.22-6.49l-17.66,5.97c-3.04-2.05-6.22-3.89-9.52-5.5
			l-3.65-18.28c-1.36-6.79-7.31-11.67-14.23-11.67h-34.25c-6.92,0-12.88,4.88-14.23,11.67l-3.66,18.28
			c-3.33,1.6-6.55,3.42-9.63,5.47l-17.56-5.94c-6.55-2.22-13.76,0.5-17.22,6.49l-17.13,29.66c-3.46,5.99-2.21,13.59,2.99,18.16
			l14.01,12.31c-0.12,1.82-0.28,3.64-0.28,5.49c0,1.87,0.07,3.72,0.2,5.56l-13.94,12.25c-5.2,4.57-6.45,12.17-2.99,18.16L69.49,216
			c3.45,6,10.66,8.71,17.22,6.49l17.66-5.97c3.04,2.05,6.22,3.89,9.52,5.5l3.66,18.28c1.36,6.78,7.31,11.67,14.23,11.67h31.64
			v-14.51h-31.64l-5.15-25.77c-7.13-2.65-13.74-6.5-19.55-11.4l-25.02,8.46l-17.12-29.66l19.78-17.38
			c-1.35-7.5-1.37-15.19-0.05-22.7l-19.73-17.34l17.13-29.66l24.87,8.41c5.85-4.9,12.52-8.74,19.69-11.35l5.16-25.77h34.25
			l5.15,25.77c7.13,2.65,13.74,6.5,19.55,11.4l25.01-8.46l17.12,29.66l-20.3,17.79l9.57,10.91l20.32-17.8
			C247.65,128.01,248.91,120.41,245.45,114.41z"/>
	</g>
	<g>
		<polygon class="st0" points="199.7,224.25 180.91,205.45 170.68,215.68 199.7,244.71 250.49,193.91 240.26,183.68 		"/>
	</g>
</g>
</svg>
