<?xml version="1.0" encoding="utf-8"?>
<!-- Generator: Adobe Illustrator 28.0.0, SVG Export Plug-In . SVG Version: 6.00 Build 0)  -->
<svg version="1.1" id="Layer_1" xmlns="http://www.w3.org/2000/svg" xmlns:xlink="http://www.w3.org/1999/xlink" x="0px" y="0px"
	 viewBox="0 0 300 300" style="enable-background:new 0 0 300 300;" xml:space="preserve">
<style type="text/css">
	.st0{fill:#F66317;}
</style>
<g>
	<path class="st0" d="M181.79,101.52L164.5,99l-7.73-15.67c-0.33-0.68-0.75-1.27-1.22-1.77c-0.71-0.77-1.59-1.28-2.5-1.66
		c-0.29-0.12-0.57-0.29-0.88-0.37c-0.1-0.03-0.2-0.02-0.29-0.04c-0.54-0.12-1.09-0.22-1.64-0.22c-0.65,0-1.3,0.08-1.93,0.25
		c-0.05,0.01-0.09,0.04-0.14,0.06c-1.83,0.53-3.49,1.77-4.46,3.74L135.97,99l-17.29,2.51c-3.73,0.54-6.06,3.62-6.23,6.87
		c-0.1,1.95,0.57,3.97,2.19,5.55l12.51,12.19l-2.95,17.22c-0.09,0.53-0.1,1.04-0.09,1.54c0,0.11,0.01,0.22,0.02,0.32
		c0.04,0.48,0.12,0.95,0.25,1.4c0.02,0.07,0.05,0.13,0.07,0.2c0.13,0.4,0.29,0.79,0.49,1.15c0.04,0.08,0.07,0.15,0.12,0.23
		c0.23,0.39,0.49,0.76,0.78,1.1c0.06,0.07,0.13,0.14,0.19,0.21c0.29,0.31,0.6,0.6,0.94,0.86c0.03,0.03,0.06,0.06,0.1,0.08
		c0.36,0.27,0.76,0.49,1.17,0.69c0.09,0.04,0.18,0.09,0.28,0.13c0.42,0.18,0.85,0.34,1.29,0.44c0.04,0.01,0.08,0.01,0.13,0.02
		c0.42,0.09,0.85,0.13,1.28,0.14c0.1,0,0.19,0.01,0.29,0.01c0.48-0.01,0.97-0.07,1.47-0.18c0.09-0.02,0.19-0.05,0.28-0.08
		c0.51-0.14,1.02-0.32,1.52-0.58c0,0,0,0,0,0l15.46-8.13l15.46,8.13c0.5,0.26,1.01,0.44,1.53,0.58c0.09,0.02,0.18,0.05,0.28,0.08
		c0.49,0.11,0.98,0.17,1.47,0.18c0.1,0,0.19,0,0.29-0.01c0.44-0.01,0.87-0.05,1.29-0.14c0.04-0.01,0.08-0.01,0.12-0.02
		c0.45-0.1,0.87-0.26,1.29-0.44c0.1-0.04,0.19-0.08,0.28-0.13c0.41-0.2,0.8-0.42,1.16-0.69c0.04-0.03,0.07-0.06,0.11-0.09
		c0.33-0.25,0.64-0.54,0.93-0.85c0.07-0.07,0.13-0.14,0.2-0.21c0.29-0.34,0.55-0.7,0.78-1.09c0.04-0.08,0.08-0.16,0.12-0.23
		c0.19-0.37,0.36-0.75,0.49-1.15c0.02-0.07,0.05-0.13,0.07-0.2c0.13-0.45,0.21-0.91,0.25-1.4c0.01-0.11,0.01-0.22,0.02-0.33
		c0.02-0.5,0-1.01-0.09-1.54l-2.95-17.22l12.51-12.19C190.14,109.74,187.76,102.38,181.79,101.52z M158.86,120.5
		c-0.25,0.48-0.41,0.97-0.5,1.5c-0.32,1.88,0.22,4.35,1.06,9.27c-1.23-0.64-2.27-1.21-3.19-1.7c0,0,0,0,0,0
		c-0.2-0.11-0.37-0.2-0.56-0.3c-0.24-0.13-0.5-0.26-0.73-0.38c-0.17-0.09-0.32-0.16-0.48-0.24c-0.22-0.11-0.44-0.22-0.64-0.32
		c-0.15-0.07-0.28-0.12-0.41-0.18c-0.19-0.09-0.39-0.18-0.57-0.25c-0.13-0.05-0.25-0.09-0.38-0.13c-0.17-0.06-0.34-0.13-0.51-0.18
		c-0.13-0.04-0.25-0.06-0.37-0.09c-0.15-0.04-0.31-0.08-0.45-0.1c-0.12-0.02-0.24-0.02-0.36-0.03c-0.14-0.01-0.29-0.03-0.43-0.03
		c-0.14,0-0.28,0.02-0.42,0.03c-0.12,0.01-0.25,0.01-0.38,0.03c-0.14,0.02-0.29,0.06-0.44,0.09c-0.13,0.03-0.26,0.05-0.39,0.09
		c-0.16,0.04-0.33,0.11-0.5,0.17c-0.13,0.05-0.26,0.08-0.4,0.14c-0.18,0.07-0.39,0.16-0.58,0.25c-0.14,0.06-0.27,0.11-0.42,0.18
		c-0.19,0.09-0.4,0.19-0.61,0.29c-0.18,0.09-0.35,0.16-0.54,0.26c-0.2,0.1-0.43,0.22-0.64,0.33c-0.22,0.12-0.43,0.22-0.67,0.35
		c-0.12,0.06-0.26,0.14-0.38,0.2c-0.85,0.45-1.79,0.95-2.89,1.53v0l0,0c0.47-2.73,0.86-4.69,1.05-6.21
		c0.15-1.14,0.18-2.05,0.06-2.85c-0.08-0.53-0.24-1.02-0.48-1.51c-0.84-1.71-2.73-3.4-6.31-6.89c1.41-0.21,2.62-0.37,3.68-0.53
		c3.69-0.54,5.41-0.93,6.74-2.28c1.34-1.34,2.29-3.64,4.43-7.99c2.15,4.36,3.1,6.65,4.44,7.99c0.38,0.38,0.79,0.69,1.28,0.94
		c0.24,0.13,0.5,0.24,0.78,0.34c1.68,0.62,4.13,0.89,8.36,1.51C161.61,117.2,159.72,118.82,158.86,120.5z"/>
	<path class="st0" d="M250.36,223.12c0.24-0.03,0.48-0.08,0.71-0.14c0.09-0.02,0.19-0.03,0.28-0.06c0.32-0.09,0.63-0.2,0.93-0.33
		c0.05-0.02,0.09-0.05,0.14-0.07c0.25-0.11,0.49-0.24,0.72-0.38c0.09-0.06,0.18-0.13,0.27-0.19c0.18-0.12,0.35-0.24,0.52-0.37
		c0.1-0.08,0.19-0.17,0.28-0.25c0.15-0.13,0.29-0.26,0.43-0.4c0.09-0.1,0.18-0.2,0.26-0.3c0.12-0.14,0.24-0.29,0.35-0.44
		c0.08-0.11,0.15-0.22,0.23-0.34c0.1-0.15,0.2-0.31,0.29-0.47c0.07-0.12,0.13-0.25,0.19-0.37c0.08-0.16,0.15-0.33,0.22-0.5
		c0.05-0.13,0.1-0.26,0.14-0.4c0.06-0.17,0.11-0.35,0.15-0.52c0.03-0.14,0.07-0.27,0.09-0.41c0.03-0.18,0.06-0.36,0.08-0.55
		c0.02-0.14,0.03-0.28,0.04-0.42c0.01-0.19,0-0.38,0-0.57c0-0.14,0-0.28-0.02-0.42c-0.02-0.2-0.06-0.4-0.09-0.6
		c-0.02-0.13-0.04-0.26-0.07-0.39c-0.05-0.22-0.13-0.44-0.21-0.67c-0.04-0.11-0.06-0.22-0.11-0.33c-0.13-0.33-0.29-0.66-0.47-0.98
		l-44.01-76.24c13.9-41.76-17.27-85.19-61.45-85.19c-27.62,0-50.15,16.97-59.77,39.89c-5.77,13.75-6.89,29.65-1.68,45.3
		l-44.01,76.24c-0.19,0.32-0.34,0.65-0.47,0.98c-0.04,0.11-0.07,0.22-0.11,0.34c-0.08,0.22-0.15,0.44-0.2,0.66
		c-0.03,0.13-0.05,0.26-0.07,0.4c-0.04,0.2-0.07,0.4-0.09,0.6c-0.01,0.14-0.01,0.28-0.02,0.42c-0.01,0.19-0.01,0.38,0,0.57
		c0.01,0.14,0.02,0.28,0.04,0.42c0.02,0.18,0.04,0.36,0.08,0.54c0.03,0.14,0.06,0.28,0.09,0.42c0.04,0.17,0.09,0.35,0.15,0.52
		c0.04,0.13,0.09,0.27,0.14,0.4c0.07,0.17,0.14,0.33,0.22,0.49c0.06,0.13,0.12,0.25,0.19,0.38c0.09,0.16,0.18,0.31,0.28,0.46
		c0.08,0.12,0.15,0.23,0.23,0.35c0.11,0.15,0.23,0.29,0.35,0.43c0.09,0.1,0.18,0.21,0.27,0.31c0.13,0.14,0.27,0.26,0.41,0.39
		c0.1,0.09,0.19,0.18,0.29,0.26c0.16,0.13,0.33,0.25,0.5,0.36c0.1,0.06,0.18,0.14,0.28,0.2c0.22,0.14,0.45,0.25,0.69,0.36
		c0.06,0.03,0.11,0.06,0.17,0.09c0.3,0.13,0.61,0.24,0.93,0.33c0.09,0.03,0.19,0.04,0.28,0.06c0.23,0.05,0.47,0.11,0.71,0.14
		c0.13,0.02,0.26,0.02,0.39,0.03c0.21,0.02,0.42,0.03,0.63,0.03c0.41-0.01,0.82-0.04,1.25-0.11l28.45-5.14l9.77,27.21
		c0.25,0.68,0.58,1.28,0.98,1.82c0.04,0.05,0.07,0.11,0.11,0.16c0.38,0.5,0.83,0.93,1.31,1.3c0.07,0.05,0.14,0.11,0.21,0.16
		c0.48,0.34,1,0.62,1.53,0.83c0.09,0.04,0.18,0.07,0.27,0.1c0.54,0.19,1.11,0.32,1.68,0.38c0.09,0.01,0.18,0.01,0.27,0.02
		c0.42,0.03,0.84-0.01,1.26-0.05c0.26-0.03,0.53-0.04,0.79-0.1c0.38-0.08,0.74-0.22,1.1-0.36c0.24-0.09,0.48-0.16,0.71-0.28
		c0.38-0.2,0.74-0.47,1.09-0.75c0.18-0.14,0.37-0.24,0.54-0.4c0.5-0.47,0.95-1.02,1.32-1.67l38.39-66.49h0l0,0
		c1.35,0.17,2.69,0.29,4.04,0.38c2.69,0.17,5.39,0.17,8.09,0c1.35-0.08,2.7-0.21,4.04-0.38l38.39,66.49
		c0.37,0.65,0.82,1.19,1.32,1.67c0.17,0.16,0.36,0.26,0.54,0.4c0.35,0.27,0.7,0.54,1.08,0.74c0.23,0.12,0.48,0.19,0.71,0.28
		c0.36,0.14,0.72,0.28,1.1,0.36c0.26,0.06,0.53,0.07,0.79,0.1c0.42,0.04,0.84,0.08,1.26,0.05c0.09-0.01,0.18-0.01,0.27-0.02
		c0.57-0.06,1.14-0.19,1.68-0.38c0.09-0.03,0.18-0.07,0.27-0.1c0.54-0.21,1.06-0.49,1.54-0.83c0.07-0.05,0.14-0.11,0.21-0.16
		c0.48-0.37,0.93-0.8,1.31-1.3c0.04-0.05,0.07-0.11,0.11-0.16c0.39-0.54,0.73-1.14,0.98-1.83l9.77-27.21l28.45,5.14
		c0.42,0.08,0.84,0.11,1.25,0.11c0.21,0,0.42-0.01,0.63-0.03C250.1,223.14,250.23,223.14,250.36,223.12z M99,225.42l-6.54-18.23
		c-0.14-0.39-0.32-0.77-0.52-1.12c-0.07-0.12-0.15-0.22-0.22-0.34c-0.15-0.23-0.3-0.45-0.47-0.66c-0.1-0.12-0.21-0.23-0.31-0.34
		c-0.17-0.18-0.34-0.36-0.52-0.52c-0.12-0.11-0.25-0.21-0.37-0.3c-0.19-0.15-0.38-0.28-0.58-0.41c-0.14-0.09-0.27-0.17-0.41-0.24
		c-0.21-0.11-0.43-0.21-0.66-0.31c-0.14-0.06-0.28-0.12-0.43-0.17c-0.25-0.09-0.51-0.15-0.77-0.21c-0.13-0.03-0.25-0.07-0.38-0.09
		c-0.38-0.06-0.77-0.1-1.16-0.1c-0.02,0-0.03,0-0.05,0c-0.42,0-0.85,0.04-1.27,0.11c-0.01,0-0.02,0-0.03,0l-19.06,3.45l31.27-54.16
		l0,0v0c0.93,1.39,1.91,2.73,2.95,4.04c7.23,9.14,16.91,16.24,27.96,20.39L99,225.42z M153.83,165.58
		c-0.58,0.04-1.15,0.04-1.73,0.06c-0.58,0.02-1.15,0.06-1.73,0.06c-0.04,0-0.08,0-0.12,0c-0.61,0-1.23-0.04-1.84-0.06
		c-0.59-0.02-1.17-0.03-1.76-0.07c-0.61-0.04-1.22-0.13-1.82-0.19c-0.59-0.06-1.17-0.11-1.76-0.19c-0.59-0.08-1.17-0.2-1.76-0.31
		c-0.6-0.11-1.2-0.19-1.79-0.32c-0.56-0.12-1.12-0.28-1.68-0.42c-0.61-0.15-1.22-0.29-1.82-0.46c-0.54-0.16-1.07-0.35-1.6-0.52
		c-0.61-0.2-1.23-0.38-1.84-0.6c-0.51-0.19-1.01-0.41-1.51-0.61c-0.62-0.25-1.24-0.48-1.84-0.76c-0.48-0.22-0.95-0.47-1.42-0.7
		c-0.62-0.3-1.24-0.59-1.84-0.92c-0.45-0.24-0.88-0.52-1.32-0.78c-0.61-0.36-1.23-0.7-1.82-1.08c-0.43-0.28-0.85-0.59-1.27-0.89
		c-0.58-0.4-1.18-0.79-1.75-1.22c-0.41-0.31-0.8-0.66-1.2-0.98c-0.56-0.45-1.13-0.89-1.67-1.37c-0.39-0.34-0.76-0.72-1.14-1.08
		c-0.53-0.5-1.07-0.98-1.58-1.51c-0.39-0.4-0.75-0.84-1.13-1.26c-0.47-0.52-0.95-1.03-1.41-1.57c-0.39-0.48-0.75-0.99-1.13-1.48
		c-0.41-0.53-0.83-1.05-1.22-1.6c-0.38-0.55-0.73-1.13-1.1-1.7c-0.35-0.54-0.72-1.06-1.05-1.62c-0.4-0.67-0.75-1.38-1.12-2.08
		c-0.26-0.5-0.55-0.98-0.8-1.49c-0.6-1.23-1.16-2.5-1.68-3.81c-0.72-1.82-1.31-3.66-1.81-5.49c-0.13-0.46-0.24-0.92-0.36-1.39
		c-0.67-2.78-1.1-5.57-1.29-8.33c-0.01-0.12-0.02-0.24-0.03-0.36c-1.1-18.44,8.25-35.87,23.46-45.45c0.85-0.53,1.71-1.04,2.59-1.53
		c4.41-2.42,9.25-4.2,14.43-5.19c3.11-0.6,6.34-0.91,9.66-0.91c35.52,0,59.69,35.78,46.68,68.65c-0.53,1.33-1.09,2.61-1.7,3.86
		c-0.23,0.46-0.48,0.89-0.72,1.34c-0.4,0.76-0.79,1.53-1.21,2.26c-0.31,0.53-0.66,1.02-0.99,1.53c-0.39,0.61-0.76,1.23-1.17,1.82
		c-0.39,0.56-0.81,1.07-1.22,1.61c-0.38,0.5-0.74,1.01-1.14,1.49c-0.46,0.56-0.96,1.08-1.44,1.62c-0.37,0.41-0.72,0.84-1.1,1.23
		c-0.51,0.52-1.04,1-1.56,1.5c-0.39,0.37-0.76,0.75-1.16,1.1c-0.54,0.48-1.11,0.92-1.67,1.37c-0.4,0.32-0.79,0.67-1.2,0.98
		c-0.57,0.43-1.17,0.82-1.75,1.22c-0.42,0.29-0.84,0.6-1.27,0.88c-0.59,0.38-1.19,0.71-1.79,1.06c-0.45,0.26-0.89,0.55-1.35,0.79
		c-0.59,0.32-1.2,0.59-1.8,0.89c-0.49,0.24-0.97,0.49-1.46,0.72c-0.59,0.27-1.2,0.49-1.8,0.73c-0.52,0.21-1.02,0.43-1.55,0.62
		c-0.6,0.22-1.21,0.4-1.82,0.59c-0.54,0.17-1.07,0.36-1.61,0.51c-0.59,0.17-1.19,0.3-1.79,0.44c-0.57,0.14-1.13,0.3-1.7,0.41
		c-0.58,0.12-1.16,0.2-1.74,0.3c-0.6,0.1-1.19,0.22-1.79,0.31c-0.58,0.08-1.16,0.12-1.74,0.18
		C155.05,165.46,154.45,165.54,153.83,165.58z M216.17,202.48c-0.44-0.08-0.87-0.12-1.3-0.12c-0.01,0-0.02,0-0.04,0
		c-0.39,0-0.78,0.04-1.17,0.1c-0.13,0.02-0.26,0.06-0.38,0.09c-0.26,0.06-0.52,0.12-0.77,0.21c-0.14,0.05-0.28,0.11-0.42,0.17
		c-0.23,0.09-0.45,0.19-0.66,0.31c-0.14,0.08-0.27,0.16-0.41,0.24c-0.2,0.13-0.4,0.26-0.59,0.41c-0.13,0.1-0.25,0.2-0.37,0.3
		c-0.18,0.16-0.35,0.34-0.52,0.52c-0.1,0.11-0.21,0.22-0.31,0.34c-0.17,0.21-0.32,0.43-0.47,0.66c-0.07,0.11-0.15,0.22-0.22,0.33
		c-0.2,0.35-0.38,0.72-0.52,1.12c0,0,0,0,0,0.01l-6.54,18.23l-28.42-49.22c12.33-4.66,22.89-12.7,30.9-24.43l31.27,54.16
		L216.17,202.48z"/>
</g>
</svg>
