<?xml version="1.0" encoding="utf-8"?>
<!-- Generator: Adobe Illustrator 28.0.0, SVG Export Plug-In . SVG Version: 6.00 Build 0)  -->
<svg version="1.1" id="Layer_1" xmlns="http://www.w3.org/2000/svg" xmlns:xlink="http://www.w3.org/1999/xlink" x="0px" y="0px"
	 viewBox="0 0 56.22 48.93" style="enable-background:new 0 0 56.22 48.93;" xml:space="preserve">
<style type="text/css">
	.st0{fill:none;stroke:#FFFFFF;stroke-width:2.971;stroke-linecap:round;stroke-linejoin:round;stroke-miterlimit:133.3333;}
</style>
<g>
	<path class="st0" d="M20.19,22.48c2.19,0,3.96-1.77,3.96-3.96c0-2.19-1.77-3.96-3.96-3.96s-3.96,1.77-3.96,3.96
		C16.23,20.71,18,22.48,20.19,22.48z"/>
	<path class="st0" d="M17.34,42.29c11.03-23.97,20.2-28.17,30.58-12.62"/>
	<path class="st0" d="M40,6.64H16.23c-4.38,0-7.92,3.55-7.92,7.92v19.81c0,4.38,3.55,7.92,7.92,7.92H40c4.38,0,7.92-3.55,7.92-7.92
		V14.56C47.92,10.18,44.37,6.64,40,6.64z"/>
</g>
</svg>
