<?xml version="1.0" encoding="utf-8"?>
<!-- Generator: Adobe Illustrator 28.0.0, SVG Export Plug-In . SVG Version: 6.00 Build 0)  -->
<svg version="1.1" id="Layer_1" xmlns="http://www.w3.org/2000/svg" xmlns:xlink="http://www.w3.org/1999/xlink" x="0px" y="0px"
	 viewBox="0 0 300 300" style="enable-background:new 0 0 300 300;" xml:space="preserve">
<style type="text/css">
	.st0{fill:#303D74;}
	.st1{fill:#F66317;}
</style>
<g>
	<path class="st0" d="M120.22,67.08h-25.3c-2.95,0-5.35,2.39-5.35,5.35c0,2.95,2.39,5.35,5.35,5.35h7.3v13.05h10.7V77.78h7.3
		c2.95,0,5.35-2.39,5.35-5.35C125.57,69.48,123.17,67.08,120.22,67.08z"/>
	<g>
		<path class="st1" d="M112.24,150.19l-3.85-48.27c-0.08-1.01-1.55-1.01-1.63,0l-3.85,48.27c-2.41,1.2-4.29,3.31-5.2,5.88
			l-32.32,2.7c-0.98,0.08-0.98,1.52,0,1.6l32.32,2.7c1.56,4.39,5.95,7.44,10.99,6.93c4.72-0.49,8.63-4.26,9.27-8.96
			C118.6,156.32,116.09,152.12,112.24,150.19z M107.57,164.96c-2.97,0-5.38-2.41-5.38-5.38c0-2.97,2.41-5.38,5.38-5.38
			c2.97,0,5.38,2.41,5.38,5.38C112.95,162.55,110.54,164.96,107.57,164.96z"/>
	</g>
	<path class="st0" d="M261.64,204.58h-19.41c-2.95,0-5.35-2.39-5.35-5.35s2.39-5.35,5.35-5.35h19.41c2.95,0,5.35,2.39,5.35,5.35
		S264.6,204.58,261.64,204.58z"/>
	<path class="st0" d="M242.23,164.92H227.1c-2.95,0-5.35-2.39-5.35-5.35s2.39-5.35,5.35-5.35h15.13c2.95,0,5.35,2.39,5.35,5.35
		S245.18,164.92,242.23,164.92z"/>
	<path class="st0" d="M254.52,88.54H128.59c-6.67-1.98-13.73-3.07-21.02-3.07c-40.86,0-74.09,33.25-74.09,74.11
		c0,40.84,33.23,74.09,74.09,74.09c7.29,0,14.33-1.07,21-3.05h47.12c2.96,0,5.35-2.39,5.35-5.35c0-2.96-2.39-5.35-5.35-5.35h-3.32
		c-2.12,0-4.03-0.86-5.42-2.25c-1.39-1.39-2.25-3.32-2.25-5.42c0-4.24,3.44-7.68,7.67-7.68h47.6c2.94,0,5.35-2.39,5.35-5.35
		c0-2.96-2.41-5.35-5.35-5.35h-21.41c-7.99,0-14.48-6.49-14.48-14.48c0-4.01,1.62-7.61,4.24-10.23c2.62-2.62,6.24-4.24,10.23-4.24
		h8.04c2.96,0,5.35-2.41,5.35-5.35c0-2.96-2.39-5.35-5.35-5.35h-6.36c-8.91,0-16.15-7.24-16.15-16.17c0-4.46,1.82-8.5,4.74-11.43
		c2.92-2.92,6.95-4.72,11.41-4.72h19.73c2.94,0,5.35-2.41,5.35-5.35c0-2.96-2.41-5.35-5.35-5.35h-50.88c-3.3,0-5.97-2.69-5.97-5.99
		c0-1.66,0.68-3.16,1.75-4.24c1.09-1.07,2.57-1.75,4.22-1.75h85.43c2.94,0,5.35-2.41,5.35-5.35
		C259.87,90.93,257.46,88.54,254.52,88.54z M170.96,159.58c0,34.94-28.43,63.39-63.39,63.39c-34.96,0-63.39-28.45-63.39-63.39
		c0-34.96,28.43-63.41,63.39-63.41C142.53,96.17,170.96,124.62,170.96,159.58z"/>
</g>
</svg>
