<?xml version="1.0" encoding="utf-8"?>
<!-- Generator: Adobe Illustrator 28.0.0, SVG Export Plug-In . SVG Version: 6.00 Build 0)  -->
<svg version="1.1" id="Layer_1" xmlns="http://www.w3.org/2000/svg" xmlns:xlink="http://www.w3.org/1999/xlink" x="0px" y="0px"
	 viewBox="0 0 300 300" style="enable-background:new 0 0 300 300;" xml:space="preserve">
<style type="text/css">
	.st0{fill:#F66317;}
</style>
<g>
	<path class="st0" d="M41.52,134.77c0.11-0.08,0.23-0.13,0.36-0.13c7.6-0.39,78.31-0.5,85.92-0.42c9.1,0.09,18.21,0.03,27.31,0.01
		l26.77,0.21c7.99,0.12,15.39,0.14,22.2,0.07c2.49-0.02,5-0.17,7.54-0.45c0.07-0.01,0.11-0.07,0.11-0.14c0-0.02-0.01-0.03-0.02-0.05
		c-0.74-1.17-1.44-2.25-2.11-3.24c-5.06-7.48-10.26-15.1-15.62-22.86c-4.04-5.85-8.18-11.55-12.07-17.49
		c-0.1-0.16-0.21-0.31-0.32-0.46c-0.1-0.13-0.16-0.26-0.19-0.39c-0.07-0.3,0.12-0.59,0.42-0.66c0.03-0.01,0.05-0.01,0.08-0.01
		c2.76-0.19,5.61-0.27,8.41-0.23c8.66,0.14,17.14,0.2,25.43,0.17c1.36,0,3.5,0.11,4.28,1.35c2.29,3.63,4.61,7.3,6.98,10.99
		c5.26,8.22,11.3,16.02,16.86,24.2c2.75,4.06,5.57,8.06,8.44,12.02c1.73,2.4,3.38,4.88,5.14,7.31c0.92,1.27,1.51,2.89,0.64,4.37
		c-1.67,2.86-3.46,5.52-5.34,7.98c-1.17,1.53-2.21,3.09-3.28,4.7c-1.39,2.1-2.99,4.06-4.36,6.16c-1.94,2.95-4.01,5.78-6.01,8.68
		c-0.68,0.97-1.5,2.12-2.47,3.44c-1.84,2.51-3.6,5.06-5.28,7.64c-4.34,6.66-8.59,13.39-12.74,20.19c-1.92,3.13-4.39,3.7-7.78,3.67
		c-8.07-0.08-16.04-0.06-23.91,0.07c-3.18,0.05-6.4-0.14-9.59-0.52c-0.12-0.01-0.21-0.13-0.2-0.25c0-0.03,0.01-0.06,0.03-0.09
		c0.88-1.42,1.98-2.57,2.94-3.92c2.82-3.99,5.54-7.84,8.17-11.53c3.53-4.97,6.88-10.24,10.47-15.2c2.74-3.79,5.39-7.95,8.38-11.93
		c0.35-0.47,0.7-1.25,1.03-2.33c0.04-0.14-0.01-0.21-0.15-0.23c-1.4-0.11-2.7-0.17-3.89-0.17c-31.87,0.02-116.87,0.16-148.58,0.07
		c-2.95-0.01-6.3-0.15-9.41-0.18c-2.04-0.02-3.41,0.01-4.1,0.07L41.52,134.77z"/>
</g>
</svg>
