<?xml version="1.0" encoding="utf-8"?>
<!-- Generator: Adobe Illustrator 28.0.0, SVG Export Plug-In . SVG Version: 6.00 Build 0)  -->
<svg version="1.1" id="Layer_1" xmlns="http://www.w3.org/2000/svg" xmlns:xlink="http://www.w3.org/1999/xlink" x="0px" y="0px"
	 viewBox="0 0 300 300" style="enable-background:new 0 0 300 300;" xml:space="preserve">
<style type="text/css">
	.st0{fill:#FFFFFF;}
</style>
<g>
	<rect x="87.27" y="133.05" class="st0" width="52.96" height="52.96"/>
	<rect x="122.57" y="203.66" class="st0" width="52.96" height="52.96"/>
	<rect x="51.96" y="203.66" class="st0" width="52.96" height="52.96"/>
	<rect x="193.18" y="203.66" class="st0" width="52.96" height="52.96"/>
	<rect x="157.88" y="133.05" class="st0" width="52.96" height="52.96"/>
	<path class="st0" d="M258.85,97.75l-109.8-54.37L39.25,97.75c-4.53,2.14-6.47,7.56-4.32,12.09c2.14,4.53,7.56,6.47,12.09,4.33
		l102.03-51.72l102.03,52.08c1.21,0.58,2.54,0.89,3.88,0.88c4.87,1.07,9.7-2.01,10.77-6.89C266.81,103.64,263.73,98.82,258.85,97.75
		z"/>
</g>
</svg>
