<?xml version="1.0" encoding="utf-8"?>
<!-- Generator: Adobe Illustrator 28.0.0, SVG Export Plug-In . SVG Version: 6.00 Build 0)  -->
<svg version="1.1" id="Layer_1" xmlns="http://www.w3.org/2000/svg" xmlns:xlink="http://www.w3.org/1999/xlink" x="0px" y="0px"
	 viewBox="0 0 300 300" style="enable-background:new 0 0 300 300;" xml:space="preserve">
<style type="text/css">
	.st0{fill:#FFFFFF;}
</style>
<g id="Layer_2_00000098925301775711359620000012301072957758812060_">
	<g>
		<g id="Health_Icons_00000175299566970621724320000005973853610430578609_">
			<g>
				<path class="st0" d="M222.88,81.52c-3-3.67-7.48-5.81-12.22-5.84h-6.38l1.59-9.03c0.6-4.34-0.54-8.73-3.19-12.22
					c-3.05-3.23-7.25-5.14-11.69-5.31H64c-5.87,0-10.63,4.76-10.63,10.63S58.13,70.36,64,70.36h119.55L162.3,192.04
					c-2.4,3.39-4.2,7.16-5.31,11.16h-24.44c-5.95-19.66-26.71-30.78-46.37-24.83c-11.91,3.6-21.23,12.92-24.83,24.83H55.5
					l2.66-15.41c0.97-5.71-2.81-11.14-8.5-12.22c-5.71-0.97-11.14,2.81-12.22,8.5l-4.25,22.85c-0.66,4.43,0.7,8.91,3.72,12.22
					c2.77,3.31,6.84,5.24,11.16,5.31h13.28c5.95,19.66,26.71,30.78,46.37,24.83c11.91-3.6,21.23-12.92,24.83-24.83h24.44
					c5.95,19.66,26.71,30.78,46.37,24.83c11.91-3.6,21.23-12.92,24.83-24.83h10.63c8.24-0.16,15.19-6.2,16.47-14.35l11.69-68.01
					L222.88,81.52z M96.95,229.77c-8.8,0-15.94-7.14-15.94-15.94s7.14-15.94,15.94-15.94s15.94,7.14,15.94,15.94
					S105.75,229.77,96.95,229.77z M200.56,96.93h6.91l31.35,42.51h-45.7L200.56,96.93z M192.59,229.77
					c-8.8,0-15.94-7.14-15.94-15.94s7.14-15.94,15.94-15.94s15.94,7.14,15.94,15.94S201.39,229.77,192.59,229.77z M235.1,203.2
					h-6.91c-4.7-15.75-19.17-26.55-35.6-26.57h-5.84l2.66-16.47h52.6L235.1,203.2z"/>
				<path class="st0" d="M43.81,102.25h53.14c5.87,0,10.63-4.76,10.63-10.63s-4.76-10.63-10.63-10.63H43.81
					c-5.87,0-10.63,4.76-10.63,10.63S37.94,102.25,43.81,102.25z"/>
				<path class="st0" d="M102.26,123.5c0-5.87-4.76-10.63-10.63-10.63H49.12c-5.87,0-10.63,4.76-10.63,10.63
					c0,5.87,4.76,10.63,10.63,10.63h42.51C97.5,134.13,102.26,129.37,102.26,123.5z"/>
				<path class="st0" d="M54.44,144.75c-5.87,0-10.63,4.76-10.63,10.63s4.76,10.63,10.63,10.63h31.88c5.87,0,10.63-4.76,10.63-10.63
					s-4.76-10.63-10.63-10.63H54.44z"/>
			</g>
		</g>
	</g>
</g>
</svg>
