<?xml version="1.0" encoding="utf-8"?>
<!-- Generator: Adobe Illustrator 28.0.0, SVG Export Plug-In . SVG Version: 6.00 Build 0)  -->
<svg version="1.1" id="Layer_1" xmlns="http://www.w3.org/2000/svg" xmlns:xlink="http://www.w3.org/1999/xlink" x="0px" y="0px"
	 viewBox="0 0 300 300" style="enable-background:new 0 0 300 300;" xml:space="preserve">
<style type="text/css">
	.st0{fill:none;stroke:#FFFFFF;stroke-width:14.6042;stroke-linecap:round;stroke-linejoin:round;stroke-miterlimit:133.3333;}
</style>
<path class="st0" d="M188.09,130.96l24.53-14.72c7.55-4.53,11.33-6.8,14.43-6.51c2.71,0.25,5.18,1.65,6.79,3.84
	c1.85,2.52,1.85,6.92,1.85,15.73v41.4c0,8.81,0,13.21-1.85,15.73c-1.61,2.19-4.08,3.59-6.79,3.84c-3.11,0.29-6.88-1.98-14.43-6.51
	l-24.53-14.72 M94.78,207.13h62.84c10.66,0,16,0,20.07-2.08c3.58-1.83,6.5-4.74,8.32-8.32c2.08-4.07,2.08-9.41,2.08-20.07v-53.32
	c0-10.66,0-16-2.08-20.07c-1.83-3.58-4.74-6.5-8.32-8.32c-4.07-2.08-9.41-2.08-20.07-2.08H94.78c-10.66,0-16,0-20.07,2.08
	c-3.58,1.83-6.5,4.74-8.32,8.32c-2.08,4.07-2.08,9.41-2.08,20.07v53.32c0,10.66,0,16,2.08,20.07c1.83,3.58,4.74,6.5,8.32,8.32
	C78.78,207.13,84.11,207.13,94.78,207.13z"/>
</svg>
