<?xml version="1.0" encoding="utf-8"?>
<!-- Generator: Adobe Illustrator 28.0.0, SVG Export Plug-In . SVG Version: 6.00 Build 0)  -->
<svg version="1.1" id="Layer_1" xmlns="http://www.w3.org/2000/svg" xmlns:xlink="http://www.w3.org/1999/xlink" x="0px" y="0px"
	 viewBox="0 0 300 300" style="enable-background:new 0 0 300 300;" xml:space="preserve">
<style type="text/css">
	.st0{fill:#F66317;stroke:#F66317;stroke-width:9.8977;stroke-linecap:round;stroke-linejoin:round;stroke-miterlimit:10;}
</style>
<path class="st0" d="M190.46,113.81c-0.95,0-1.95,0.44-2.61,1.11l-40.21,40.21c-1.81,1.81-3.39,2.44-4.75,2.45
	c-1.35,0-2.82-0.59-4.7-2.45l-18.23-18.21c-3.32-3.47-8.59,1.88-5.16,5.18l18.23,18.21c2.87,2.87,6.24,4.61,9.87,4.59
	c3.62-0.02,7.12-1.8,9.9-4.58l40.22-40.22C195.29,117.86,193.82,113.8,190.46,113.81L190.46,113.81z M148.19,41.04
	c-0.97,0.42-2.41,1.34-4.11,2.38c-1.7,1.04-5.02,3.14-8.26,4.91c-6.49,3.51-14.63,6.98-22.14,6.98c-8.04,0-14.06-1.68-19.66-3.49
	c-5.59-1.81-10.8-3.84-16.91-3.84c-5.66,0-11.16,0.89-15.41,4.41c-4.26,3.53-6.53,9.6-6.53,17.53v58.51
	c0,8.63-1.39,38.52,15.09,67.63c9.7,17.13,26.47,32.87,42.26,44.55c7.9,5.84,15.53,10.64,22.01,14.03
	c6.47,3.39,11.34,5.43,15.71,5.43c4.39,0,9.24-2.05,15.71-5.43c6.48-3.39,14.11-8.19,22.01-14.03
	c15.78-11.68,32.54-27.43,42.26-44.55c16.48-29.11,15.09-59,15.09-67.63V69.93c0-7.93-2.27-14.01-6.53-17.53
	c-4.24-3.51-9.75-4.41-15.41-4.41c-6.1,0-11.32,2.03-16.92,3.82c-5.58,1.81-11.61,3.49-19.65,3.49c-7.53,0-15.71-3.47-22.2-6.98
	c-3.25-1.76-6.51-3.74-8.26-4.91c-1.78-1.17-3.24-1.9-4.11-2.38c-1.02-0.47-2.98-0.47-4.05,0L148.19,41.04z M150.24,48.65
	c0.67,0,1.27,0.37,2.22,0.97c2.18,1.37,5.16,3.25,8.65,5.14c6.99,3.79,16.09,7.86,25.7,7.86c9.08,0,16.09-1.97,21.88-3.82
	c5.78-1.86,10.28-3.49,14.69-3.49c4.84,0,8.48,0.88,10.75,2.74c2.27,1.87,3.88,5.27,3.88,11.88v58.51c0,9.34,1.22,36.9-14.16,64.03
	c-8.85,15.64-25.01,31.01-40.24,42.29c-7.61,5.63-14.99,10.26-21.03,13.43c-6.06,3.17-11.23,4.59-12.33,4.59
	c-1.1,0-6.27-1.42-12.33-4.59c-6.05-3.17-13.42-7.79-21.04-13.43c-15.23-11.26-31.37-26.65-40.22-42.29
	c-15.39-27.13-14.17-54.69-14.17-64.03V69.93c0-6.62,1.61-10.02,3.88-11.88s5.9-2.74,10.75-2.74c4.4,0,8.9,1.62,14.69,3.49
	c5.78,1.85,12.8,3.82,21.88,3.82c9.6,0,18.65-4.08,25.64-7.88c3.5-1.9,6.47-3.77,8.65-5.14c0.95-0.59,1.59-0.97,2.27-0.97
	L150.24,48.65z"/>
</svg>
