<?xml version="1.0" encoding="utf-8"?>
<!-- Generator: Adobe Illustrator 28.0.0, SVG Export Plug-In . SVG Version: 6.00 Build 0)  -->
<svg version="1.1" id="Layer_1" xmlns="http://www.w3.org/2000/svg" xmlns:xlink="http://www.w3.org/1999/xlink" x="0px" y="0px"
	 viewBox="0 0 300 300" style="enable-background:new 0 0 300 300;" xml:space="preserve">
<style type="text/css">
	.st0{fill:#F66317;}
</style>
<g>
	<path class="st0" d="M126.57,31.3c-0.13,0.16-0.19,0.35-0.2,0.56c-0.6,11.73-0.84,23.47-0.73,35.21
		c0.15,14.04,0.05,28.09,0.01,42.14l0.33,41.3c0.18,12.32,0.22,23.74,0.11,34.25c-0.04,3.84-0.27,7.71-0.69,11.63
		c-0.01,0.1-0.11,0.18-0.21,0.16c-0.03,0-0.05-0.01-0.07-0.02c-1.81-1.14-3.48-2.23-5-3.26c-11.54-7.8-23.3-15.84-35.27-24.1
		c-9.02-6.23-17.82-12.62-26.98-18.62c-0.24-0.16-0.48-0.32-0.71-0.5c-0.2-0.15-0.4-0.25-0.61-0.3c-0.46-0.1-0.91,0.19-1.02,0.65
		c-0.01,0.04-0.01,0.08-0.02,0.12c-0.29,4.25-0.42,8.66-0.35,12.97c0.22,13.36,0.31,26.44,0.26,39.24c-0.01,2.1,0.18,5.4,2.09,6.61
		c5.6,3.53,11.26,7.12,16.95,10.77c12.69,8.11,24.71,17.43,37.33,26c6.26,4.25,12.44,8.59,18.55,13.02
		c3.7,2.68,7.52,5.21,11.28,7.93c1.96,1.41,4.46,2.32,6.74,0.98c4.41-2.58,8.51-5.33,12.31-8.24c2.36-1.8,4.77-3.41,7.25-5.06
		c3.24-2.15,6.27-4.61,9.5-6.73c4.56-2.99,8.92-6.18,13.39-9.28c1.5-1.05,3.27-2.32,5.31-3.81c3.88-2.84,7.81-5.55,11.79-8.15
		c10.28-6.69,20.66-13.25,31.14-19.66c4.83-2.97,5.71-6.78,5.66-12.01c-0.13-12.45-0.09-24.75,0.11-36.89
		c0.08-4.91-0.22-9.87-0.8-14.79c-0.02-0.19-0.19-0.33-0.38-0.31c-0.05,0.01-0.1,0.02-0.14,0.05c-2.2,1.36-3.96,3.05-6.05,4.53
		c-6.16,4.36-12.09,8.55-17.79,12.6c-7.68,5.44-15.79,10.62-23.45,16.15c-5.84,4.22-12.26,8.31-18.41,12.93
		c-0.73,0.55-1.93,1.08-3.6,1.59c-0.21,0.07-0.33-0.01-0.35-0.23c-0.17-2.17-0.26-4.17-0.26-6c0.03-49.18,0.32-82.96,0.18-131.89
		c-0.01-4.54-0.23-9.71-0.27-14.52c-0.03-3.14,0.01-5.25,0.11-6.33L126.57,31.3z"/>
</g>
</svg>
