<?xml version="1.0" encoding="utf-8"?>
<!-- Generator: Adobe Illustrator 28.0.0, SVG Export Plug-In . SVG Version: 6.00 Build 0)  -->
<svg version="1.1" id="Layer_1" xmlns="http://www.w3.org/2000/svg" xmlns:xlink="http://www.w3.org/1999/xlink" x="0px" y="0px"
	 viewBox="0 0 300 300" style="enable-background:new 0 0 300 300;" xml:space="preserve">
<style type="text/css">
	.st0{fill:#FFFFFF;}
</style>
<path class="st0" d="M169.44,258.01c6.05-4.39,12.17-8.69,18.36-12.89c12.49-8.48,24.39-17.71,36.95-25.74
	c5.64-3.61,11.23-7.16,16.78-10.66c0.29-0.18,0.53-0.42,0.74-0.69v-58.19c-0.13,0.05-0.26,0.09-0.39,0.19
	c-0.23,0.17-0.46,0.34-0.7,0.49c-9.06,5.94-17.77,12.26-26.7,18.43c-11.85,8.18-23.48,16.14-34.91,23.86
	c-1.51,1.02-3.16,2.09-4.95,3.22c-0.02,0.01-0.05,0.02-0.07,0.02c-0.1,0.01-0.2-0.06-0.21-0.16c-0.42-3.87-0.65-7.71-0.69-11.51
	c-0.1-10.41-0.07-21.71,0.11-33.9l0.33-40.87c-0.04-13.9-0.13-27.8,0.01-41.7c0.12-11.62-0.12-23.23-0.72-34.84
	c-0.01-0.2-0.07-0.39-0.2-0.55l-46.56,0.71c0.1,1.07,0.14,3.15,0.11,6.27c-0.04,4.75-0.26,9.87-0.27,14.37
	c-0.14,48.43,0.15,81.86,0.17,130.53c0,1.81-0.08,3.79-0.26,5.93c-0.02,0.22-0.13,0.3-0.34,0.23c-1.65-0.51-2.84-1.03-3.56-1.57
	c-6.08-4.57-12.44-8.61-18.22-12.79c-7.58-5.48-15.62-10.6-23.21-15.99c-5.64-4-11.51-8.16-17.61-12.47
	c-1.98-1.4-3.67-2.98-5.71-4.29v58.99c0.85,1.53,2.15,2.89,4.12,4.1c10.37,6.35,20.65,12.83,30.82,19.46
	c3.94,2.57,7.83,5.26,11.67,8.06c2.02,1.47,3.77,2.73,5.25,3.77c4.42,3.07,8.74,6.23,13.25,9.18c3.2,2.09,6.19,4.54,9.4,6.66
	c2.45,1.62,4.84,3.22,7.17,5c3.76,2.88,7.83,5.6,12.19,8.16c2.26,1.32,4.74,0.42,6.67-0.97
	C161.99,263.17,165.78,260.66,169.44,258.01z"/>
</svg>
