<?xml version="1.0" encoding="utf-8"?>
<!-- Generator: Adobe Illustrator 28.0.0, SVG Export Plug-In . SVG Version: 6.00 Build 0)  -->
<svg version="1.1" id="Layer_1" xmlns="http://www.w3.org/2000/svg" xmlns:xlink="http://www.w3.org/1999/xlink" x="0px" y="0px"
	 viewBox="0 0 300 300" style="enable-background:new 0 0 300 300;" xml:space="preserve">
<style type="text/css">
	.st0{fill:#F66317;}
</style>
<g>
	<g>
		<path class="st0" d="M200.09,54.59c-2.77,2.77-2.77,7.23-2.77,16.16v123.02c0,8.92,0,13.38,2.77,16.15
			c2.77,2.77,7.23,2.77,16.15,2.77s13.38,0,16.15-2.77c2.77-2.77,2.77-7.23,2.77-16.15V70.74c0-8.92,0-13.38-2.77-16.16
			c-2.77-2.77-7.23-2.77-16.15-2.77S202.86,51.82,200.09,54.59z"/>
	</g>
	<g>
		<path class="st0" d="M131.07,99.13c0-8.92,0-13.38,2.77-16.16c2.77-2.77,7.23-2.77,16.15-2.77s13.38,0,16.15,2.77
			c2.77,2.77,2.77,7.23,2.77,16.16v94.63c0,8.92,0,13.38-2.77,16.15c-2.77,2.77-7.23,2.77-16.15,2.77s-13.38,0-16.15-2.77
			c-2.77-2.77-2.77-7.23-2.77-16.15V99.13z"/>
	</g>
	<g>
		<path class="st0" d="M67.6,120.83c-2.77,2.77-2.77,7.23-2.77,16.16v56.78c0,8.92,0,13.38,2.77,16.15
			c2.77,2.77,7.23,2.77,16.16,2.77s13.38,0,16.16-2.77c2.77-2.77,2.77-7.23,2.77-16.15v-56.78c0-8.92,0-13.38-2.77-16.16
			c-2.77-2.77-7.23-2.77-16.16-2.77S70.37,118.06,67.6,120.83z"/>
	</g>
	<g>
		<path class="st0" d="M64.83,233.99c-3.92,0-7.1,3.18-7.1,7.1c0,3.92,3.18,7.1,7.1,7.1h170.34c3.92,0,7.1-3.18,7.1-7.1
			c0-3.92-3.18-7.1-7.1-7.1H64.83z"/>
	</g>
</g>
</svg>
