<?xml version="1.0" encoding="utf-8"?>
<!-- Generator: Adobe Illustrator 28.0.0, SVG Export Plug-In . SVG Version: 6.00 Build 0)  -->
<svg version="1.1" id="Layer_1" xmlns="http://www.w3.org/2000/svg" xmlns:xlink="http://www.w3.org/1999/xlink" x="0px" y="0px"
	 viewBox="0 0 300 300" style="enable-background:new 0 0 300 300;" xml:space="preserve">
<style type="text/css">
	.st0{fill-rule:evenodd;clip-rule:evenodd;fill:#303d74;}
</style>
<g id="Page-1_00000116213705196286362190000000987052855979716018_">
	
		<g id="Dribbble-Light-Preview_00000132088937949345406050000006237443493217036938_" transform="translate(-340.000000, -7439.000000)">
		<g id="icons_00000152967040377670638990000016209978820634365108_" transform="translate(56.000000, 160.000000)">
			<path id="instagram-_x5B__x23_167_x5D__00000142152357261071016020000011527180591185267858_" class="st0" d="M386.2,7314.68
				c-18.84,0.85-35.17,5.46-48.36,18.59c-13.23,13.2-17.78,29.6-18.63,48.24c-0.53,11.64-3.63,99.56,5.36,122.61
				c6.06,15.55,17.99,27.52,33.69,33.59c7.32,2.85,15.69,4.78,27.95,5.34c102.56,4.64,140.57,2.11,156.6-38.93
				c2.84-7.31,4.8-15.66,5.34-27.9c4.69-102.82-0.76-125.11-18.63-142.96C515.33,7319.13,498.66,7309.5,386.2,7314.68
				 M387.14,7522.37c-11.23-0.5-17.32-2.38-21.39-3.95c-10.23-3.97-17.91-11.62-21.86-21.79c-6.84-17.52-4.57-100.73-3.96-114.19
				c0.6-13.19,3.27-25.24,12.58-34.55c11.52-11.49,26.4-17.12,127.71-12.55c13.22,0.6,25.3,3.27,34.63,12.55
				c11.52,11.49,17.23,26.48,12.58,127.41c-0.51,11.2-2.38,17.28-3.96,21.33C513.04,7523.34,489.06,7527.05,387.14,7522.37
				 M481.33,7367.54c0,7.61,6.18,13.79,13.82,13.79c7.64,0,13.83-6.18,13.83-13.79c0-7.6-6.2-13.78-13.83-13.78
				C487.52,7353.75,481.33,7359.94,481.33,7367.54 M374.54,7428.86c0,32.58,26.48,59,59.14,59s59.14-26.42,59.14-59
				c0-32.58-26.48-58.98-59.14-58.98S374.54,7396.28,374.54,7428.86 M395.29,7428.86c0-21.14,17.18-38.29,38.39-38.29
				c21.2,0,38.39,17.15,38.39,38.29c0,21.15-17.18,38.31-38.39,38.31C412.48,7467.17,395.29,7450.01,395.29,7428.86"/>
		</g>
	</g>
</g>
</svg>
