<?xml version="1.0" encoding="utf-8"?>
<!-- Generator: Adobe Illustrator 28.0.0, SVG Export Plug-In . SVG Version: 6.00 Build 0)  -->
<svg version="1.1" id="Layer_1" xmlns="http://www.w3.org/2000/svg" xmlns:xlink="http://www.w3.org/1999/xlink" x="0px" y="0px"
	 viewBox="0 0 300 300" style="enable-background:new 0 0 300 300;" xml:space="preserve">
<style type="text/css">
	.st0{fill:#FFFFFF;}
</style>
<path class="st0" d="M252.82,193.44c-5.62,13.29-13.67,25.22-23.91,35.47c-10.25,10.25-22.18,18.29-35.47,23.91
	c-13.76,5.82-28.38,8.77-43.44,8.77c-15.06,0-29.68-2.95-43.44-8.77c-13.29-5.62-25.22-13.67-35.47-23.91
	c-10.25-10.25-18.29-22.18-23.91-35.47c-5.82-13.76-8.77-28.38-8.77-43.44c0-15.06,2.95-29.68,8.77-43.44
	c5.62-13.29,13.67-25.22,23.91-35.47c10.25-10.25,22.18-18.29,35.47-23.91c13.76-5.82,28.38-8.77,43.44-8.77
	c15.06,0,29.68,2.95,43.44,8.77c13.29,5.62,25.22,13.67,35.47,23.91c10.25,10.25,18.29,22.18,23.91,35.47
	c5.82,13.76,8.77,28.38,8.77,43.44C261.6,165.06,258.65,179.68,252.82,193.44z M215.76,215.76c5.83-5.83,10.8-12.31,14.83-19.26
	h-36.74c-1.41,10.79-3.38,20.26-5.91,28.35c-1.37,4.4-2.93,8.42-4.66,12.04C195.32,232.29,206.37,225.15,215.76,215.76z
	 M129.81,219.3c2.6,8.31,5.78,14.56,9.46,18.58c3.2,3.49,6.61,5.12,10.73,5.12c4.12,0,7.52-1.63,10.73-5.12
	c3.68-4.01,6.86-10.26,9.46-18.58c2.04-6.52,3.67-14.13,4.91-22.8h-50.18C126.14,205.17,127.78,212.78,129.81,219.3z M57,150
	c0,9.6,1.45,18.99,4.24,27.9h43.12c-0.57-8.66-0.86-17.97-0.86-27.9s0.29-19.24,0.86-27.9H61.24C58.45,131.01,57,140.4,57,150z
	 M84.24,84.24c-5.83,5.83-10.8,12.31-14.83,19.26h36.74c1.41-10.79,3.38-20.26,5.91-28.35c1.37-4.4,2.93-8.42,4.66-12.05
	C104.68,67.71,93.63,74.85,84.24,84.24z M112.06,224.85c-2.53-8.08-4.5-17.55-5.91-28.35H69.42c4.03,6.95,8.99,13.43,14.83,19.26
	c9.39,9.39,20.44,16.53,32.48,21.13C114.99,233.26,113.44,229.24,112.06,224.85z M170.19,80.7c-2.6-8.31-5.78-14.56-9.46-18.58
	C157.52,58.63,154.12,57,150,57c-4.12,0-7.52,1.63-10.73,5.12c-3.68,4.01-6.86,10.26-9.46,18.58c-2.04,6.52-3.67,14.13-4.91,22.8
	h50.18C173.86,94.83,172.22,87.22,170.19,80.7z M177.01,122.1h-54.02c-0.59,8.56-0.89,17.87-0.89,27.9c0,10.03,0.3,19.34,0.89,27.9
	h54.02c0.59-8.56,0.89-17.87,0.89-27.9C177.9,139.97,177.6,130.66,177.01,122.1z M215.76,84.24c-9.39-9.39-20.44-16.53-32.48-21.13
	c1.73,3.63,3.28,7.65,4.66,12.05c2.53,8.08,4.5,17.55,5.91,28.35h36.74C226.56,96.55,221.59,90.07,215.76,84.24z M238.76,122.1
	h-43.12c0.57,8.66,0.86,17.97,0.86,27.9s-0.29,19.24-0.86,27.9h43.12c2.79-8.91,4.24-18.29,4.24-27.9S241.55,131.01,238.76,122.1z"
	/>
</svg>
