<?xml version="1.0" encoding="utf-8"?>
<!-- Generator: Adobe Illustrator 28.0.0, SVG Export Plug-In . SVG Version: 6.00 Build 0)  -->
<svg version="1.1" id="Layer_1" xmlns="http://www.w3.org/2000/svg" xmlns:xlink="http://www.w3.org/1999/xlink" x="0px" y="0px"
	 viewBox="0 0 300 300" style="enable-background:new 0 0 300 300;" xml:space="preserve">
<style type="text/css">
	.st0{fill:#F66317;}
</style>
<g>
	<g>
		<g>
			<g>
				<path class="st0" d="M168.81,226.53h-37.93c-3.46,0-6.25-2.81-6.25-6.25v-4.39c0.04-3.77-0.14-6.42-0.54-7.9
					c-2.13-7.8-7.77-14.34-13.23-20.69c-1.8-2.08-3.5-4.05-5.06-6.05c-7.86-9.99-12.03-21.97-12.03-34.66
					c0-31,25.23-56.21,56.23-56.21c30.99,0,56.22,25.21,56.22,56.21c0,12.71-4.16,24.69-12.03,34.68c-1.38,1.77-2.97,3.62-4.62,5.57
					c-5.59,6.58-11.83,13.91-13.98,21.66c-0.38,1.38-0.56,3.87-0.53,7.35v4.42C175.05,223.72,172.26,226.53,168.81,226.53
					L168.81,226.53z M137.14,214.02h25.42c0.07-4.86,0.54-7.26,0.97-8.82c2.9-10.43,10.08-18.9,16.41-26.34
					c1.66-1.96,3.12-3.67,4.42-5.3c6.12-7.78,9.36-17.09,9.36-26.96c0-24.11-19.6-43.73-43.71-43.73s-43.73,19.62-43.73,43.73
					c0,9.85,3.23,19.16,9.36,26.95c1.45,1.85,3.03,3.66,4.71,5.6c5.77,6.71,12.93,15.01,15.82,25.57
					C136.59,206.36,137.08,208.88,137.14,214.02L137.14,214.02z"/>
			</g>
		</g>
		<g>
			<g>
				<path class="st0" d="M168.81,243.07h-37.93c-3.46,0-6.25-2.8-6.25-6.26c0-3.45,2.79-6.24,6.25-6.24h37.93
					c3.45,0,6.24,2.79,6.24,6.24C175.05,240.27,172.26,243.07,168.81,243.07L168.81,243.07z"/>
			</g>
		</g>
		<g>
			<g>
				<path class="st0" d="M159.33,259.59h-18.97c-3.46,0-6.26-2.8-6.26-6.25c0-3.45,2.8-6.26,6.26-6.26h18.97
					c3.44,0,6.25,2.81,6.25,6.26C165.58,256.79,162.77,259.59,159.33,259.59L159.33,259.59z"/>
			</g>
		</g>
	</g>
	<g>
		<g>
			<path class="st0" d="M249.95,152.84h-24.99c-3.45,0-6.26-2.79-6.26-6.25c0-3.45,2.81-6.25,6.26-6.25h24.99
				c3.45,0,6.24,2.79,6.24,6.25C256.19,150.05,253.4,152.84,249.95,152.84L249.95,152.84z"/>
		</g>
	</g>
	<g>
		<g>
			<path class="st0" d="M75.05,152.84H50.05c-3.45,0-6.24-2.79-6.24-6.25c0-3.45,2.79-6.25,6.24-6.25h24.99
				c3.45,0,6.26,2.79,6.26,6.25C81.31,150.05,78.5,152.84,75.05,152.84L75.05,152.84z"/>
		</g>
	</g>
	<g>
		<g>
			<path class="st0" d="M150,77.9c-3.46,0-6.26-2.79-6.26-6.25v-25c0-3.45,2.8-6.25,6.26-6.25c3.46,0,6.25,2.8,6.25,6.25v24.99
				C156.25,75.11,153.46,77.9,150,77.9L150,77.9z"/>
		</g>
	</g>
	<g>
		<g>
			<path class="st0" d="M220.64,223.51c-1.59,0-3.18-0.61-4.41-1.84l-17.66-17.67c-2.44-2.43-2.44-6.4,0-8.84
				c2.45-2.44,6.4-2.42,8.84,0.01l17.66,17.66c2.45,2.45,2.45,6.41,0,8.85C223.85,222.92,222.26,223.51,220.64,223.51L220.64,223.51
				z"/>
		</g>
	</g>
	<g>
		<g>
			<path class="st0" d="M96.99,99.86c-1.59,0-3.19-0.61-4.42-1.84L74.91,80.36c-2.45-2.45-2.45-6.41,0-8.86
				c2.45-2.44,6.4-2.44,8.84,0l17.66,17.66c2.45,2.44,2.45,6.41,0,8.85C100.19,99.25,98.6,99.86,96.99,99.86L96.99,99.86z"/>
		</g>
	</g>
	<g>
		<g>
			<path class="st0" d="M79.33,223.51c-1.6,0-3.19-0.6-4.42-1.82c-2.45-2.44-2.45-6.4,0-8.85l17.68-17.68
				c2.42-2.44,6.38-2.44,8.82,0c2.45,2.45,2.45,6.41,0,8.86l-17.66,17.67C82.52,222.91,80.93,223.51,79.33,223.51L79.33,223.51z"/>
		</g>
	</g>
	<g>
		<g>
			<path class="st0" d="M203,99.86c-1.6,0-3.19-0.61-4.42-1.84c-2.42-2.44-2.42-6.4,0-8.84l17.66-17.66
				c2.42-2.44,6.4-2.45,8.84-0.01c2.45,2.45,2.45,6.4,0,8.84l-17.65,17.66C206.21,99.23,204.61,99.86,203,99.86L203,99.86z"/>
		</g>
	</g>
</g>
</svg>
