<?xml version="1.0" encoding="utf-8"?>
<!-- Generator: Adobe Illustrator 28.0.0, SVG Export Plug-In . SVG Version: 6.00 Build 0)  -->
<svg version="1.1" id="Layer_1" xmlns="http://www.w3.org/2000/svg" xmlns:xlink="http://www.w3.org/1999/xlink" x="0px" y="0px"
	 viewBox="0 0 300 300" style="enable-background:new 0 0 300 300;" xml:space="preserve">
<style type="text/css">
	.st0{fill:#303d74;}
</style>
<g>
	<path class="st0" d="M223.83,227.03c-21,14.42-46.43,22.87-73.83,22.87s-52.83-8.44-73.83-22.87c-9.27-6.37-13.24-18.5-7.85-28.38
		c11.18-20.47,34.21-33.22,81.67-33.22c47.46,0,70.49,12.75,81.67,33.22C237.06,208.52,233.1,220.66,223.83,227.03z"/>
	<path class="st0" d="M150,142.26c25.45,0,46.07-20.63,46.07-46.07c0-25.45-20.63-46.07-46.07-46.07
		c-25.45,0-46.07,20.63-46.07,46.07C103.93,121.63,124.55,142.26,150,142.26z"/>
</g>
</svg>
