<?xml version="1.0" encoding="utf-8"?>
<!-- Generator: Adobe Illustrator 28.0.0, SVG Export Plug-In . SVG Version: 6.00 Build 0)  -->
<svg version="1.1" id="Layer_1" xmlns="http://www.w3.org/2000/svg" xmlns:xlink="http://www.w3.org/1999/xlink" x="0px" y="0px"
	 viewBox="0 0 300 300" style="enable-background:new 0 0 300 300;" xml:space="preserve">
<style type="text/css">
	.st0{fill:none;stroke:#F66317;stroke-width:11.6907;stroke-miterlimit:50;}
</style>
<g>
	<path class="st0" d="M227.96,131.21v99.68c-0.17,6.28-5.4,11.24-11.68,11.07c0,0-0.01,0-0.01,0H83.77
		c-6.28,0.17-11.52-4.78-11.69-11.06c0,0,0-0.01,0-0.01v-99.72"/>
	<polyline class="st0" points="127.65,241.65 127.65,175.13 172.78,175.13 172.78,241.65 	"/>
	<path class="st0" d="M58.21,100.04c0,0-4.29,30.24,25.13,34.84c8.71,1.29,17.52-1.6,23.77-7.79c10.87,11.73,29.19,12.43,40.92,1.56
		c0.7-0.64,1.36-1.32,1.99-2.03c4.98,5.66,11.97,9.14,19.48,9.7c8.28-0.67,16.22-3.56,22.99-8.38c4.7,5.12,11.26,8.13,18.2,8.38
		c17.22,0.08,31.24-13.82,31.32-31.03c0.01-1.74-0.13-3.49-0.41-5.21L223.2,60.56c-0.57-1.53-2.03-2.54-3.66-2.53H79.87
		c-1.64,0-3.11,1.03-3.66,2.57L58.21,100.04z"/>
	<line class="st0" x1="58.21" y1="100.04" x2="241.75" y2="100.04"/>
	<line class="st0" x1="107.31" y1="100.04" x2="107.31" y2="58.03"/>
	<line class="st0" x1="150.21" y1="100.04" x2="150.21" y2="58.03"/>
	<line class="st0" x1="192.92" y1="100.04" x2="192.92" y2="58.03"/>
</g>
</svg>
