<?xml version="1.0" encoding="utf-8"?>
<!-- Generator: Adobe Illustrator 28.0.0, SVG Export Plug-In . SVG Version: 6.00 Build 0)  -->
<svg version="1.1" id="Layer_1" xmlns="http://www.w3.org/2000/svg" xmlns:xlink="http://www.w3.org/1999/xlink" x="0px" y="0px"
	 viewBox="0 0 300 300" style="enable-background:new 0 0 300 300;" xml:space="preserve">
<style type="text/css">
	.st0{fill:none;stroke:#FFFFFF;stroke-width:31.429;stroke-linecap:round;stroke-linejoin:round;stroke-miterlimit:133.3333;}
	.st1{fill:none;stroke:#FFFFFF;stroke-width:31.429;stroke-miterlimit:133.3333;}
</style>
<g>
	<path class="st0" d="M36.86,263.14H62 M263.14,263.14H238 M62,263.14h176 M62,263.14V116.41 M238,263.14V116.41 M62,116.41
		c-0.47-0.27-0.92-0.55-1.38-0.85l-6.79-4.53c-9.89-6.6-13.81-19.22-9.4-30.26l11.24-28.11c3.82-9.55,13.06-15.81,23.34-15.81
		h141.96c10.28,0,19.53,6.26,23.35,15.81l11.24,28.11c4.42,11.04,0.5,23.66-9.4,30.26l-6.79,4.53c-0.45,0.3-0.91,0.59-1.38,0.85
		 M62,116.41c8.24,4.76,18.52,4.47,26.52-0.85l23.77-15.85l23.77,15.85c8.45,5.63,19.45,5.63,27.89,0l23.77-15.85l23.77,15.85
		c7.99,5.33,18.28,5.61,26.52,0.85"/>
	<path class="st1" d="M175.14,263.14v-62.86c0-13.89-11.26-25.14-25.14-25.14l0,0c-13.89,0-25.14,11.26-25.14,25.14v62.86"/>
</g>
</svg>
