<?xml version="1.0" encoding="utf-8"?>
<!-- Generator: Adobe Illustrator 28.0.0, SVG Export Plug-In . SVG Version: 6.00 Build 0)  -->
<svg version="1.1" id="Layer_1" xmlns="http://www.w3.org/2000/svg" xmlns:xlink="http://www.w3.org/1999/xlink" x="0px" y="0px"
	 viewBox="0 0 300 300" style="enable-background:new 0 0 300 300;" xml:space="preserve">
<style type="text/css">
	.st0{fill:#303D74;}
</style>
<g>
	<path class="st0" d="M201.7,253.41c-5.71,0-10.34-4.63-10.34-10.34v-20.68h-20.68c-5.71,0-10.34-4.63-10.34-10.34
		c0-5.71,4.63-10.34,10.34-10.34h20.68v-20.68c0-5.71,4.63-10.34,10.34-10.34c5.71,0,10.34,4.63,10.34,10.34v20.68h20.68
		c5.71,0,10.34,4.63,10.34,10.34c0,5.71-4.63,10.34-10.34,10.34h-20.68v20.68C212.04,248.78,207.41,253.41,201.7,253.41z
		 M139.66,253.41H67.28c-5.71,0-10.34-4.63-10.34-10.34c0-22.1,8.61-42.87,24.23-58.5c15.62-15.62,36.4-24.23,58.5-24.23
		c8.04,0,15.99,1.15,23.63,3.43c5.47,1.63,8.59,7.39,6.96,12.86c-1.34,4.49-5.45,7.39-9.91,7.39c-0.98,0-1.97-0.14-2.95-0.43
		c-5.73-1.7-11.69-2.57-17.73-2.57c-30.69,0-56.24,22.4-61.18,51.7h61.18c5.71,0,10.34,4.63,10.34,10.34
		C150,248.78,145.37,253.41,139.66,253.41z M139.66,150c-28.51,0-51.7-23.19-51.7-51.7c0-28.51,23.19-51.7,51.7-51.7
		s51.7,23.19,51.7,51.7C191.36,126.81,168.17,150,139.66,150z M139.66,67.28c-17.11,0-31.02,13.92-31.02,31.02
		c0,17.11,13.92,31.02,31.02,31.02s31.02-13.92,31.02-31.02C170.68,81.19,156.76,67.28,139.66,67.28z"/>
</g>
</svg>
