<?xml version="1.0" encoding="utf-8"?>
<!-- Generator: Adobe Illustrator 28.0.0, SVG Export Plug-In . SVG Version: 6.00 Build 0)  -->
<svg version="1.1" id="Layer_1" xmlns="http://www.w3.org/2000/svg" xmlns:xlink="http://www.w3.org/1999/xlink" x="0px" y="0px"
	 viewBox="0 0 300 300" style="enable-background:new 0 0 300 300;" xml:space="preserve">
<style type="text/css">
	.st0{fill-rule:evenodd;clip-rule:evenodd;fill:#303d74;}
	.st1{fill:#303d74;}
</style>
<g id="Page-1_00000161623339913239656190000000630617200449246872_">
	
		<g id="Dribbble-Light-Preview_00000026844089613581140840000005655843722931176856_" transform="translate(-340.000000, -7439.000000)">
		<g id="icons_00000088851969980644554930000005215878726357489070_" transform="translate(56.000000, 160.000000)">
			<path id="instagram-_x5B__x23_167_x5D__00000053516819950857447640000003150306399035220926_" class="st0" d="M385.98,7314.17
				c-18.93,0.86-35.33,5.48-48.57,18.67c-13.29,13.26-17.86,29.73-18.72,48.46c-0.53,11.69-3.64,100,5.38,123.16
				c6.08,15.62,18.07,27.64,33.84,33.74c7.36,2.86,15.76,4.8,28.08,5.36c103.01,4.66,141.2,2.12,157.3-39.11
				c2.86-7.34,4.82-15.73,5.37-28.02c4.71-103.27-0.76-125.66-18.72-143.6C515.69,7318.64,498.94,7308.97,385.98,7314.17
				 M386.93,7522.79c-11.28-0.5-17.4-2.39-21.48-3.97c-10.27-3.99-17.99-11.68-21.96-21.89c-6.87-17.6-4.59-101.18-3.98-114.7
				c0.6-13.25,3.29-25.35,12.63-34.7c11.57-11.54,26.51-17.19,128.28-12.6c13.28,0.6,25.41,3.28,34.79,12.6
				c11.57,11.54,17.31,26.6,12.63,127.97c-0.51,11.25-2.39,17.35-3.98,21.43C513.39,7523.76,489.31,7527.49,386.93,7522.79"/>
		</g>
	</g>
	<path class="st1" d="M153.76,253.54v-96.98h-7.79c-4.3,0-7.79-3.49-7.79-7.79v0c0-4.3,3.49-7.79,7.79-7.79h7.79v-5.35
		c0-15.82,3.72-30.24,13.02-39.31c7.67-7.45,17.91-10.47,27.44-10.47c3.79,0,7.23,0.42,10.2,1.05c4.12,0.87,6.77,4.86,6.04,9
		l-0.09,0.53c-0.73,4.14-4.57,6.98-8.73,6.34c-1.43-0.22-3.02-0.36-4.8-0.4C184.2,102.1,174,112.78,174,125.44l0,15.54h19.42
		c4.3,0,7.79,3.49,7.79,7.79v0c0,4.3-3.49,7.79-7.79,7.79H174v96.98H153.76z"/>
</g>
</svg>
