<?xml version="1.0" encoding="utf-8"?>
<!-- Generator: Adobe Illustrator 28.0.0, SVG Export Plug-In . SVG Version: 6.00 Build 0)  -->
<svg version="1.1" id="Layer_1" xmlns="http://www.w3.org/2000/svg" xmlns:xlink="http://www.w3.org/1999/xlink" x="0px" y="0px"
	 viewBox="0 0 300 300" style="enable-background:new 0 0 300 300;" xml:space="preserve">
<style type="text/css">
	.st0{fill:#FFFFFF;}
</style>
<g>
	<path class="st0" d="M64.02,230.61H53.27c-5.94,0-10.75-4.81-10.75-10.75v-10.75c0-5.94,4.81-10.75,10.75-10.75h10.75
		c5.94,0,10.75,4.81,10.75,10.75v10.75C74.77,225.79,69.96,230.61,64.02,230.61z M246.73,225.24
		C246.73,225.24,246.73,225.24,246.73,225.24l-139.72-0.01c-5.94,0-10.75-4.81-10.75-10.75c0-5.94,4.81-10.75,10.75-10.75
		c0,0,0,0,0,0l139.72,0.01c5.94,0,10.75,4.81,10.75,10.75C257.47,220.43,252.66,225.24,246.73,225.24z M64.02,166.12H53.27
		c-5.94,0-10.75-4.81-10.75-10.75v-10.75c0-5.94,4.81-10.75,10.75-10.75h10.75c5.94,0,10.75,4.81,10.75,10.75v10.75
		C74.77,161.31,69.96,166.12,64.02,166.12z M246.73,160.76C246.73,160.76,246.73,160.76,246.73,160.76l-139.72-0.01
		c-5.94,0-10.75-4.81-10.75-10.75c0-5.94,4.81-10.75,10.75-10.75c0,0,0,0,0,0l139.72,0.01c5.94,0,10.75,4.81,10.75,10.75
		C257.47,155.94,252.66,160.76,246.73,160.76z M64.02,101.64H53.27c-5.94,0-10.75-4.81-10.75-10.75V80.14
		c0-5.94,4.81-10.75,10.75-10.75h10.75c5.94,0,10.75,4.81,10.75,10.75v10.75C74.77,96.82,69.96,101.64,64.02,101.64z M246.73,96.27
		C246.73,96.27,246.73,96.27,246.73,96.27l-139.72-0.01c-5.94,0-10.75-4.81-10.75-10.75c0-5.94,4.81-10.75,10.75-10.75c0,0,0,0,0,0
		l139.72,0.01c5.94,0,10.75,4.81,10.75,10.75C257.47,91.46,252.66,96.27,246.73,96.27z"/>
</g>
</svg>
