<?xml version="1.0" encoding="utf-8"?>
<!-- Generator: Adobe Illustrator 28.0.0, SVG Export Plug-In . SVG Version: 6.00 Build 0)  -->
<svg version="1.1" id="Layer_1" xmlns="http://www.w3.org/2000/svg" xmlns:xlink="http://www.w3.org/1999/xlink" x="0px" y="0px"
	 viewBox="0 0 300 300" style="enable-background:new 0 0 300 300;" xml:space="preserve">
<style type="text/css">
	.st0{fill:#FFFFFF;}
</style>
<path class="st0" d="M249.34,121.28l-26.87-16.61h0L166.56,70.1c-0.3-0.19-0.61-0.36-0.93-0.51c-9.88-4.75-21.37-4.75-31.25,0
	l4.37,9.08h0l-4.36-9.08c-0.32,0.15-0.63,0.32-0.93,0.51l-55.92,34.57h0l-26.87,16.61c-4.73,2.92-6.2,9.13-3.27,13.87
	c2.93,4.74,9.14,6.2,13.87,3.27l11.5-7.1v72.43c0,8.3,2.11,16.78,9.17,22.79c6.66,5.68,15.82,7.44,25.76,7.44h15.45h53.74h15.45
	c9.94,0,19.1-1.77,25.76-7.44c7.07-6.01,9.17-14.49,9.17-22.79v-72.43l11.5,7.1c4.73,2.92,10.94,1.46,13.87-3.27
	C255.54,130.41,254.08,124.2,249.34,121.28z M166.79,213.82h-33.59v-3.36c0-9.28,7.52-16.79,16.79-16.79
	c9.28,0,16.79,7.51,16.79,16.79V213.82z M205.02,211.18c-1.23,1.05-4.5,2.64-12.7,2.64h-5.37v-3.36c0-20.41-16.54-36.95-36.95-36.95
	c-20.41,0-36.95,16.54-36.95,36.95v3.36h-5.37c-8.2,0-11.47-1.59-12.7-2.64c-0.83-0.7-2.08-2.3-2.08-7.44v-84.88l50.45-31.19
	c4.22-1.94,9.07-1.94,13.29,0l50.45,31.19v84.88C207.1,208.88,205.85,210.48,205.02,211.18z"/>
</svg>
