<?xml version="1.0" encoding="utf-8"?>
<!-- Generator: Adobe Illustrator 28.0.0, SVG Export Plug-In . SVG Version: 6.00 Build 0)  -->
<svg version="1.1" id="Layer_1" xmlns="http://www.w3.org/2000/svg" xmlns:xlink="http://www.w3.org/1999/xlink" x="0px" y="0px"
	 viewBox="0 0 300 300" style="enable-background:new 0 0 300 300;" xml:space="preserve">
<style type="text/css">
	.st0{fill:#303D74;}
	.st1{fill:#F66317;}
</style>
<g>
	<path class="st0" d="M144.99,142.97h9.59c3.95,0,7.49,1.83,9.79,4.7c17.34-0.06,30.47-4.28,37.23-8.98
		c1.2-4.45,1.84-9.12,1.84-13.94v-20.86c0-13.76-5.21-26.33-13.76-35.8c-4.89-5.41-10.87-9.81-17.6-12.87
		c-6.72-3.05-14.2-4.76-22.07-4.76c-15.9,0-30.18,6.95-39.97,17.96c-8.38,9.44-13.46,21.86-13.46,35.46v20.86
		c0,12.8,4.5,24.55,12.01,33.75c9.79,12.01,24.71,19.68,41.41,19.68c15.37,0,29.22-6.49,38.97-16.86c0.25-0.27,0.49-0.54,0.74-0.81
		c-7.53,1.84-16.08,2.86-25.34,2.89c-2.3,2.87-5.84,4.7-9.79,4.7h-9.59c-6.93,0-12.56-5.64-12.56-12.56
		C132.43,148.61,138.06,142.97,144.99,142.97z"/>
	<g>
		<path class="st1" d="M86.45,137.29L86.45,137.29c2.57,0,4.65-2.08,4.65-4.65V97.08c0.91-31.71,26.97-57.24,58.9-57.24
			c31.45,0,57.23,24.76,58.86,55.82v36.98c0,1.27,0.51,2.42,1.34,3.26c-4.51,9.16-23.83,16.27-46.19,16.27h-2.1
			c-1.28-2.78-4.08-4.71-7.33-4.71h-9.58c-4.46,0-8.08,3.62-8.08,8.08c0,4.46,3.62,8.08,8.08,8.08h9.58c3.26,0,6.05-1.93,7.33-4.71
			h2.1c27.2,0,48.47-9.12,53.01-21.91c11.24-1.69,19.86-11.36,19.86-23.07v-5.13c0-11.01-7.62-20.21-17.87-22.68
			c-5.98-32.66-34.64-57.5-69-57.5c-34.36,0-63.01,24.83-69,57.49c-10.27,2.46-17.91,11.67-17.91,22.7v5.13
			C63.09,126.83,73.55,137.29,86.45,137.29z"/>
	</g>
	<path class="st0" d="M256.77,253.4c-9.53-48.48-56.54-69.42-77.68-76.49c-8.37,5.44-18.36,8.61-29.09,8.61
		c-10.73,0-20.72-3.16-29.1-8.61c-21.15,7.08-68.14,28.01-77.67,76.49c-0.72,3.66-0.05,7.21,1.6,10.19c2.55,4.6,7.46,7.8,13.23,7.8
		h183.89c4.82,0,9.03-2.23,11.78-5.64C256.39,262.42,257.67,257.99,256.77,253.4z"/>
</g>
</svg>
