<?xml version="1.0" encoding="utf-8"?>
<!-- Generator: Adobe Illustrator 28.0.0, SVG Export Plug-In . SVG Version: 6.00 Build 0)  -->
<svg version="1.1" id="Layer_1" xmlns="http://www.w3.org/2000/svg" xmlns:xlink="http://www.w3.org/1999/xlink" x="0px" y="0px"
	 viewBox="0 0 300 300" style="enable-background:new 0 0 300 300;" xml:space="preserve">
<style type="text/css">
	.st0{fill:#FFFFFF;}
</style>
<g>
	<path class="st0" d="M35.01,165.83c-1-0.18-1.76-0.89-2.27-2.13c-0.65-1.59-1.22-3.58-1.72-5.98c-0.51-2.45-0.95-5.75-1.31-9.89
		c-0.15-1.75-0.09-3.58,0.27-5.22c0.64-2.94,1.8-5.57,3.49-7.9l1.05-0.79c0.11-0.09,0.24-0.13,0.38-0.14
		c7.96-0.41,15.92-0.57,23.89-0.49c9.53,0.1,19.06,0.03,28.59,0.01c1.66-0.01,3.15-0.24,4.47-0.69c8.66,0.11,17.38,0.16,26.15,0.15
		c2.36,0,4.68,0.1,6.95,0.31c0.41,0.22,0.93,0.45,1.4,0.45c8.36,0.12,16.11,0.15,23.24,0.08c2.6-0.03,5.23-0.18,7.89-0.47
		c0.07-0.01,0.12-0.07,0.11-0.14c0-0.02-0.01-0.03-0.02-0.05c-0.77-1.23-1.51-2.36-2.21-3.39c-5.29-7.83-10.75-15.81-16.36-23.93
		c-4.23-6.12-8.56-12.09-12.63-18.3c-0.11-0.16-0.22-0.32-0.34-0.48c-0.1-0.13-0.17-0.27-0.2-0.41c-0.07-0.31,0.13-0.62,0.44-0.69
		c0.03-0.01,0.06-0.01,0.08-0.01c2.89-0.2,5.88-0.29,8.8-0.24c9.07,0.15,17.94,0.21,26.62,0.18c1.43,0,3.67,0.12,4.48,1.42
		c2.4,3.8,4.83,7.64,7.31,11.5c5.5,8.61,11.83,16.77,17.64,25.33c2.88,4.25,5.83,8.44,8.83,12.59c1.82,2.51,3.54,5.1,5.38,7.65
		c0.96,1.33,1.58,3.03,0.67,4.57c-1.75,2.99-3.62,5.77-5.59,8.36c-1.22,1.6-2.32,3.24-3.43,4.92c-1.46,2.2-3.13,4.25-4.57,6.45
		c-2.03,3.09-4.19,6.06-6.3,9.08c-0.71,1.02-1.57,2.22-2.58,3.6c-1.92,2.63-3.77,5.3-5.53,8c-4.54,6.97-8.99,14.02-13.34,21.13
		c-2.01,3.28-4.6,3.88-8.15,3.84c-8.45-0.09-16.79-0.06-25.03,0.07c-3.33,0.06-6.7-0.15-10.03-0.54c-0.13-0.01-0.22-0.13-0.21-0.26
		c0-0.03,0.01-0.07,0.03-0.1c0.92-1.49,2.07-2.69,3.07-4.11c2.96-4.18,5.8-8.2,8.55-12.07c3.69-5.21,7.2-10.72,10.96-15.91
		c2.87-3.97,5.64-8.32,8.77-12.49c0.37-0.5,0.73-1.31,1.08-2.44c0.05-0.15-0.01-0.22-0.16-0.24c-1.47-0.12-2.83-0.18-4.07-0.18
		c-33.37,0.02-67.23,0.21-100.43,0.12c-3.08-0.01-6.59-0.15-9.85-0.18C37.17,165.74,35.74,165.76,35.01,165.83z"/>
	<path class="st0" d="M270.31,213.66c-0.17-0.62-0.43-1.16-0.79-1.63c-1.97-2.54-3.6-5.27-5.45-7.82c-1.01-1.4-2.01-2.84-2.99-4.3
		c-2.3-3.45-4.65-6.85-7.05-10.19c-1.92-2.67-3.56-5.01-4.91-7.02c-5.28-7.86-10.23-15.11-14.85-21.76
		c-1.25-1.8-2.66-3.41-3.81-5.16c-1.27-1.92-2.56-3.83-3.86-5.73c-0.19-0.27-0.39-0.52-0.61-0.75c-0.9-0.92-0.48-2.65,0.07-3.65
		c0.89-1.62,1.75-3.04,2.6-4.25c2.98-4.29,5.94-8.5,8.88-12.65c2-2.82,3.89-5.51,5.67-8.1c4.03-5.84,8.04-11.54,12.04-17.1
		c3.91-5.45,7.27-11.01,11.37-16.29c0.26-0.33,0.38-0.69,0.36-1.07c-0.01-0.33-0.28-0.59-0.61-0.6c-2.01,0-4.12,0.19-6.06,0.17
		c-7.07-0.07-16.01-0.06-26.81,0.02c-1.67,0.01-3.29,0.1-4.87,0.27c-1.03,0.11-1.93,0.61-2.48,1.47
		c-1.87,2.95-5.23,7.97-10.08,15.06c-2.93,4.29-6.01,8.68-9.23,13.16c-0.7,0.97-1.1,1.67-1.22,2.11c-0.48,1.82,0.68,3.39,1.68,4.84
		c5.28,7.61,10.42,15,15.44,22.17c0.79,1.12,1.28,3.34,0.2,4.54c-0.7,0.78-1.34,1.58-1.94,2.45c-3.82,5.48-7.69,11.03-11.6,16.64
		c-0.99,1.42-2.02,3.04-3.08,4.84c-0.96,1.62-0.77,2.88,0.3,4.46c3.86,5.73,7.47,11.55,11.33,17.15c4,5.81,7.96,11.68,11.88,17.61
		c0.92,1.39,2.84,1.57,4.45,1.63c1.86,0.07,3.69,0.09,5.49,0.03c8.33-0.23,16.61-0.24,24.86-0.03c1.67,0.04,3.33,0.29,4.98,0.36
		C270.24,214.57,270.48,214.28,270.31,213.66z M262.94,87.87c0.02,0.01,0.04,0.03,0.06,0.04c-0.03-0.02-0.06-0.04-0.1-0.05
		C262.92,87.86,262.93,87.86,262.94,87.87z M268.06,212.55c0-0.02-0.01-0.04-0.01-0.07c0,0.02,0.01,0.03,0.01,0.05
		C268.07,212.54,268.06,212.54,268.06,212.55z"/>
</g>
</svg>
