<?xml version="1.0" encoding="utf-8"?>
<!-- Generator: Adobe Illustrator 28.0.0, SVG Export Plug-In . SVG Version: 6.00 Build 0)  -->
<svg version="1.1" id="Layer_1" xmlns="http://www.w3.org/2000/svg" xmlns:xlink="http://www.w3.org/1999/xlink" x="0px" y="0px"
	 viewBox="0 0 300 300" style="enable-background:new 0 0 300 300;" xml:space="preserve">
<style type="text/css">
	.st0{fill:#303D74;}
	.st1{fill:#F66317;}
</style>
<g>
	<path class="st0" d="M148.23,47.13C148.23,47.13,148.23,47.13,148.23,47.13C148.24,47.13,148.24,47.13,148.23,47.13z"/>
	<path class="st0" d="M287.29,107.07C180.63,59.9,158.28,50.01,154.42,48.31c0,0,0,0-0.01,0c-0.04-0.02-0.06-0.03-0.1-0.04
		c-0.1-0.04-0.23-0.1-0.5-0.22c0.01,0,0.01,0.01,0.02,0.01c-0.14-0.06-0.16-0.07-0.12-0.05c-0.42-0.18-1.04-0.46-1.96-0.86
		c-1.14-0.52-2.4-0.52-3.54,0c-0.02,0.01-0.07,0.03-0.12,0.05c-0.98,0.43-1.55,0.69-1.83,0.81c-0.04,0.02-0.08,0.04-0.12,0.05
		c-0.04,0.02-0.07,0.03-0.09,0.04c-7.26,3.21-35.95,15.9-133.36,58.98c-2.19,1.01-3.19,3.58-2.23,5.77
		c1.01,2.23,3.58,3.24,5.77,2.23L39.5,104.8v144.09c0,2.4,1.97,4.37,4.37,4.37c30.39,0,181.2,0,212.25,0c2.45,0,4.37-1.97,4.37-4.37
		V104.8l23.26,10.27c0.57,0.26,1.18,0.39,1.79,0.39c1.66,0,3.28-0.96,3.98-2.62C290.48,110.65,289.52,108.08,287.29,107.07z
		 M133.19,94h33.62v16.66h-33.62V94z M230.33,244.52h-2.87h-4.96h-67.28h-13.03h-64.7h-4.94h-2.89v-79l80.35-24.48l80.31,24.48
		V244.52z"/>
	<g>
		<path class="st1" d="M137.82,188.38h-20.55v15.26c0,0.87-0.74,1.62-1.62,1.62h-11.59c-0.92,0-1.66-0.74-1.66-1.62v-15.26H81.86
			c-2.4,0-4.37,1.97-4.37,4.37v47.06h64.7v-47.06C142.19,190.35,140.23,188.38,137.82,188.38z"/>
	</g>
	<g>
		<path class="st1" d="M222.5,239.82v-35.56c0-2.45-1.97-4.37-4.37-4.37h-22.47v12.15c0,0.96-0.79,1.7-1.71,1.7h-10.19
			c-0.96,0-1.7-0.74-1.7-1.7v-12.15h-22.47c-2.4,0-4.37,1.92-4.37,4.37v35.56H222.5z"/>
	</g>
</g>
</svg>
