<?xml version="1.0" encoding="utf-8"?>
<!-- Generator: Adobe Illustrator 28.0.0, SVG Export Plug-In . SVG Version: 6.00 Build 0)  -->
<svg version="1.1" id="Layer_1" xmlns="http://www.w3.org/2000/svg" xmlns:xlink="http://www.w3.org/1999/xlink" x="0px" y="0px"
	 viewBox="0 0 300 300" style="enable-background:new 0 0 300 300;" xml:space="preserve">
<style type="text/css">
	.st0{fill:#F66317;}
	.st1{fill:#303D74;}
	.st2{fill:#FF7639;}
	.st3{fill:#EAEAEA;}
	.st4{fill:#FFFFFF;}
</style>
<g>
	<g>
		<path class="st0" d="M158.91,246.19v2.63h-17.82v-2.63H28.85v3.05c0,7.06,3.35,12.79,7.48,12.79h227.34
			c4.13,0,7.48-5.73,7.48-12.79v-3.05H158.91z"/>
	</g>
	<path class="st1" d="M267.14,76.54H32.87c-0.96,0-1.74,0.92-1.74,2.05v160.67c0,1.13,0.78,2.05,1.74,2.05h234.27
		c0.96,0,1.73-0.92,1.73-2.05V78.59C268.87,77.45,268.1,76.54,267.14,76.54z M259.34,230.04H40.66V87.81h218.69V230.04z"/>
	<g>
		<g>
			<rect x="24.76" y="37.96" class="st2" width="35.75" height="57.23"/>
		</g>
		<g>
			<path class="st0" d="M42.61,112.94c9.89,0,17.9-7.95,17.9-17.76H24.7C24.7,104.99,32.72,112.94,42.61,112.94z"/>
		</g>
		<rect x="60.56" y="37.96" class="st3" width="35.75" height="57.23"/>
		<path class="st4" d="M78.41,112.94c9.89,0,17.9-7.95,17.9-17.76h-35.8C60.51,104.99,68.52,112.94,78.41,112.94z"/>
		<g>
			<rect x="96.37" y="37.96" class="st2" width="35.75" height="57.23"/>
		</g>
		<g>
			<path class="st0" d="M114.21,112.94c9.89,0,17.9-7.95,17.9-17.76h-35.8C96.31,104.99,104.33,112.94,114.21,112.94z"/>
		</g>
		<rect x="132.17" y="37.96" class="st3" width="35.75" height="57.23"/>
		<path class="st4" d="M150.02,112.94c9.89,0,17.9-7.95,17.9-17.76h-35.8C132.12,104.99,140.13,112.94,150.02,112.94z"/>
		<g>
			<rect x="167.94" y="37.96" class="st2" width="35.75" height="57.23"/>
		</g>
		<g>
			<path class="st0" d="M185.79,112.94c9.89,0,17.9-7.95,17.9-17.76h-35.8C167.88,104.99,175.9,112.94,185.79,112.94z"/>
		</g>
		<g>
			<rect x="239.55" y="37.96" class="st2" width="35.75" height="57.23"/>
		</g>
		<g>
			<path class="st0" d="M257.39,112.94c9.89,0,17.9-7.95,17.9-17.76h-35.8C239.49,104.99,247.51,112.94,257.39,112.94z"/>
		</g>
		<rect x="203.74" y="37.96" class="st3" width="35.75" height="57.23"/>
		<path class="st4" d="M221.59,112.94c9.89,0,17.9-7.95,17.9-17.76h-35.8C203.69,104.99,211.7,112.94,221.59,112.94z"/>
	</g>
	<g>
		<path class="st1" d="M204.74,199.16H97.13c-0.72,0-1.31-0.59-1.31-1.31v-63.56c0-0.72,0.59-1.31,1.31-1.31h107.61
			c0.72,0,1.31,0.59,1.31,1.31v63.56C206.06,198.56,205.47,199.16,204.74,199.16z"/>
		<g>
			<g>
				<path class="st4" d="M107.38,191.44v-51.22h13.25c3.17,0,5.92,0.72,8.25,2.16c2.33,1.44,3.5,3.74,3.5,6.91v7.11
					c0,3.6-2.19,6.13-6.57,7.61c4.62,1.14,6.93,3.61,6.93,7.39v9.93c0,3.38-1.1,5.91-3.3,7.59c-2.2,1.68-4.83,2.52-7.88,2.52H107.38
					z M121.78,158.22v-8.74c0-1.79-1.05-2.69-3.14-2.69v14.14C120.73,160.94,121.78,160.03,121.78,158.22z M121.78,182.15v-12.96
					c0-1.79-1.05-2.68-3.14-2.68v18.36C120.73,184.87,121.78,183.96,121.78,182.15z"/>
				<path class="st4" d="M135.1,140.22h11.25v43c0,1.02,0.63,1.54,1.89,1.54c1.24,0,1.86-0.51,1.86-1.54v-43h11.25v42.39
					c0,2.95-1.23,5.24-3.68,6.86c-2.45,1.62-5.6,2.43-9.43,2.43c-3.55,0-6.63-0.73-9.23-2.18c-2.61-1.45-3.91-3.8-3.91-7.04V140.22z
					"/>
				<path class="st4" d="M194.49,140.22l-7.36,20.64l-3.68,10.32v20.25h-11.25v-19.86c-0.21-1.81-1.18-5.34-2.89-10.61
					c-1.48-4.45-3.64-11.37-6.5-20.75h10.74l5.07,18.16l5.75-18.16H194.49z"/>
			</g>
		</g>
	</g>
	<g>
		<g>
			<path class="st0" d="M228.57,209.41l-7.91,7.91c-0.32,0.32-0.85,0.32-1.17,0l-22.82-22.82c-0.32-0.32-0.32-0.85,0-1.17l7.91-7.91
				c0.32-0.32,0.85-0.32,1.17,0l22.82,22.82C228.89,208.56,228.89,209.08,228.57,209.41z"/>
		</g>
		<g>
			<path class="st0" d="M190.88,180.58c-0.14-0.56,0.39-1.08,0.95-0.95l12.71,3.12l12.71,3.12c0.56,0.14,0.73,0.83,0.31,1.26
				l-9.58,9.58l-9.58,9.58c-0.42,0.42-1.12,0.25-1.26-0.31L194,193.29L190.88,180.58z"/>
		</g>
	</g>
</g>
</svg>
