<?xml version="1.0" encoding="utf-8"?>
<!-- Generator: Adobe Illustrator 28.0.0, SVG Export Plug-In . SVG Version: 6.00 Build 0)  -->
<svg version="1.1" id="Layer_1" xmlns="http://www.w3.org/2000/svg" xmlns:xlink="http://www.w3.org/1999/xlink" x="0px" y="0px"
	 viewBox="0 0 300 300" style="enable-background:new 0 0 300 300;" xml:space="preserve">
<style type="text/css">
	.st0{fill:#FFFFFF;}
</style>
<path class="st0" d="M212.86,275.72c-6.94,0-12.57-5.63-12.57-12.57V238h-25.14c-6.94,0-12.57-5.63-12.57-12.57
	s5.63-12.57,12.57-12.57h25.14v-25.14c0-6.94,5.63-12.57,12.57-12.57s12.57,5.63,12.57,12.57v25.14h25.14
	c6.94,0,12.57,5.63,12.57,12.57S257.52,238,250.57,238h-25.14v25.14C225.43,270.09,219.8,275.72,212.86,275.72z M49.43,275.72
	c-6.94,0-12.57-5.63-12.57-12.57c0-26.86,10.46-52.12,29.46-71.12c19-19,44.25-29.46,71.12-29.46c9.77,0,19.44,1.4,28.73,4.17
	c6.65,1.98,10.44,8.98,8.46,15.64c-1.98,6.65-8.98,10.44-15.64,8.46c-6.96-2.07-14.21-3.12-21.56-3.12
	c-41.59,0-75.43,33.84-75.43,75.43C62,270.09,56.37,275.72,49.43,275.72z M137.43,150c-34.66,0-62.86-28.2-62.86-62.86
	c0-34.66,28.2-62.86,62.86-62.86s62.86,28.2,62.86,62.86C200.29,121.8,172.09,150,137.43,150z M137.43,49.43
	c-20.8,0-37.71,16.92-37.71,37.71c0,20.8,16.92,37.71,37.71,37.71s37.71-16.92,37.71-37.71C175.14,66.35,158.22,49.43,137.43,49.43z
	"/>
</svg>
