<?xml version="1.0" encoding="utf-8"?>
<!-- Generator: Adobe Illustrator 28.0.0, SVG Export Plug-In . SVG Version: 6.00 Build 0)  -->
<svg version="1.1" id="Layer_1" xmlns="http://www.w3.org/2000/svg" xmlns:xlink="http://www.w3.org/1999/xlink" x="0px" y="0px"
	 viewBox="0 0 300 300" style="enable-background:new 0 0 300 300;" xml:space="preserve">
<style type="text/css">
	.st0{fill:none;stroke:#FFFFFF;stroke-width:14.1491;stroke-linecap:round;stroke-linejoin:round;stroke-miterlimit:133.3333;}
</style>
<path class="st0" d="M150,221.63h0.12 M138.06,78.37h23.88 M116.57,257.44h66.85c13.37,0,20.06,0,25.17-2.6
	c4.49-2.29,8.15-5.94,10.43-10.43c2.6-5.11,2.6-11.79,2.6-25.17V80.76c0-13.37,0-20.06-2.6-25.17c-2.29-4.49-5.94-8.15-10.43-10.43
	c-5.11-2.6-11.79-2.6-25.17-2.6h-66.85c-13.37,0-20.06,0-25.17,2.6c-4.49,2.29-8.15,5.94-10.43,10.43c-2.6,5.11-2.6,11.79-2.6,25.17
	v138.48c0,13.37,0,20.06,2.6,25.17c2.29,4.49,5.94,8.15,10.43,10.43C96.52,257.44,103.2,257.44,116.57,257.44z"/>
</svg>
