<?xml version="1.0" encoding="utf-8"?>
<!-- Generator: Adobe Illustrator 28.0.0, SVG Export Plug-In . SVG Version: 6.00 Build 0)  -->
<svg version="1.1" id="Layer_1" xmlns="http://www.w3.org/2000/svg" xmlns:xlink="http://www.w3.org/1999/xlink" x="0px" y="0px"
	 viewBox="0 0 300 300" style="enable-background:new 0 0 300 300;" xml:space="preserve">
<style type="text/css">
	.st0{fill:none;stroke:#FFFFFF;stroke-width:7.9431;stroke-linecap:round;stroke-linejoin:round;stroke-miterlimit:50;}
</style>
<g>
	<path class="st0" d="M121.11,186.7h57.04c3.42,0,6.19-2.77,6.19-6.19l0,0l21.54-78.88c0-3.42-2.77-6.19-6.19-6.19
		c-0.02,0-0.05,0-0.07,0h-93.5c-3.42,0-6.2,2.76-6.22,6.19l-18.41,78.88c0,3.42,2.77,6.19,6.19,6.19h0h8.03"/>
	<path class="st0" d="M194.69,186.7h-12.78l18.41-63.67h30.27c0.92,0,1.8,0.4,2.39,1.1l13.18,23.2c0.47,0.54,0.73,1.23,0.74,1.95
		l-12.26,37.42h-13.26"/>
	<ellipse class="st0" cx="108.7" cy="190.71" rx="13.66" ry="13.85"/>
	<ellipse class="st0" cx="208.28" cy="190.71" rx="13.66" ry="13.85"/>
	<line class="st0" x1="126.89" y1="113.56" x2="66.57" y2="113.56"/>
	<line class="st0" x1="115" y1="132.86" x2="72.39" y2="132.86"/>
	<line class="st0" x1="119.31" y1="154.59" x2="53.09" y2="154.59"/>
</g>
</svg>
