<?xml version="1.0" encoding="utf-8"?>
<!-- Generator: Adobe Illustrator 28.0.0, SVG Export Plug-In . SVG Version: 6.00 Build 0)  -->
<svg version="1.1" id="Layer_1" xmlns="http://www.w3.org/2000/svg" xmlns:xlink="http://www.w3.org/1999/xlink" x="0px" y="0px"
	 viewBox="0 0 300 300" style="enable-background:new 0 0 300 300;" xml:space="preserve">
<style type="text/css">
	.st0{fill:#F66317;}
</style>
<g>
	<g>
		<path class="st0" d="M74.18,140.18h13.4c8.89,26.1,33.64,44.92,62.71,44.92c20.84,0,39.46-9.68,51.61-24.78h17.22
			c3.2,0,5.79-2.59,5.79-5.79v-14.36h2.61c6.28,0,11.38-5.11,11.38-11.38V99.7c0-5.55-3.99-10.18-9.25-11.18
			c-3.8-17.2-13.15-31.82-27.18-42.42c-14.39-10.87-32.43-16.61-52.18-16.61c-40.08,0-71.7,23.74-79.42,59.32
			c-4.66,1.42-8.06,5.77-8.06,10.89v29.1C62.8,135.07,67.9,140.18,74.18,140.18z M74.37,128.6V99.89h12.47
			c-1.81,6.02-2.78,12.39-2.78,18.99c0,3.3,0.25,6.55,0.72,9.73H74.37z M150.28,173.53c-30.13,0-54.65-24.52-54.65-54.65
			s24.52-54.65,54.65-54.65c30.13,0,54.65,24.52,54.65,54.65c0,11.02-3.28,21.28-8.91,29.87h-49.1c-3.2,0-5.79,2.59-5.79,5.79
			c0,3.2,2.59,5.79,5.79,5.79h38.94C176.3,168.55,163.86,173.53,150.28,173.53z M213.33,148.75h-3.95c1.4-2.75,2.61-5.62,3.62-8.57
			h0.34L213.33,148.75L213.33,148.75z M227.32,128.6h-11.53c0.47-3.18,0.72-6.42,0.72-9.73c0-6.6-0.98-12.97-2.78-18.99h13.59
			L227.32,128.6L227.32,128.6z M150.28,41.06c33.35,0,59.75,18.77,67.4,47.25h-8.66c-11.06-21.17-33.24-35.66-58.73-35.66
			c-25.5,0-47.67,14.49-58.73,35.66h-8.66C90.53,59.85,116.98,41.06,150.28,41.06z"/>
	</g>
	<g>
		<path class="st0" d="M209.71,187.65H90.76c-18.37,0-33.31,14.94-33.31,33.31v44.52c0,3.2,2.59,5.79,5.79,5.79s5.79-2.59,5.79-5.79
			v-44.52c0-11.99,9.75-21.74,21.74-21.74h118.95c11.99,0,21.74,9.75,21.74,21.74v44.52c0,3.2,2.59,5.79,5.79,5.79
			s5.79-2.59,5.79-5.79v-44.52C243.02,202.59,228.08,187.65,209.71,187.65z"/>
	</g>
</g>
</svg>
