<?xml version="1.0" encoding="utf-8"?>
<!-- Generator: Adobe Illustrator 28.0.0, SVG Export Plug-In . SVG Version: 6.00 Build 0)  -->
<svg version="1.1" id="Layer_1" xmlns="http://www.w3.org/2000/svg" xmlns:xlink="http://www.w3.org/1999/xlink" x="0px" y="0px"
	 viewBox="0 0 300 300" style="enable-background:new 0 0 300 300;" xml:space="preserve">
<style type="text/css">
	.st0{fill:#FFFFFF;}
</style>
<path class="st0" d="M144.17,33.34c-51.54,0-93.33,41.78-93.33,93.33v22.16c-7.11,6.2-11.34,15.07-11.67,24.5
	c0.54,13.84,9.53,25.94,22.63,30.45c15.17,36.28,45.61,62.88,82.36,62.88h35v-23.33h-35c-26.36,0-50.28-19.83-62.3-51.21l-2.45-6.42
	l-6.88-0.7c-5.8-0.82-10.09-5.81-10.03-11.67c0.03-4.14,2.25-7.96,5.83-10.03l5.83-3.38v-21.58c0-6.44,5.22-11.67,11.67-11.67H202.5
	c6.44,0,11.67,5.22,11.67,11.67v58.33h-47.71c-3.25-9.1-13.26-13.85-22.36-10.6c-9.1,3.25-13.85,13.26-10.6,22.36
	c2.33,6.54,8.31,11.08,15.23,11.58h88.78c12.89,0,23.33-10.45,23.33-23.33v-23.33c0-12.89-10.45-23.33-23.33-23.33v-23.33
	C237.49,75.13,195.71,33.34,144.17,33.34z"/>
</svg>
