<?xml version="1.0" encoding="utf-8"?>
<!-- Generator: Adobe Illustrator 28.0.0, SVG Export Plug-In . SVG Version: 6.00 Build 0)  -->
<svg version="1.1" id="Layer_1" xmlns="http://www.w3.org/2000/svg" xmlns:xlink="http://www.w3.org/1999/xlink" x="0px" y="0px"
	 viewBox="0 0 300 300" style="enable-background:new 0 0 300 300;" xml:space="preserve">
<style type="text/css">
	.st0{fill-rule:evenodd;clip-rule:evenodd;fill:#FFFFFF;}
</style>
<g id="Page-1">
	<g id="about-white" transform="translate(42.666667, 42.666667)">
		<path id="Shape" class="st0" d="M107.33-7.36C43.99-7.36-7.36,43.99-7.36,107.33c0,63.34,51.35,114.69,114.69,114.69
			c63.34,0,114.69-51.35,114.69-114.69C222.02,43.99,170.68-7.36,107.33-7.36z M107.33,199.09c-50.59,0-91.75-41.16-91.75-91.75
			s41.16-91.75,91.75-91.75c50.59,0,91.75,41.16,91.75,91.75S157.93,199.09,107.33,199.09z M121.69,61.46
			c0,8.32-6.05,14.34-14.24,14.34c-8.52,0-14.43-6.02-14.43-14.5c0-8.15,6.07-14.18,14.43-14.18
			C115.64,47.12,121.69,53.15,121.69,61.46z M95.89,95.86h22.94v68.81H95.89V95.86z"/>
	</g>
</g>
</svg>
