<?xml version="1.0" encoding="utf-8"?>
<!-- Generator: Adobe Illustrator 28.0.0, SVG Export Plug-In . SVG Version: 6.00 Build 0)  -->
<svg version="1.1" id="Layer_1" xmlns="http://www.w3.org/2000/svg" xmlns:xlink="http://www.w3.org/1999/xlink" x="0px" y="0px"
	 viewBox="0 0 300 300" style="enable-background:new 0 0 300 300;" xml:space="preserve">
<style type="text/css">
	.st0{fill:none;stroke:#FFFFFF;stroke-width:14.7689;stroke-miterlimit:50;}
</style>
<g>
	<path class="st0" d="M248.48,126.27V252.2c-0.21,7.94-6.82,14.2-14.76,13.98c0,0-0.01,0-0.01,0H66.33
		c-7.94,0.22-14.55-6.03-14.77-13.97c0,0,0-0.01,0-0.01V126.22"/>
	<polyline class="st0" points="121.77,265.79 121.77,181.75 178.77,181.75 178.77,265.79 	"/>
	<path class="st0" d="M34.04,86.88c0,0-5.42,38.2,31.75,44.01c11,1.63,22.13-2.02,30.03-9.85c13.73,14.82,36.87,15.7,51.69,1.98
		c0.88-0.81,1.72-1.67,2.51-2.57c6.29,7.14,15.12,11.54,24.61,12.26c10.46-0.84,20.5-4.5,29.05-10.58
		c5.94,6.46,14.22,10.28,22.99,10.58c21.75,0.1,39.46-17.45,39.56-39.2c0.01-2.2-0.16-4.4-0.52-6.58l-23.24-49.92
		c-0.72-1.93-2.57-3.21-4.63-3.2H61.41c-2.07,0-3.92,1.3-4.63,3.25L34.04,86.88z"/>
	<line class="st0" x1="34.04" y1="86.88" x2="265.91" y2="86.88"/>
	<line class="st0" x1="96.07" y1="86.88" x2="96.07" y2="33.82"/>
	<line class="st0" x1="150.27" y1="86.88" x2="150.27" y2="33.82"/>
	<line class="st0" x1="204.23" y1="86.88" x2="204.23" y2="33.82"/>
</g>
</svg>
