<?xml version="1.0" encoding="utf-8"?>
<!-- Generator: Adobe Illustrator 28.0.0, SVG Export Plug-In . SVG Version: 6.00 Build 0)  -->
<svg version="1.1" id="Layer_1" xmlns="http://www.w3.org/2000/svg" xmlns:xlink="http://www.w3.org/1999/xlink" x="0px" y="0px"
	 viewBox="0 0 300 300" style="enable-background:new 0 0 300 300;" xml:space="preserve">
<style type="text/css">
	.st0{fill:#F66317;}
</style>
<g>
	<path class="st0" d="M276.78,132.63c-0.12-0.1-0.26-0.15-0.42-0.15c-8.86-0.45-91.2-0.58-100.06-0.49
		c-10.6,0.11-21.21,0.04-31.81,0.01l-31.17,0.25c-9.3,0.14-17.92,0.17-25.86,0.09c-2.9-0.03-5.82-0.2-8.78-0.52
		c-0.08-0.01-0.13-0.08-0.12-0.16c0-0.02,0.01-0.04,0.02-0.05c0.86-1.37,1.68-2.62,2.46-3.77c5.89-8.71,11.95-17.59,18.2-26.62
		c4.7-6.81,9.52-13.45,14.06-20.36c0.12-0.18,0.24-0.36,0.38-0.53c0.11-0.15,0.19-0.3,0.22-0.46c0.08-0.35-0.14-0.69-0.49-0.77
		c-0.03-0.01-0.06-0.01-0.09-0.01c-3.21-0.22-6.54-0.32-9.79-0.27c-10.09,0.17-19.96,0.23-29.62,0.2c-1.59,0-4.08,0.13-4.99,1.58
		c-2.66,4.23-5.37,8.5-8.13,12.8c-6.12,9.58-13.16,18.65-19.63,28.18c-3.2,4.72-6.48,9.39-9.83,14c-2.02,2.79-3.94,5.68-5.98,8.51
		c-1.07,1.48-1.75,3.37-0.74,5.09c1.95,3.33,4.02,6.42,6.22,9.3c1.36,1.78,2.58,3.6,3.82,5.47c1.62,2.45,3.48,4.73,5.08,7.17
		c2.25,3.44,4.66,6.74,7,10.11c0.79,1.13,1.75,2.47,2.87,4.01c2.14,2.93,4.19,5.89,6.15,8.9c5.05,7.76,10,15.6,14.84,23.51
		c2.24,3.65,5.12,4.31,9.06,4.27c9.4-0.1,18.68-0.07,27.84,0.08c3.71,0.06,7.45-0.17,11.16-0.6c0.14-0.02,0.25-0.15,0.23-0.29
		c0-0.04-0.02-0.07-0.04-0.11c-1.02-1.66-2.3-2.99-3.42-4.57c-3.29-4.65-6.46-9.13-9.51-13.43c-4.11-5.79-8.01-11.92-12.19-17.7
		c-3.19-4.41-6.27-9.26-9.76-13.9c-0.41-0.55-0.81-1.46-1.2-2.72c-0.05-0.16,0.01-0.25,0.18-0.26c1.64-0.13,3.14-0.2,4.53-0.2
		c37.12,0.02,136.1,0.18,173.04,0.08c3.43-0.01,7.33-0.17,10.96-0.2c2.37-0.02,3.97,0.01,4.78,0.09L276.78,132.63z"/>
</g>
</svg>
